<?xml version="1.0" encoding="iso-8859-1"?>
<!-- Generator: Adobe Illustrator 19.0.0, SVG Export Plug-In . SVG Version: 6.00 Build 0)  -->
<svg version="1.1" id="Capa_1" xmlns="http://www.w3.org/2000/svg" xmlns:xlink="http://www.w3.org/1999/xlink" x="0px" y="0px"
	 viewBox="0 0 512 512" style="enable-background:new 0 0 512 512;" xml:space="preserve">
<g>
	<g>
		<path fill="currentColor" d="M510.083,7.663C507.429,2.93,502.426,0,497,0H15C9.574,0,4.571,2.93,1.917,7.663c-2.654,4.733-2.546,10.529,0.284,15.159
			l174.531,285.599V448.8c0,6.253,3.879,11.85,9.733,14.045l128.533,48.2c1.707,0.64,3.491,0.955,5.266,0.955
			c3.013,0,6-0.908,8.545-2.671c4.044-2.802,6.456-7.409,6.456-12.329V308.421L509.799,22.822
			C512.629,18.192,512.737,12.395,510.083,7.663z M307.467,296.379c-1.439,2.355-2.201,5.062-2.201,7.822v171.155l-98.533-36.95
			V304.2c0-2.76-0.762-5.467-2.201-7.822L41.746,30h428.508L307.467,296.379z"/>
	</g>
</g>
<g>
</g>
<g>
</g>
<g>
</g>
<g>
</g>
<g>
</g>
<g>
</g>
<g>
</g>
<g>
</g>
<g>
</g>
<g>
</g>
<g>
</g>
<g>
</g>
<g>
</g>
<g>
</g>
<g>
</g>
</svg>
