<?xml version="1.0" encoding="iso-8859-1"?>
<!-- Generator: Adobe Illustrator 18.0.0, SVG Export Plug-In . SVG Version: 6.00 Build 0)  -->
<!DOCTYPE svg PUBLIC "-//W3C//DTD SVG 1.1//EN" "http://www.w3.org/Graphics/SVG/1.1/DTD/svg11.dtd">
<svg version="1.1" id="Capa_1" xmlns="http://www.w3.org/2000/svg" xmlns:xlink="http://www.w3.org/1999/xlink" x="0px" y="0px"
	 viewBox="0 0 489.787 489.787" style="enable-background:new 0 0 489.787 489.787;" xml:space="preserve">
<path d="M421.47,39.936c-53.25-53.248-139.889-53.248-193.139,0l-192.48,192.48c-7.81,7.811-7.81,20.474,0,28.284
	c7.812,7.811,20.475,7.811,28.284,0L256.616,68.22c37.652-37.652,98.917-37.653,136.569,0
	c18.239,18.239,28.285,42.489,28.284,68.284c0,25.795-10.045,50.046-28.285,68.285L165.322,432.652
	c-10.851,10.852-25.232,16.935-40.494,17.129c-15.145,0.193-29.394-5.533-39.986-16.125c-10.695-10.695-16.563-25.111-16.524-40.59
	c0.039-15.493,5.979-29.944,16.728-40.692l207.98-207.981c3.096-3.096,7.212-4.801,11.591-4.801c4.379,0,8.495,1.705,11.592,4.802
	c6.392,6.391,6.391,16.79,0,23.182L143.61,340.173c-7.811,7.811-7.811,20.474-0.001,28.284c7.812,7.811,20.475,7.811,28.284,0
	L344.492,195.86c21.987-21.989,21.987-57.765,0-79.75c-10.651-10.652-24.813-16.518-39.876-16.518
	c-15.063,0-29.225,5.866-39.876,16.517L56.76,324.09c-18.274,18.275-28.376,42.735-28.442,68.875
	c-0.066,26.203,9.963,50.699,28.241,68.976c17.986,17.987,41.915,27.847,67.508,27.846c0.422,0,0.848-0.003,1.271-0.008
	c25.754-0.328,49.999-10.57,68.27-28.842L421.47,233.074c25.794-25.794,40-60.09,40-96.569
	C461.471,100.025,447.265,65.73,421.47,39.936z"/>
<g>
</g>
<g>
</g>
<g>
</g>
<g>
</g>
<g>
</g>
<g>
</g>
<g>
</g>
<g>
</g>
<g>
</g>
<g>
</g>
<g>
</g>
<g>
</g>
<g>
</g>
<g>
</g>
<g>
</g>
</svg>
