<svg width="22" height="22" viewBox="0 0 22 22" xmlns="http://www.w3.org/2000/svg">
    <path d="M3.06178 15.5833C2.67428 14.9132 2.37306 14.1968 2.16528 13.4511C2.61748 13.2211 2.99724 12.8705 3.26256 12.4381C3.52788 12.0057 3.6684 11.5083 3.66859 11.001C3.66878 10.4937 3.52863 9.99616 3.26364 9.56354C2.99864 9.13092 2.61914 8.78004 2.16712 8.54971C2.58148 7.05141 3.37045 5.68325 4.4597 4.57413C4.88512 4.85071 5.37877 5.00419 5.88601 5.01759C6.39326 5.03099 6.89432 4.90379 7.33375 4.65006C7.77318 4.39632 8.13384 4.02596 8.37582 3.57995C8.61779 3.13394 8.73165 2.62967 8.70478 2.12296C10.2101 1.73395 11.7896 1.73458 13.2945 2.12479C13.2679 2.63149 13.382 3.13568 13.6241 3.58157C13.8663 4.02745 14.2271 4.39764 14.6666 4.65118C15.1061 4.90472 15.6072 5.03171 16.1145 5.01812C16.6217 5.00452 17.1152 4.85085 17.5405 4.57413C18.0713 5.11496 18.5424 5.73004 18.9384 6.41663C19.3354 7.10321 19.6324 7.81913 19.8349 8.54879C19.3828 8.77879 19.003 9.12939 18.7377 9.56181C18.4724 9.99423 18.3318 10.4916 18.3316 10.9989C18.3315 11.5063 18.4716 12.0038 18.7366 12.4364C19.0016 12.869 19.3811 13.2199 19.8331 13.4502C19.4187 14.9485 18.6298 16.3167 17.5405 17.4258C17.1151 17.1492 16.6215 16.9957 16.1142 16.9823C15.607 16.9689 15.1059 17.0961 14.6665 17.3499C14.2271 17.6036 13.8664 17.974 13.6244 18.42C13.3824 18.866 13.2686 19.3702 13.2954 19.877C11.7902 20.266 10.2107 20.2653 8.7057 19.8751C8.73233 19.3684 8.61825 18.8642 8.37609 18.4184C8.13392 17.9725 7.77312 17.6023 7.33361 17.3487C6.89409 17.0952 6.393 16.9682 5.88578 16.9818C5.37856 16.9954 4.885 17.1491 4.4597 17.4258C3.91794 16.873 3.44825 16.2539 3.06178 15.5833ZM8.25012 15.763C9.22694 16.3264 9.96139 17.2306 10.3126 18.3021C10.77 18.3452 11.2293 18.3461 11.6867 18.303C12.0382 17.2313 12.7729 16.3271 13.7501 15.7639C14.7266 15.1989 15.8773 15.0145 16.9814 15.246C17.2472 14.872 17.4764 14.4732 17.667 14.0561C16.9148 13.2159 16.4993 12.1277 16.5001 11C16.5001 9.84496 16.931 8.76604 17.667 7.94379C17.475 7.52685 17.2449 7.12854 16.9795 6.75396C15.8761 6.98524 14.7262 6.80115 13.7501 6.23696C12.7733 5.67355 12.0388 4.76936 11.6876 3.69779C11.2302 3.65471 10.7709 3.65379 10.3135 3.69688C9.96208 4.76859 9.22729 5.67281 8.25012 6.23604C7.27367 6.801 6.12297 6.98544 5.01887 6.75396C4.75355 7.12822 4.52399 7.52658 4.3332 7.94379C5.08539 8.78397 5.50093 9.87227 5.50012 11C5.50012 12.155 5.06928 13.2339 4.3332 14.0561C4.52522 14.4731 4.75536 14.8714 5.0207 15.246C6.12411 15.0147 7.27406 15.1988 8.25012 15.763ZM11.0001 13.75C10.2708 13.75 9.5713 13.4602 9.05557 12.9445C8.53985 12.4288 8.25012 11.7293 8.25012 11C8.25012 10.2706 8.53985 9.57114 9.05557 9.05542C9.5713 8.53969 10.2708 8.24996 11.0001 8.24996C11.7295 8.24996 12.4289 8.53969 12.9447 9.05542C13.4604 9.57114 13.7501 10.2706 13.7501 11C13.7501 11.7293 13.4604 12.4288 12.9447 12.9445C12.4289 13.4602 11.7295 13.75 11.0001 13.75ZM11.0001 11.9166C11.2432 11.9166 11.4764 11.82 11.6483 11.6481C11.8202 11.4762 11.9168 11.2431 11.9168 11C11.9168 10.7568 11.8202 10.5237 11.6483 10.3518C11.4764 10.1799 11.2432 10.0833 11.0001 10.0833C10.757 10.0833 10.5238 10.1799 10.3519 10.3518C10.18 10.5237 10.0834 10.7568 10.0834 11C10.0834 11.2431 10.18 11.4762 10.3519 11.6481C10.5238 11.82 10.757 11.9166 11.0001 11.9166Z"/>
</svg>
