<svg width="16" height="18" viewBox="0 0 16 18" fill="none" xmlns="http://www.w3.org/2000/svg">
<path d="M7.99991 13.1666C11.0516 13.1666 13.7207 14.4791 15.1724 16.4375L13.6374 17.1633C12.4557 15.7633 10.3724 14.8333 7.99991 14.8333C5.62741 14.8333 3.54408 15.7633 2.36241 17.1633L0.828247 16.4366C2.27991 14.4783 4.94825 13.1666 7.99991 13.1666ZM7.99991 0.666626C9.10498 0.666626 10.1648 1.10561 10.9462 1.88701C11.7276 2.66842 12.1666 3.72822 12.1666 4.83329V7.33329C12.1665 8.40701 11.752 9.43926 11.0094 10.2148C10.2668 10.9903 9.25345 11.4492 8.18075 11.4958L7.99991 11.5C6.89485 11.5 5.83504 11.061 5.05364 10.2796C4.27223 9.49817 3.83325 8.43836 3.83325 7.33329V4.83329C3.83331 3.75957 4.24786 2.72732 4.99046 1.95181C5.73306 1.1763 6.74637 0.717392 7.81908 0.670793L7.99991 0.666626ZM7.99991 2.33329C7.36224 2.33326 6.74865 2.5769 6.2847 3.01436C5.82074 3.45183 5.54149 4.05005 5.50408 4.68663L5.49991 4.83329V7.33329C5.49929 7.98405 5.75243 8.6094 6.20556 9.07647C6.65868 9.54355 7.27608 9.81553 7.92655 9.83463C8.57702 9.85372 9.20931 9.61843 9.68906 9.17874C10.1688 8.73906 10.4582 8.12963 10.4957 7.47996L10.4999 7.33329V4.83329C10.4999 4.17025 10.2365 3.53437 9.76768 3.06553C9.29884 2.59669 8.66295 2.33329 7.99991 2.33329Z" fill="black"/>
</svg>
