<?xml version="1.0" encoding="iso-8859-1"?>
<!-- Generator: Adobe Illustrator 19.0.0, SVG Export Plug-In . SVG Version: 6.00 Build 0)  -->
<svg version="1.1" id="Capa_1" xmlns="http://www.w3.org/2000/svg" xmlns:xlink="http://www.w3.org/1999/xlink" x="0px" y="0px"
	 viewBox="0 0 512.001 512.001" style="enable-background:new 0 0 512.001 512.001;" xml:space="preserve">
<g>
	<g>
		<path d="M509.453,247.638c-1.142-1.7-28.473-42.108-72.877-83.005c-26.29-24.212-53.146-43.555-79.821-57.49
			c-34.053-17.79-67.951-26.81-100.754-26.81c-32.803,0-66.701,9.02-100.754,26.81c-26.676,13.936-53.531,33.278-79.821,57.49
			C31.021,205.53,3.691,245.938,2.548,247.638c-3.398,5.058-3.398,11.667,0,16.725c1.142,1.7,28.473,42.108,72.877,83.005
			c26.29,24.212,53.146,43.555,79.821,57.49c34.053,17.79,67.951,26.81,100.754,26.81c32.803,0,66.701-9.02,100.754-26.81
			c26.676-13.936,53.531-33.278,79.821-57.49c44.404-40.897,71.735-81.305,72.877-83.005
			C512.85,259.305,512.85,252.696,509.453,247.638z M415.781,325.735c-37.719,34.64-96.058,75.933-159.779,75.933
			s-122.06-41.293-159.779-75.933C65.86,297.851,43.555,269.614,33.454,256c10.103-13.615,32.406-41.851,62.768-69.734
			c37.719-34.64,96.058-75.933,159.779-75.933s122.061,41.293,159.779,75.933c30.361,27.884,52.667,56.121,62.768,69.734
			C468.445,269.615,446.141,297.851,415.781,325.735z"/>
	</g>
</g>
<g>
	<g>
		<path d="M256,176.734c-43.707,0-79.266,35.559-79.266,79.267c0,43.708,35.559,79.267,79.266,79.267
			c43.708,0,79.268-35.559,79.268-79.267S299.708,176.734,256,176.734z M256,305.267c-27.165,0-49.266-22.101-49.266-49.267
			c0-27.166,22.101-49.267,49.266-49.267c27.166,0,49.268,22.101,49.268,49.267C305.268,283.166,283.167,305.267,256,305.267z"/>
	</g>
</g>
<g>
</g>
<g>
</g>
<g>
</g>
<g>
</g>
<g>
</g>
<g>
</g>
<g>
</g>
<g>
</g>
<g>
</g>
<g>
</g>
<g>
</g>
<g>
</g>
<g>
</g>
<g>
</g>
<g>
</g>
</svg>
