<?xml version="1.0" encoding="iso-8859-1"?>
<!-- Generator: Adobe Illustrator 19.0.0, SVG Export Plug-In . SVG Version: 6.00 Build 0)  -->
<svg version="1.1" id="Capa_1" xmlns="http://www.w3.org/2000/svg" xmlns:xlink="http://www.w3.org/1999/xlink" x="0px" y="0px"
	 viewBox="0 0 512 512" style="enable-background:new 0 0 512 512;" xml:space="preserve">
<g>
	<g>
		<path d="M493.416,211.238l-82.183-82.183c-11.94-11.957-27.823-18.542-44.722-18.542c-16.88,0-32.75,6.574-44.686,18.512
			c-11.937,11.938-18.51,27.809-18.508,44.681c-0.003,6.574,0.992,12.996,2.914,19.093L205.78,192.8
			c1.925-6.098,2.923-12.523,2.923-19.103c0-34.848-28.351-63.2-63.192-63.2c-0.012,0-0.022,0-0.033,0
			c-16.866,0-32.726,6.574-44.663,18.512l-82.216,82.215c-8.841,8.805-14.829,19.89-17.315,32.051
			c-0.855,4.18-1.288,8.467-1.284,12.727c-0.004,16.932,6.605,32.837,18.584,44.761l82.182,82.181
			c11.936,11.958,27.819,18.544,44.723,18.544c16.88,0,32.75-6.574,44.687-18.512c11.937-11.938,18.51-27.809,18.508-44.686
			c0.002-6.571-0.995-12.993-2.917-19.088l100.451-0.001c-1.925,6.098-2.922,12.524-2.921,19.103c0,34.848,28.351,63.2,63.192,63.2
			c0.012,0,0.022,0,0.033,0c16.866,0,32.726-6.574,44.663-18.512l82.216-82.215c8.84-8.803,14.829-19.889,17.317-32.064
			c0.85-4.172,1.282-8.45,1.282-12.716C512,239.074,505.4,223.181,493.416,211.238z M481.325,262.71
			c-1.301,6.368-4.445,12.18-9.114,16.829l-82.239,82.238c-6.27,6.272-14.597,9.725-23.457,9.725c-0.005,0-0.013,0-0.018,0
			c-18.306,0-33.2-14.893-33.2-33.203c-0.002-8.875,3.456-17.214,9.737-23.484c5.209-5.198,5.875-13.408,1.574-19.38
			c-2.902-4.029-7.485-6.236-12.182-6.236c-0.073,0-0.147,0.001-0.219,0.001h-152.64c-6.066,0-11.535,3.654-13.857,9.258
			s-1.041,12.055,3.247,16.346c6.274,6.277,9.728,14.615,9.726,23.483c0.001,8.868-3.452,17.204-9.722,23.475
			c-6.271,6.271-14.607,9.724-23.473,9.724c-8.881,0-17.223-3.458-23.5-9.747l-82.216-82.215
			c-6.303-6.275-9.774-14.627-9.772-23.534c-0.002-2.248,0.225-4.501,0.676-6.701c1.301-6.368,4.445-12.181,9.114-16.83
			l82.24-82.237c6.27-6.272,14.597-9.725,23.457-9.725c0.005,0,0.013,0,0.018,0c18.306,0,33.2,14.893,33.2,33.2
			c0,8.879-3.458,17.219-9.738,23.485c-4.296,4.289-5.584,10.743-3.264,16.352c2.319,5.609,7.793,9.267,13.862,9.267
			c0.081,0,0.163-0.001,0.245-0.002h152.625c6.066,0,11.535-3.654,13.857-9.258c2.322-5.604,1.041-12.055-3.247-16.346
			c-6.276-6.279-9.73-14.616-9.725-23.483c-0.001-8.868,3.451-17.204,9.722-23.475c6.27-6.271,14.606-9.724,23.472-9.724
			c8.878,0,17.222,3.459,23.501,9.747l82.19,82.19c0.007,0.007,0.015,0.016,0.024,0.024c6.301,6.274,9.772,14.626,9.772,23.521
			C482.001,258.252,481.773,260.514,481.325,262.71z"/>
	</g>
</g>
<g>
</g>
<g>
</g>
<g>
</g>
<g>
</g>
<g>
</g>
<g>
</g>
<g>
</g>
<g>
</g>
<g>
</g>
<g>
</g>
<g>
</g>
<g>
</g>
<g>
</g>
<g>
</g>
<g>
</g>
</svg>
