<?xml version="1.0" encoding="iso-8859-1"?>
<!-- Generator: Adobe Illustrator 19.0.0, SVG Export Plug-In . SVG Version: 6.00 Build 0)  -->
<svg version="1.1" id="Capa_1" xmlns="http://www.w3.org/2000/svg" xmlns:xlink="http://www.w3.org/1999/xlink" x="0px" y="0px"
	 viewBox="0 0 512.001 512.001" style="enable-background:new 0 0 512.001 512.001;" xml:space="preserve">
<g>
	<g>
		<path d="M338.291,303.317c-0.008,0-0.014,0-0.021,0c-6.566,0-12.98,0.996-19.07,2.916V205.782
			c6.099,1.925,12.524,2.922,19.103,2.922c0.002,0,0.002,0,0.003,0c16.879,0,32.749-6.574,44.687-18.511
			c11.938-11.938,18.512-27.809,18.512-44.683c0.008-16.876-6.567-32.749-18.512-44.695l-82.216-82.217
			c-8.805-8.84-19.89-14.829-32.063-17.317C264.546,0.431,260.276,0,256.036,0c-0.017,0-0.027,0-0.047,0
			c-16.927,0-32.83,6.609-44.748,18.583l-82.184,82.182c-11.956,11.939-18.541,27.822-18.541,44.723
			c0,16.881,6.574,32.751,18.512,44.687c11.936,11.936,27.804,18.508,44.677,18.508c0.009-0.002,0.017,0,0.026,0
			c6.566,0,12.98-0.996,19.07-2.916v100.451c-6.099-1.925-12.524-2.922-19.103-2.922c-0.002,0-0.002,0-0.003,0
			c-16.879,0-32.749,6.574-44.687,18.511c-11.938,11.938-18.512,27.809-18.512,44.683c-0.008,16.876,6.567,32.749,18.512,44.695
			l82.216,82.217c8.804,8.84,19.889,14.828,32.063,17.317c4.168,0.85,8.437,1.281,12.677,1.281c0.016,0,0.026-0.001,0.046,0.001
			c16.928-0.001,32.83-6.609,44.75-18.584l82.184-82.182c11.956-11.939,18.541-27.822,18.541-44.723
			c0-16.881-6.574-32.751-18.512-44.687C371.038,309.889,355.169,303.317,338.291,303.317z M361.739,390.014l-82.216,82.215
			c-6.273,6.301-14.624,9.772-23.524,9.772c-0.008-0.001-0.015,0-0.024,0c-2.242,0-4.494-0.228-6.685-0.675
			c-6.369-1.302-12.182-4.446-16.832-9.115l-82.236-82.238c-6.276-6.276-9.73-14.611-9.726-23.476
			c0-8.869,3.455-17.206,9.726-23.477s14.608-9.724,23.476-9.724c8.877-0.001,17.218,3.458,23.487,9.737
			c4.288,4.295,10.743,5.581,16.351,3.263c5.61-2.32,9.267-7.794,9.267-13.863V179.566c0-6.066-3.654-11.535-9.258-13.857
			s-12.056-1.04-16.347,3.248c-6.275,6.273-14.608,9.726-23.472,9.726c-0.004,0-0.007,0-0.011,0
			c-8.868,0.001-17.204-3.451-23.475-9.722c-6.271-6.27-9.724-14.606-9.724-23.473c0-8.88,3.458-17.223,9.746-23.501l82.216-82.215
			C238.751,33.471,247.102,30,256.002,30c0.006,0,0.015,0,0.024,0c2.242,0,4.494,0.228,6.685,0.675
			c6.369,1.302,12.182,4.446,16.832,9.115l82.234,82.237c6.276,6.276,9.73,14.611,9.726,23.476c0,8.869-3.455,17.206-9.726,23.477
			s-14.608,9.724-23.476,9.724c-8.877,0.001-17.217-3.458-23.485-9.738c-4.288-4.295-10.743-5.581-16.351-3.263
			c-5.61,2.32-9.267,7.794-9.267,13.863v152.869c0,6.066,3.654,11.535,9.258,13.857c5.603,2.323,12.057,1.039,16.347-3.248
			c6.275-6.273,14.608-9.726,23.466-9.726c0.005-0.001,0.011-0.001,0.017,0c8.868-0.001,17.204,3.451,23.475,9.722
			c6.271,6.27,9.724,14.606,9.724,23.473C371.484,375.393,368.026,383.736,361.739,390.014z"/>
	</g>
</g>
<g>
</g>
<g>
</g>
<g>
</g>
<g>
</g>
<g>
</g>
<g>
</g>
<g>
</g>
<g>
</g>
<g>
</g>
<g>
</g>
<g>
</g>
<g>
</g>
<g>
</g>
<g>
</g>
<g>
</g>
</svg>
