<?xml version="1.0" encoding="iso-8859-1"?>
<!-- Generator: Adobe Illustrator 19.0.0, SVG Export Plug-In . SVG Version: 6.00 Build 0)  -->
<svg version="1.1" id="Capa_1" xmlns="http://www.w3.org/2000/svg" xmlns:xlink="http://www.w3.org/1999/xlink" x="0px" y="0px"
	 viewBox="0 0 512 512" style="enable-background:new 0 0 512 512;" xml:space="preserve">
<g>
	<g>
		<path d="M437.016,74.982C388.663,26.629,324.375,0,255.996,0C187.615,0,123.329,26.629,74.978,74.982
			C26.628,123.336,0,187.626,0,256.01c0,68.374,26.628,132.658,74.978,181.009C123.33,485.371,187.617,512,255.996,512
			c68.372,0,132.655-26.629,181.01-74.98C485.36,388.668,511.994,324.385,512,256.011C512,187.627,485.37,123.337,437.016,74.982z
			 M255.996,482C131.381,482,30,380.621,30,256.01c0-56.923,21.16-108.99,56.016-148.77l318.75,318.735
			C364.985,460.836,312.917,482,255.996,482z M425.978,404.762L107.227,86.025C147.006,51.164,199.073,30,255.996,30
			C380.615,30,482,131.388,482,256.01C481.995,312.925,460.833,364.987,425.978,404.762z"/>
	</g>
</g>
<g>
</g>
<g>
</g>
<g>
</g>
<g>
</g>
<g>
</g>
<g>
</g>
<g>
</g>
<g>
</g>
<g>
</g>
<g>
</g>
<g>
</g>
<g>
</g>
<g>
</g>
<g>
</g>
<g>
</g>
</svg>
