<?xml version="1.0" encoding="iso-8859-1"?>
<!-- Generator: Adobe Illustrator 19.0.0, SVG Export Plug-In . SVG Version: 6.00 Build 0)  -->
<svg version="1.1" id="Capa_1" xmlns="http://www.w3.org/2000/svg" xmlns:xlink="http://www.w3.org/1999/xlink" x="0px" y="0px"
	 viewBox="0 0 511.999 511.999" style="enable-background:new 0 0 511.999 511.999;" xml:space="preserve">
<g>
	<g>
		<path d="M376.5,120.5h-241C60.785,120.5,0,181.284,0,256s60.785,135.5,135.499,135.5h241c74.715,0,135.5-60.785,135.5-135.5
			S451.214,120.5,376.5,120.5z M135.499,361.5C77.327,361.5,30,314.172,30,256c0-58.173,47.327-105.5,105.499-105.5
			c58.173,0,105.5,47.327,105.5,105.5C240.999,314.172,193.672,361.5,135.499,361.5z M376.5,361.5H220.424
			C251.244,336.641,271,298.588,271,256s-19.755-80.642-50.576-105.5H376.5c58.173,0,105.5,47.327,105.5,105.5
			C482,314.172,434.672,361.5,376.5,361.5z"/>
	</g>
</g>
<g>
</g>
<g>
</g>
<g>
</g>
<g>
</g>
<g>
</g>
<g>
</g>
<g>
</g>
<g>
</g>
<g>
</g>
<g>
</g>
<g>
</g>
<g>
</g>
<g>
</g>
<g>
</g>
<g>
</g>
</svg>
