<?xml version="1.0" encoding="iso-8859-1"?>
<!-- Generator: Adobe Illustrator 19.0.0, SVG Export Plug-In . SVG Version: 6.00 Build 0)  -->
<svg version="1.1" id="Capa_1" xmlns="http://www.w3.org/2000/svg" xmlns:xlink="http://www.w3.org/1999/xlink" x="0px" y="0px"
	 viewBox="0 0 512 512" style="enable-background:new 0 0 512 512;" xml:space="preserve">
<g>
	<g>
		<path d="M512,152.714c0-3.979-1.581-7.794-4.394-10.607L369.891,4.394c-5.857-5.858-15.355-5.858-21.213,0L198.545,154.527
			c-14.877-3.3-30.223-4.997-45.831-4.997c-56.027,0-108.702,21.817-148.321,61.436C1.581,213.777,0,217.594,0,221.571
			c0,3.978,1.581,7.794,4.394,10.606l127.108,127.108L4.394,486.393c-5.858,5.857-5.858,15.355,0,21.213
			C7.322,510.535,11.161,512,15,512s7.678-1.465,10.606-4.394l127.108-127.108l127.109,127.108
			c2.813,2.814,6.628,4.394,10.607,4.394s7.794-1.58,10.607-4.394c39.617-39.618,61.435-92.293,61.434-148.321
			c0-15.608-1.698-30.954-4.998-45.832l150.133-150.133C510.419,160.508,512,156.693,512,152.714z M289.997,475.353L36.647,222.006
			c32.411-27.494,73.088-42.476,116.067-42.476c15.676,0,31.042,2.006,45.817,5.872c0.585,0.188,1.175,0.352,1.774,0.467
			c29.788,8.124,57.092,23.888,79.515,46.309c22.422,22.422,38.186,49.726,46.311,79.512c0.115,0.602,0.279,1.194,0.469,1.781
			c3.866,14.773,5.872,30.14,5.872,45.815C332.472,402.266,317.491,442.943,289.997,475.353z M347.443,281.057
			c-10.413-25.932-26.055-49.738-46.41-70.093c-20.354-20.354-44.161-35.996-70.092-46.409L359.284,36.214l116.502,116.501
			L347.443,281.057z"/>
	</g>
</g>
<g>
</g>
<g>
</g>
<g>
</g>
<g>
</g>
<g>
</g>
<g>
</g>
<g>
</g>
<g>
</g>
<g>
</g>
<g>
</g>
<g>
</g>
<g>
</g>
<g>
</g>
<g>
</g>
<g>
</g>
</svg>
