<?xml version="1.0" encoding="iso-8859-1"?>
<!-- Generator: Adobe Illustrator 19.0.0, SVG Export Plug-In . SVG Version: 6.00 Build 0)  -->
<svg version="1.1" id="Capa_1" xmlns="http://www.w3.org/2000/svg" xmlns:xlink="http://www.w3.org/1999/xlink" x="0px" y="0px"
	 viewBox="0 0 512 512" style="enable-background:new 0 0 512 512;" xml:space="preserve">
<g>
	<g>
		<path d="M497,0h-96.4h-96.4h-96.398H15C6.716,0,0,6.716,0,15v96.4V497c0,8.284,6.716,15,15,15h482c8.284,0,15-6.716,15-15V111.4
			V15C512,6.716,505.284,0,497,0z M319.2,30h66.4v66.4h-66.4V30z M222.801,30h66.398v66.4h-66.398V30z M30,30h162.801v66.4H30V30z
			 M482,482H30V126.4h177.801h96.398h96.4H482V482z M482,96.4h-66.4V30H482V96.4z"/>
	</g>
</g>
<g>
</g>
<g>
</g>
<g>
</g>
<g>
</g>
<g>
</g>
<g>
</g>
<g>
</g>
<g>
</g>
<g>
</g>
<g>
</g>
<g>
</g>
<g>
</g>
<g>
</g>
<g>
</g>
<g>
</g>
</svg>
