<?xml version="1.0" encoding="iso-8859-1"?>
<!-- Generator: Adobe Illustrator 19.0.0, SVG Export Plug-In . SVG Version: 6.00 Build 0)  -->
<svg version="1.1" id="Capa_1" xmlns="http://www.w3.org/2000/svg" xmlns:xlink="http://www.w3.org/1999/xlink" x="0px" y="0px"
	 viewBox="0 0 512 512" style="enable-background:new 0 0 512 512;" xml:space="preserve">
<g>
	<g>
		<path d="M304.2,303.132c8.284,0,15-6.716,15-15s-6.716-15-15-15H271V159.6c0-18.306,14.894-33.2,33.2-33.2c8.284,0,15-6.716,15-15
			s-6.716-15-15-15c-19.301,0-36.599,8.706-48.2,22.387C244.398,105.106,227.101,96.4,207.8,96.4c-8.284,0-15,6.716-15,15
			s6.716,15,15,15c18.307,0,33.2,14.894,33.2,33.199v113.533h-33.2c-8.284,0-15,6.716-15,15s6.716,15,15,15H241V352.4
			c0,18.306-14.894,33.199-33.2,33.199c-8.284,0-15,6.716-15,15s6.716,15,15,15c19.301,0,36.599-8.706,48.2-22.387
			c11.602,13.681,28.899,22.387,48.2,22.387c8.284,0,15-6.716,15-15s-6.716-15-15-15c-18.307,0-33.2-14.894-33.2-33.199v-49.268
			H304.2z"/>
	</g>
</g>
<g>
	<g>
		<path d="M416.666,0H95.334C42.767,0,0,42.767,0,95.334v321.333C0,469.233,42.767,512,95.334,512h321.332
			C469.233,512,512,469.233,512,416.667V95.334C512,42.767,469.233,0,416.666,0z M482,416.667C482,452.691,452.691,482,416.666,482
			H95.334C59.309,482,30,452.691,30,416.667V95.334C30,59.309,59.309,30,95.334,30h321.332C452.691,30,482,59.309,482,95.334
			V416.667z"/>
	</g>
</g>
<g>
</g>
<g>
</g>
<g>
</g>
<g>
</g>
<g>
</g>
<g>
</g>
<g>
</g>
<g>
</g>
<g>
</g>
<g>
</g>
<g>
</g>
<g>
</g>
<g>
</g>
<g>
</g>
<g>
</g>
</svg>
