<?xml version="1.0" encoding="iso-8859-1"?>
<!-- Generator: Adobe Illustrator 19.0.0, SVG Export Plug-In . SVG Version: 6.00 Build 0)  -->
<svg version="1.1" id="Capa_1" xmlns="http://www.w3.org/2000/svg" xmlns:xlink="http://www.w3.org/1999/xlink" x="0px" y="0px"
	 viewBox="0 0 512 512" style="enable-background:new 0 0 512 512;" xml:space="preserve">
<g>
	<g>
		<path d="M511.998,111.399V15.001c0-8.284-6.716-15-15-15H304.201c-8.284,0-15,6.716-15,15v81.398H15.002c-8.284,0-15,6.716-15,15
			L0,496.999c0,3.978,1.58,7.793,4.394,10.606c2.813,2.813,6.628,4.394,10.606,4.394h482c3.978,0,7.794-1.581,10.606-4.394
			c2.813-2.813,4.394-6.628,4.394-10.606L511.998,111.399z M319.201,30.001h162.797v66.398H319.201V30.001z M30,481.999l0.002-355.6
			h274.199h177.797l0.002,355.6H30z"/>
	</g>
</g>
<g>
</g>
<g>
</g>
<g>
</g>
<g>
</g>
<g>
</g>
<g>
</g>
<g>
</g>
<g>
</g>
<g>
</g>
<g>
</g>
<g>
</g>
<g>
</g>
<g>
</g>
<g>
</g>
<g>
</g>
</svg>
