<?xml version="1.0" encoding="iso-8859-1"?>
<!-- Generator: Adobe Illustrator 19.0.0, SVG Export Plug-In . SVG Version: 6.00 Build 0)  -->
<svg version="1.1" id="Capa_1" xmlns="http://www.w3.org/2000/svg" xmlns:xlink="http://www.w3.org/1999/xlink" x="0px" y="0px"
	 viewBox="0 0 512 512" style="enable-background:new 0 0 512 512;" xml:space="preserve">
<g>
	<g>
		<path d="M437.02,74.979C388.667,26.628,324.38,0,256,0C187.619,0,123.331,26.628,74.979,74.98C26.628,123.331,0,187.619,0,256
			v48.2V497c0,8.284,6.716,15,15,15h139.399c8.284,0,15-6.716,15-15V304.2c0-8.284-6.716-15-15-15H90.5v-28.7
			C90.5,169.243,164.743,95,256,95s165.5,74.243,165.5,165.5v28.7h-63.899c-8.284,0-15,6.716-15,15V497c0,8.284,6.716,15,15,15H497
			c8.284,0,15-6.716,15-15V304.2V256C512,187.619,485.371,123.332,437.02,74.979z M139.399,319.2V482H30V319.2H139.399z M482,482
			H372.601V319.2H482V482z M482,289.2h-30.5v-28.7C451.5,152.701,363.799,65,256,65S60.5,152.701,60.5,260.5v28.7H30V256
			C30,131.383,131.383,30,256,30s226,101.383,226,226V289.2z"/>
	</g>
</g>
<g>
</g>
<g>
</g>
<g>
</g>
<g>
</g>
<g>
</g>
<g>
</g>
<g>
</g>
<g>
</g>
<g>
</g>
<g>
</g>
<g>
</g>
<g>
</g>
<g>
</g>
<g>
</g>
<g>
</g>
</svg>
