<?xml version="1.0" encoding="iso-8859-1"?>
<!-- Generator: Adobe Illustrator 19.0.0, SVG Export Plug-In . SVG Version: 6.00 Build 0)  -->
<svg version="1.1" id="Capa_1" xmlns="http://www.w3.org/2000/svg" xmlns:xlink="http://www.w3.org/1999/xlink" x="0px" y="0px"
	 viewBox="0 0 512 512" style="enable-background:new 0 0 512 512;" xml:space="preserve">
<g>
	<g>
		<path d="M459.406,197.194L266.608,4.394C263.794,1.58,259.979,0,256.001,0H63.2c-8.284,0-15,6.716-15,15v482
			c0,8.284,6.716,15,15,15h385.6c8.284,0,15-6.716,15-15V207.801C463.8,203.822,462.219,200.007,459.406,197.194z M271.001,51.214
			l141.586,141.587H271.001V51.214z M433.8,482H78.2V30H241v177.801c0,8.284,6.716,15,15,15h177.8V482z"/>
	</g>
</g>
<g>
</g>
<g>
</g>
<g>
</g>
<g>
</g>
<g>
</g>
<g>
</g>
<g>
</g>
<g>
</g>
<g>
</g>
<g>
</g>
<g>
</g>
<g>
</g>
<g>
</g>
<g>
</g>
<g>
</g>
</svg>
