<?xml version="1.0" encoding="iso-8859-1"?>
<!-- Generator: Adobe Illustrator 19.0.0, SVG Export Plug-In . SVG Version: 6.00 Build 0)  -->
<svg version="1.1" id="Capa_1" xmlns="http://www.w3.org/2000/svg" xmlns:xlink="http://www.w3.org/1999/xlink" x="0px" y="0px"
	 viewBox="0 0 512 512" style="enable-background:new 0 0 512 512;" xml:space="preserve">
<g>
	<g>
		<path d="M358.414,21.311c-7.591-3.318-16.434,0.149-19.751,7.739c-3.317,7.59,0.148,16.434,7.739,19.751
			C428.771,84.795,481.996,166.123,482,255.996c0,89.878-53.228,171.209-135.605,207.202c-7.591,3.316-11.056,12.159-7.739,19.751
			c2.462,5.637,7.972,8.998,13.753,8.998c2.005,0,4.043-0.404,5.998-1.259C451.71,449.921,512,357.799,512,255.995
			C511.996,154.198,451.71,62.079,358.414,21.311z"/>
	</g>
</g>
<g>
	<g>
		<path d="M362.413,137.053c-6.172-5.525-15.655-5.001-21.181,1.171c-5.525,6.173-5.001,15.655,1.171,21.181
			c27.452,24.575,43.196,59.782,43.196,96.594c0,36.811-15.745,72.019-43.196,96.594c-6.172,5.525-6.697,15.008-1.171,21.181
			c2.963,3.309,7.063,4.995,11.181,4.995c3.562,0,7.137-1.261,10-3.824c33.801-30.258,53.186-73.613,53.186-118.947
			C415.599,210.665,396.213,167.31,362.413,137.053z"/>
	</g>
</g>
<g>
	<g>
		<path d="M262.78,57.852c-5.042-2.555-11.092-2.058-15.65,1.284l-116.54,85.461H15c-8.284,0-15,6.716-15,15v192.801
			c0,8.284,6.716,15,15,15h115.589l116.54,85.463c2.623,1.924,5.738,2.904,8.872,2.904c2.313,0,4.638-0.535,6.779-1.62
			c5.042-2.555,8.22-7.728,8.22-13.38V71.23C271,65.578,267.822,60.405,262.78,57.852z M240.999,411.162l-96.629-70.861
			c-2.573-1.887-5.68-2.904-8.871-2.904H30V174.597h105.499c3.19,0,6.298-1.018,8.87-2.903l96.63-70.861V411.162z"/>
	</g>
</g>
<g>
</g>
<g>
</g>
<g>
</g>
<g>
</g>
<g>
</g>
<g>
</g>
<g>
</g>
<g>
</g>
<g>
</g>
<g>
</g>
<g>
</g>
<g>
</g>
<g>
</g>
<g>
</g>
<g>
</g>
</svg>
