<?xml version="1.0" encoding="iso-8859-1"?>
<!-- Generator: Adobe Illustrator 19.0.0, SVG Export Plug-In . SVG Version: 6.00 Build 0)  -->
<svg version="1.1" id="Capa_1" xmlns="http://www.w3.org/2000/svg" xmlns:xlink="http://www.w3.org/1999/xlink" x="0px" y="0px"
	 viewBox="0 0 512 512" style="enable-background:new 0 0 512 512;" xml:space="preserve">
<g>
	<g>
		<path d="M416.667,0H95.333C42.766,0,0,42.767,0,95.334v321.333C0,469.233,42.766,512,95.333,512h321.334
			C469.234,512,512,469.233,512,416.667V95.334C512,42.767,469.234,0,416.667,0z M112.467,482H95.333
			C59.308,482,30,452.691,30,416.667V95.334C30,59.309,59.308,30,95.333,30h17.134v68.214c-27.629,6.753-48.2,31.706-48.2,61.386
			c0,29.68,20.571,54.634,48.2,61.387V482z M94.267,159.599c0-18.305,14.893-33.199,33.2-33.199c18.307,0,33.2,14.894,33.2,33.199
			c0,18.307-14.894,33.2-33.2,33.2C109.161,192.799,94.267,177.905,94.267,159.599z M241,482h-98.533V220.986h0
			c27.629-6.753,48.2-31.707,48.2-61.387s-20.571-54.633-48.2-61.386V30H241v277.08c-27.629,6.753-48.2,31.707-48.2,61.387
			s20.571,54.634,48.2,61.387V482z M222.8,368.467c0-18.306,14.894-33.2,33.2-33.2c18.306,0,33.2,14.894,33.2,33.2
			c0,18.306-14.893,33.2-33.2,33.2S222.8,386.773,222.8,368.467z M369.533,482H271v-52.147c27.629-6.753,48.2-31.707,48.2-61.387
			s-20.571-54.634-48.2-61.387V30h98.533v100.347c-27.629,6.753-48.2,31.706-48.2,61.387s20.571,54.634,48.2,61.387V482z
			 M351.333,191.734c0-18.306,14.894-33.2,33.2-33.2c18.307,0,33.2,14.894,33.2,33.2c0,18.306-14.893,33.2-33.2,33.2
			S351.333,210.04,351.333,191.734z M482,416.667C482,452.691,452.692,482,416.667,482h-17.134V253.12
			c27.629-6.753,48.2-31.706,48.2-61.387c0-29.681-20.571-54.634-48.2-61.387V30h17.134C452.692,30,482,59.309,482,95.334V416.667z"
			/>
	</g>
</g>
<g>
</g>
<g>
</g>
<g>
</g>
<g>
</g>
<g>
</g>
<g>
</g>
<g>
</g>
<g>
</g>
<g>
</g>
<g>
</g>
<g>
</g>
<g>
</g>
<g>
</g>
<g>
</g>
<g>
</g>
</svg>
