<?xml version="1.0" encoding="iso-8859-1"?>
<!-- Generator: Adobe Illustrator 19.0.0, SVG Export Plug-In . SVG Version: 6.00 Build 0)  -->
<svg version="1.1" id="Capa_1" xmlns="http://www.w3.org/2000/svg" xmlns:xlink="http://www.w3.org/1999/xlink" x="0px" y="0px"
	 viewBox="0 0 512 512" style="enable-background:new 0 0 512 512;" xml:space="preserve">
<g>
	<g>
		<path d="M416.666,0H95.333C42.767,0,0,42.767,0,95.334v321.333C0,469.233,42.767,512,95.333,512h321.333
			C469.233,512,512,469.233,512,416.667V95.334C512,42.767,469.233,0,416.666,0z M482,416.667C482,452.691,452.691,482,416.666,482
			H95.333C59.309,482,30,452.691,30,416.667V271h196.116c7.217,45.466,46.686,80.334,94.15,80.334s86.933-34.868,94.149-80.334H482
			V416.667z M254.933,256c0-36.024,29.309-65.333,65.334-65.333c36.024,0,65.333,29.309,65.333,65.333
			c0,36.025-29.309,65.334-65.333,65.334C284.242,321.334,254.933,292.025,254.933,256z M482,241h-67.584
			c-7.217-45.465-46.685-80.333-94.149-80.333s-86.934,34.868-94.15,80.333H30V95.334C30,59.309,59.309,30,95.333,30h321.333
			C452.691,30,482,59.309,482,95.334V241z"/>
	</g>
</g>
<g>
</g>
<g>
</g>
<g>
</g>
<g>
</g>
<g>
</g>
<g>
</g>
<g>
</g>
<g>
</g>
<g>
</g>
<g>
</g>
<g>
</g>
<g>
</g>
<g>
</g>
<g>
</g>
<g>
</g>
</svg>
