<?xml version="1.0" encoding="iso-8859-1"?>
<!-- Generator: Adobe Illustrator 19.0.0, SVG Export Plug-In . SVG Version: 6.00 Build 0)  -->
<svg version="1.1" id="Capa_1" xmlns="http://www.w3.org/2000/svg" xmlns:xlink="http://www.w3.org/1999/xlink" x="0px" y="0px"
	 viewBox="0 0 512 512" style="enable-background:new 0 0 512 512;" xml:space="preserve">
<g>
	<g>
		<path d="M493.489,404.11l-148.11-148.108L493.493,107.89c24.639-24.646,24.637-64.74-0.003-89.375
			C481.554,6.576,465.684,0.001,448.802,0.001h-0.003c-16.88,0-32.75,6.573-44.686,18.509l-134.19,134.191
			c0.713-5.662,1.079-11.403,1.079-17.202c0-36.194-14.096-70.221-39.69-95.81C205.72,14.095,171.693,0,135.501,0
			c-36.193,0-70.22,14.095-95.812,39.688C14.096,65.279,0.001,99.306,0.001,135.499C0,171.693,14.096,205.721,39.689,231.311
			C49.751,241.374,61.121,249.649,73.41,256c-12.289,6.35-23.659,14.626-33.721,24.689C14.096,306.28,0.001,340.307,0.001,376.5
			C0,412.693,14.096,446.721,39.689,472.311C65.281,497.905,99.308,512,135.501,512c36.192,0,70.219-14.095,95.81-39.688
			c25.594-25.592,39.69-59.619,39.69-95.813c0-5.799-0.366-11.541-1.079-17.203l134.19,134.19
			C416.049,505.425,431.92,512,448.801,512c16.882,0,32.753-6.575,44.686-18.513c11.936-11.936,18.511-27.806,18.512-44.688
			C511.999,431.918,505.426,416.047,493.489,404.11z M425.325,39.723c6.271-6.27,14.607-9.723,23.475-9.722
			c8.868,0,17.205,3.454,23.478,9.727c12.944,12.941,12.943,34.004,0.001,46.95L324.166,234.789l-46.953-46.953L425.325,39.723z
			 M60.902,210.098C40.975,190.173,30,163.68,30.001,135.499c0-28.18,10.974-54.672,30.902-74.598
			C80.829,40.974,107.321,30,135.501,30c28.179,0,54.671,10.974,74.599,30.902c19.927,19.925,30.901,46.417,30.901,74.597
			c0,13.169-2.398,25.968-6.984,37.901c-0.173,0.386-0.327,0.776-0.465,1.172c-5.237,13.148-13.144,25.218-23.453,35.526
			c-10.326,10.326-22.419,18.241-35.593,23.478c-0.361,0.129-0.717,0.27-1.068,0.426c-11.943,4.595-24.756,6.997-37.936,6.997
			C107.321,240.999,80.829,230.025,60.902,210.098z M210.099,451.099C190.172,471.025,163.68,482,135.501,482
			c-28.18,0-54.672-10.975-74.599-30.902C40.975,431.173,30,404.68,30.001,376.5c0-28.18,10.974-54.672,30.902-74.598
			c19.926-19.929,46.418-30.903,74.598-30.903c28.179,0,54.671,10.975,74.599,30.904c19.927,19.925,30.901,46.417,30.901,74.597
			S230.026,431.173,210.099,451.099z M472.272,472.275C466.003,478.546,457.668,482,448.8,482c-8.867,0-17.204-3.454-23.476-9.726
			L204.956,251.906c9.484-5.683,18.335-12.573,26.355-20.594c8.021-8.021,14.913-16.871,20.595-26.356l220.37,220.367
			c6.27,6.271,9.723,14.607,9.723,23.476C481.998,457.667,478.545,466.004,472.272,472.275z"/>
	</g>
</g>
<g>
</g>
<g>
</g>
<g>
</g>
<g>
</g>
<g>
</g>
<g>
</g>
<g>
</g>
<g>
</g>
<g>
</g>
<g>
</g>
<g>
</g>
<g>
</g>
<g>
</g>
<g>
</g>
<g>
</g>
</svg>
