<?xml version="1.0" encoding="iso-8859-1"?>
<!-- Generator: Adobe Illustrator 19.0.0, SVG Export Plug-In . SVG Version: 6.00 Build 0)  -->
<svg version="1.1" id="Capa_1" xmlns="http://www.w3.org/2000/svg" xmlns:xlink="http://www.w3.org/1999/xlink" x="0px" y="0px"
	 viewBox="0 0 511.999 511.999" style="enable-background:new 0 0 511.999 511.999;" xml:space="preserve">
<g>
	<g>
		<path d="M496.999,96.4H15c-8.284,0-15,6.716-15,15v289.199c0,8.284,6.716,15,15,15h481.999c8.284,0,15-6.716,15-15V111.4
			C511.999,103.116,505.283,96.4,496.999,96.4z M481.999,385.599H30V126.4h451.999V385.599z"/>
	</g>
</g>
<g>
	<g>
		<path d="M111.4,192.8c-8.284,0-15,6.716-15,15v96.4c0,8.284,6.716,15,15,15s15-6.716,15-15v-96.4
			C126.4,199.516,119.684,192.8,111.4,192.8z"/>
	</g>
</g>
<g>
</g>
<g>
</g>
<g>
</g>
<g>
</g>
<g>
</g>
<g>
</g>
<g>
</g>
<g>
</g>
<g>
</g>
<g>
</g>
<g>
</g>
<g>
</g>
<g>
</g>
<g>
</g>
<g>
</g>
</svg>
