<?xml version="1.0" encoding="iso-8859-1"?>
<!-- Generator: Adobe Illustrator 19.0.0, SVG Export Plug-In . SVG Version: 6.00 Build 0)  -->
<svg version="1.1" id="Capa_1" xmlns="http://www.w3.org/2000/svg" xmlns:xlink="http://www.w3.org/1999/xlink" x="0px" y="0px"
	 viewBox="0 0 512 512" style="enable-background:new 0 0 512 512;" xml:space="preserve">
<g>
	<g>
		<path d="M497,0.002L269.781,0c-3.979,0-7.794,1.58-10.606,4.394L4.394,259.179C1.465,262.108,0,265.947,0,269.786
			s1.465,7.678,4.394,10.606l227.215,227.215c5.857,5.857,15.355,5.857,21.212-0.001l254.785-254.781
			c2.814-2.813,4.394-6.628,4.394-10.606V15.002C512,6.718,505.284,0.002,497,0.002z M482,236.005L242.215,475.787L36.213,269.785
			L275.994,30L482,30.002V236.005z"/>
	</g>
</g>
<g>
	<g>
		<path d="M394,118c-2.8-2.79-6.66-4.39-10.609-4.39c-3.95,0-7.811,1.6-10.61,4.39c-2.79,2.8-4.39,6.66-4.39,10.61
			c0,3.95,1.6,7.81,4.39,10.61c2.8,2.79,6.66,4.39,10.61,4.39c3.949,0,7.81-1.6,10.609-4.39c2.79-2.8,4.391-6.66,4.391-10.61
			C398.391,124.66,396.79,120.79,394,118z"/>
	</g>
</g>
<g>
</g>
<g>
</g>
<g>
</g>
<g>
</g>
<g>
</g>
<g>
</g>
<g>
</g>
<g>
</g>
<g>
</g>
<g>
</g>
<g>
</g>
<g>
</g>
<g>
</g>
<g>
</g>
<g>
</g>
</svg>
