<?xml version="1.0" encoding="iso-8859-1"?>
<!-- Generator: Adobe Illustrator 19.0.0, SVG Export Plug-In . SVG Version: 6.00 Build 0)  -->
<svg version="1.1" id="Capa_1" xmlns="http://www.w3.org/2000/svg" xmlns:xlink="http://www.w3.org/1999/xlink" x="0px" y="0px"
	 viewBox="0 0 512.002 512.002" style="enable-background:new 0 0 512.002 512.002;" xml:space="preserve">
<g>
	<g>
		<path d="M469.329,132.048l24.163-24.16C505.427,95.949,512,80.078,512,63.2c0-16.881-6.574-32.752-18.51-44.689
			C481.553,6.573,465.683-0.001,448.803,0c-16.898,0-32.782,6.587-44.716,18.539l-24.124,24.122
			c-2.951-5.674-6.789-10.924-11.443-15.576c-11.936-11.937-27.807-18.511-44.689-18.51c-16.881,0-32.753,6.574-44.683,18.505
			c-11.94,11.929-18.517,27.802-18.517,44.694v116.272c-0.025,12.479,3.579,24.552,10.423,34.911
			c2.348,3.555,5.071,6.888,8.088,9.902c11.934,11.936,27.8,18.509,44.679,18.509l116.338,0.001c0.003,0,0.037,0,0.04,0
			c16.88,0,32.752-6.575,44.692-18.514c11.937-11.936,18.51-27.806,18.509-44.687c-0.001-16.882-6.575-32.752-18.509-44.683
			C480.244,138.837,474.999,135.001,469.329,132.048z M463.678,211.644c-6.273,6.273-14.612,9.728-23.479,9.728v15l-0.031-15
			l-116.236-0.001c-0.011,0-0.1,0-0.111,0c-8.864,0-17.196-3.452-23.468-9.725c-1.595-1.594-3.031-3.351-4.267-5.222
			c-3.581-5.422-5.467-11.755-5.454-18.346V71.774c0-8.874,3.452-17.209,9.725-23.476c6.27-6.271,14.606-9.723,23.475-9.723
			c8.869,0,17.206,3.453,23.477,9.724c6.277,6.276,9.73,14.619,9.72,23.491c-0.004,3.981,1.576,7.801,4.389,10.617
			c2.813,2.816,6.633,4.398,10.614,4.398c3.978,0,7.793-1.58,10.606-4.393l42.67-42.668c6.274-6.284,14.618-9.745,23.495-9.745
			c8.866,0,17.203,3.453,23.473,9.724C478.546,45.994,482,54.331,482,63.2c0,8.867-3.454,17.205-9.723,23.477l-42.687,42.684
			c-4.29,4.29-5.574,10.74-3.253,16.345c2.321,5.605,7.789,9.261,13.854,9.263c8.876,0.003,17.216,3.457,23.485,9.73
			c6.27,6.27,9.724,14.605,9.724,23.473C473.4,197.039,469.947,205.375,463.678,211.644z"/>
	</g>
</g>
<g>
	<g>
		<path d="M251.366,323.956c0.026-12.478-3.579-24.552-10.417-34.902c-2.342-3.552-5.064-6.887-8.093-9.916
			c-11.937-11.933-27.805-18.505-44.68-18.505l-116.37-0.001c-16.889,0-32.762,6.575-44.695,18.512
			C15.174,291.079,8.6,306.949,8.599,323.83c0,16.883,6.574,32.753,18.508,44.684C31.754,373.163,37,377,42.67,379.952
			l-24.157,24.157C6.571,416.048-0.004,431.921,0,448.8c0,16.882,6.574,32.753,18.51,44.69
			c11.937,11.938,27.808,18.511,44.687,18.51c16.903,0,32.787-6.588,44.712-18.539l24.126-24.122
			c2.952,5.675,6.791,10.925,11.445,15.576c11.936,11.937,27.806,18.511,44.688,18.511c16.881,0,32.752-6.573,44.688-18.508
			c11.939-11.933,18.514-27.805,18.514-44.691L251.366,323.956z M211.645,463.701c-6.272,6.271-14.609,9.725-23.478,9.725
			c-8.867,0-17.204-3.453-23.477-9.728c-6.276-6.271-9.728-14.614-9.721-23.491c0.005-6.068-3.648-11.543-9.254-13.867
			c-5.607-2.325-12.061-1.044-16.352,3.248l-42.677,42.67C80.417,478.54,72.075,482,63.197,482h-0.001
			c-8.866,0.001-17.202-3.452-23.472-9.723c-6.27-6.27-9.724-14.608-9.724-23.48c-0.002-8.865,3.451-17.201,9.725-23.474
			l42.684-42.684c4.29-4.289,5.573-10.739,3.253-16.344c-2.32-5.604-7.788-9.261-13.854-9.263
			c-8.876-0.004-17.216-3.458-23.486-9.731c-6.27-6.268-9.723-14.604-9.723-23.471s3.454-17.203,9.726-23.476
			c6.269-6.271,14.607-9.724,23.508-9.724l116.235,0.001c0.011,0,0.096,0,0.107,0c8.864,0,17.199,3.452,23.469,9.72
			c1.597,1.598,3.03,3.353,4.266,5.227c3.583,5.423,5.469,11.755,5.455,18.345l0.004,116.303
			C221.369,449.097,217.917,457.434,211.645,463.701z"/>
	</g>
</g>
<g>
	<g>
		<path d="M493.461,404.088l-24.121-24.124c5.674-2.951,10.923-6.789,15.574-11.442c11.938-11.936,18.512-27.807,18.512-44.689
			c0-16.882-6.574-32.753-18.506-44.685c-11.928-11.939-27.801-18.515-44.694-18.515l-116.271-0.001c-0.01,0-0.117,0-0.126,0
			c-12.433,0-24.461,3.604-34.784,10.423c-3.555,2.348-6.888,5.07-9.902,8.088c-11.974,11.971-18.546,27.89-18.508,44.789
			l-0.002,116.227c-0.011,16.896,6.564,32.783,18.514,44.732c11.935,11.936,27.805,18.509,44.685,18.509
			c16.882,0,32.752-6.574,44.685-18.51c4.649-4.646,8.485-9.892,11.436-15.561l24.16,24.161
			c11.939,11.936,27.809,18.511,44.689,18.511c16.882,0,32.753-6.573,44.69-18.51c11.938-11.937,18.512-27.807,18.51-44.687
			C512.002,431.901,505.414,416.018,493.461,404.088z M472.279,472.276c-6.271,6.271-14.609,9.724-23.478,9.724
			c-8.867,0-17.205-3.454-23.476-9.725l-42.684-42.686c-2.87-2.87-6.706-4.394-10.61-4.394c-1.931,0-3.879,0.373-5.734,1.141
			c-5.604,2.32-9.26,7.787-9.263,13.854c-0.003,8.877-3.458,17.217-9.731,23.486c-6.269,6.271-14.605,9.724-23.473,9.724
			c-8.867,0-17.203-3.453-23.472-9.722c-6.278-6.278-9.732-14.624-9.727-23.51l0.002-116.271
			c-0.021-8.894,3.431-17.254,9.724-23.545c1.594-1.595,3.351-3.03,5.221-4.266c5.403-3.569,11.713-5.455,18.346-5.455
			l116.301,0.001c8.875,0,17.21,3.451,23.476,9.724c6.271,6.271,9.725,14.608,9.725,23.476c0,8.868-3.454,17.205-9.727,23.478
			c-6.265,6.267-14.595,9.72-23.455,9.72c-0.603,0-1.254,0.038-1.853,0.11c-5.697,0.691-10.502,4.571-12.375,9.996
			s-0.486,11.443,3.572,15.502l42.668,42.673c6.284,6.272,9.745,14.615,9.745,23.494
			C482.003,457.671,478.55,466.007,472.279,472.276z"/>
	</g>
</g>
<g>
	<g>
		<path d="M232.856,27.112C220.922,15.174,205.051,8.6,188.17,8.6c-16.881,0-32.751,6.574-44.682,18.508
			c-4.65,4.648-8.486,9.893-11.438,15.564l-24.157-24.157C95.957,6.575,80.087,0,63.201,0C46.319,0,30.448,6.574,18.512,18.511
			C6.574,30.447,0.001,46.318,0.002,63.197c0,16.901,6.588,32.785,18.539,44.713l24.122,24.126
			c-5.676,2.951-10.925,6.79-15.577,11.443c-11.937,11.937-18.512,27.807-18.512,44.688c0,16.881,6.574,32.752,18.508,44.688
			c11.933,11.939,27.805,18.515,44.693,18.515l116.403-0.004c12.43,0,24.457-3.604,34.765-10.414
			c3.553-2.342,6.89-5.065,9.918-8.095c11.971-11.974,18.544-27.891,18.506-44.787l0.001-116.225
			C251.379,54.945,244.804,39.057,232.856,27.112z M221.369,188.103c0.02,8.893-3.433,17.253-9.722,23.544
			c-1.596,1.597-3.349,3.028-5.224,4.264c-5.402,3.569-11.71,5.455-18.243,5.455h-0.103l-116.301,0.003
			c-8.872,0-17.209-3.453-23.477-9.725c-6.271-6.271-9.725-14.609-9.725-23.478c0-8.867,3.454-17.203,9.727-23.477
			c6.266-6.269,14.6-9.722,23.493-9.722c0.004,0,0.008,0,0.012,0c6.064,0,11.532-3.651,13.856-9.254
			c2.325-5.605,1.042-12.061-3.249-16.352L39.745,86.688c-6.283-6.271-9.743-14.614-9.743-23.492c0-8.866,3.452-17.202,9.723-23.473
			s14.608-9.724,23.484-9.724c8.864,0,17.199,3.453,23.47,9.726l42.684,42.684c4.288,4.29,10.739,5.572,16.344,3.253
			c5.604-2.32,9.26-7.787,9.262-13.854c0.003-8.877,3.458-17.217,9.73-23.486c6.269-6.27,14.604-9.723,23.471-9.723
			c8.868,0,17.204,3.453,23.476,9.725c6.276,6.275,9.73,14.621,9.725,23.51L221.369,188.103z"/>
	</g>
</g>
<g>
</g>
<g>
</g>
<g>
</g>
<g>
</g>
<g>
</g>
<g>
</g>
<g>
</g>
<g>
</g>
<g>
</g>
<g>
</g>
<g>
</g>
<g>
</g>
<g>
</g>
<g>
</g>
<g>
</g>
</svg>
