<?xml version="1.0" encoding="iso-8859-1"?>
<!-- Generator: Adobe Illustrator 19.0.0, SVG Export Plug-In . SVG Version: 6.00 Build 0)  -->
<svg version="1.1" id="Capa_1" xmlns="http://www.w3.org/2000/svg" xmlns:xlink="http://www.w3.org/1999/xlink" x="0px" y="0px"
	 viewBox="0 0 512 512" style="enable-background:new 0 0 512 512;" xml:space="preserve">
<g>
	<g>
		<path d="M416.666,0H95.334C42.767,0,0,42.767,0,95.334v321.333C0,469.233,42.767,512,95.334,512h321.332
			C469.233,512,512,469.233,512,416.667V95.334C512,42.767,469.233,0,416.666,0z M482,416.667C482,452.691,452.691,482,416.666,482
			H95.334C59.309,482,30,452.691,30,416.667V95.334C30,59.309,59.309,30,95.334,30h321.332C452.691,30,482,59.309,482,95.334
			V416.667z"/>
	</g>
</g>
<g>
	<g>
		<path d="M393.939,209.272c-2.653-7.85-11.169-12.061-19.013-9.408c-7.849,2.652-12.061,11.165-9.407,19.013
			c14.195,41.997,3.555,87.545-27.77,118.871c-21.836,21.837-50.868,33.862-81.748,33.862c-14.989,0-29.54-2.842-43.047-8.255h2.936
			c8.283,0,15-6.716,15-15s-6.716-15-15-15l-52.246-0.001c-0.095,0-0.188,0.013-0.283,0.014c-0.393,0.008-0.785,0.021-1.176,0.059
			c-0.161,0.016-0.319,0.048-0.48,0.069c-0.325,0.042-0.651,0.082-0.974,0.146c-0.131,0.025-0.258,0.065-0.388,0.095
			c-0.349,0.078-0.697,0.157-1.04,0.261c-0.094,0.028-0.185,0.067-0.277,0.097c-0.372,0.121-0.743,0.247-1.107,0.397
			c-0.067,0.027-0.132,0.063-0.198,0.092c-0.381,0.163-0.759,0.336-1.127,0.532c-0.07,0.038-0.137,0.084-0.206,0.122
			c-0.356,0.197-0.709,0.4-1.052,0.629c-0.13,0.087-0.251,0.188-0.379,0.278c-0.271,0.193-0.544,0.383-0.805,0.597
			c-0.386,0.315-0.759,0.651-1.114,1.007c-0.355,0.355-0.689,0.727-1.005,1.111c-0.248,0.303-0.471,0.617-0.69,0.934
			c-0.06,0.084-0.126,0.163-0.184,0.249c-0.255,0.382-0.486,0.775-0.703,1.175c-0.015,0.027-0.032,0.053-0.047,0.079
			c-0.217,0.407-0.411,0.823-0.588,1.245c-0.012,0.027-0.026,0.053-0.037,0.08c-0.167,0.404-0.311,0.816-0.441,1.232
			c-0.016,0.051-0.037,0.1-0.053,0.15c-0.118,0.389-0.211,0.783-0.296,1.179c-0.018,0.084-0.045,0.166-0.061,0.25
			c-0.075,0.384-0.127,0.771-0.173,1.157c-0.012,0.1-0.033,0.197-0.043,0.298c-0.047,0.489-0.072,0.98-0.072,1.472l0.002,52.241
			c0,8.284,6.716,14.999,15.001,14.999c8.284,0,14.999-6.716,14.999-15.001V379.42c22.958,14.451,49.561,22.191,77.355,22.191
			c38.893,0,75.459-15.147,102.961-42.65c19.563-19.564,33.089-44.115,39.113-70.997
			C403.934,261.821,402.504,234.61,393.939,209.272z"/>
	</g>
</g>
<g>
	<g>
		<path d="M348.36,96.4L348.36,96.4c-8.284,0-15.001,6.716-15.001,14.999v21.182c-22.959-14.452-49.563-22.191-77.356-22.191
			c-38.894,0-75.46,15.146-102.963,42.648c-19.564,19.564-33.089,44.115-39.113,70.998c-5.858,26.144-4.428,53.355,4.137,78.694
			c2.114,6.256,7.952,10.201,14.208,10.201c1.593,0,3.213-0.256,4.805-0.794c7.849-2.652,12.061-11.165,9.407-19.013
			c-14.198-41.997-3.557-87.547,27.767-118.873c21.837-21.836,50.869-33.861,81.75-33.861c14.989,0,29.54,2.841,43.047,8.255h-2.935
			c-8.284,0-15,6.716-15,15s6.716,15,15,15h52.237c0.496,0,0.992-0.026,1.487-0.075c0.217-0.021,0.428-0.062,0.643-0.093
			c0.27-0.038,0.539-0.07,0.807-0.123c0.251-0.05,0.494-0.119,0.741-0.181c0.228-0.058,0.456-0.107,0.681-0.175
			c0.244-0.074,0.48-0.166,0.719-0.252c0.223-0.08,0.447-0.153,0.666-0.244c0.225-0.093,0.441-0.202,0.66-0.306
			c0.225-0.107,0.45-0.205,0.67-0.323c0.211-0.113,0.412-0.242,0.617-0.365c0.215-0.128,0.433-0.249,0.642-0.389
			c0.23-0.154,0.446-0.324,0.666-0.49c0.171-0.128,0.346-0.246,0.513-0.383c0.766-0.628,1.467-1.33,2.096-2.096
			c0.138-0.168,0.258-0.346,0.387-0.518c0.164-0.219,0.334-0.434,0.486-0.66c0.141-0.212,0.264-0.432,0.393-0.648
			c0.122-0.203,0.249-0.4,0.361-0.609c0.119-0.223,0.22-0.452,0.326-0.679c0.103-0.217,0.211-0.43,0.303-0.651
			c0.092-0.222,0.166-0.448,0.246-0.674c0.086-0.236,0.176-0.47,0.249-0.711c0.069-0.227,0.119-0.458,0.177-0.688
			c0.063-0.245,0.131-0.486,0.18-0.735c0.053-0.269,0.085-0.539,0.123-0.809c0.031-0.215,0.072-0.425,0.094-0.642
			c0.049-0.495,0.074-0.991,0.074-1.487l0.002-52.238C363.359,103.116,356.644,96.4,348.36,96.4z"/>
	</g>
</g>
<g>
</g>
<g>
</g>
<g>
</g>
<g>
</g>
<g>
</g>
<g>
</g>
<g>
</g>
<g>
</g>
<g>
</g>
<g>
</g>
<g>
</g>
<g>
</g>
<g>
</g>
<g>
</g>
<g>
</g>
</svg>
