<?xml version="1.0" encoding="iso-8859-1"?>
<!-- Generator: Adobe Illustrator 19.0.0, SVG Export Plug-In . SVG Version: 6.00 Build 0)  -->
<svg version="1.1" id="Capa_1" xmlns="http://www.w3.org/2000/svg" xmlns:xlink="http://www.w3.org/1999/xlink" x="0px" y="0px"
	 viewBox="0 0 512 512" style="enable-background:new 0 0 512 512;" xml:space="preserve">
<g>
	<g>
		<path d="M511.997,63.323c0.024-12.478-3.579-24.55-10.415-34.9c-2.344-3.556-5.068-6.893-8.096-9.918
			C481.549,6.571,465.683,0,448.811,0h-116.38c-16.882,0-32.753,6.575-44.687,18.512c-11.938,11.936-18.512,27.805-18.513,44.686
			c0,16.882,6.574,32.753,18.509,44.684c4.646,4.649,9.891,8.485,15.561,11.437l-24.16,24.159
			c-11.937,11.938-18.511,27.808-18.511,44.689c0.004,34.845,28.352,63.195,63.191,63.198h0.007
			c16.902,0,32.786-6.588,44.713-18.539l24.125-24.121c2.952,5.676,6.791,10.926,11.445,15.578
			c11.937,11.935,27.807,18.508,44.688,18.508c16.88,0,32.751-6.572,44.687-18.506C505.425,212.353,512,196.48,512,179.591
			L511.997,63.323z M472.276,203.068c-6.272,6.27-14.609,9.724-23.478,9.724c-8.868,0-17.205-3.453-23.478-9.725
			c-6.275-6.272-9.728-14.616-9.721-23.494c0.005-6.068-3.647-11.543-9.254-13.867c-5.603-2.325-12.06-1.044-16.352,3.248
			l-42.677,42.67c-6.27,6.282-14.612,9.742-23.492,9.742h-0.002c-18.302-0.002-33.192-14.895-33.194-33.2
			c0.002-8.867,3.456-17.205,9.727-23.476l42.685-42.683c4.289-4.289,5.573-10.739,3.253-16.344
			c-2.32-5.605-7.787-9.261-13.854-9.263c-8.875-0.004-17.214-3.458-23.483-9.732c-6.27-6.268-9.724-14.604-9.724-23.471
			c0.001-8.867,3.454-17.202,9.726-23.474c6.27-6.271,14.606-9.725,23.504-9.725H448.7c0.012,0,0.1,0,0.111,0
			c8.86,0,17.195,3.452,23.469,9.724c1.596,1.595,3.026,3.347,4.262,5.221c3.582,5.424,5.469,11.759,5.456,18.349L482,179.591
			C482,188.463,478.547,196.801,472.276,203.068z"/>
	</g>
</g>
<g>
	<g>
		<path d="M208.696,392.676l24.16-24.159c11.937-11.938,18.511-27.808,18.511-44.686c0-34.849-28.347-63.199-63.197-63.199
			c-16.899,0-32.783,6.586-44.717,18.538l-24.122,24.12c-2.951-5.674-6.789-10.924-11.442-15.576
			c-11.937-11.935-27.808-18.508-44.688-18.508c-16.882,0-32.753,6.572-44.688,18.506C6.574,299.643,0,315.516,0,332.406v116.268
			c-0.025,12.477,3.579,24.548,10.423,34.912c2.346,3.552,5.068,6.886,8.089,9.904c11.935,11.935,27.804,18.507,44.686,18.507
			h116.367c0.001,0,0.001,0,0.001,0c16.878,0,32.75-6.573,44.693-18.512c11.935-11.937,18.507-27.807,18.507-44.687
			c0-16.882-6.574-32.753-18.508-44.685C219.611,399.463,214.367,395.628,208.696,392.676z M203.046,472.273
			c-6.275,6.272-14.614,9.727-23.513,9.727H63.197c-8.868,0-17.204-3.452-23.475-9.722c-1.597-1.596-3.032-3.353-4.267-5.222
			c-3.582-5.426-5.469-11.761-5.456-18.35v-116.3c0-8.874,3.451-17.211,9.721-23.477c6.271-6.27,14.61-9.724,23.479-9.724
			c8.868,0,17.206,3.453,23.477,9.723c6.277,6.276,9.729,14.619,9.721,23.492c-0.006,6.07,3.646,11.545,9.253,13.87
			c5.604,2.324,12.06,1.044,16.354-3.248l42.67-42.668c6.274-6.283,14.618-9.743,23.503-9.743c18.302,0,33.19,14.894,33.19,33.199
			c0,8.867-3.454,17.204-9.724,23.477l-42.687,42.685c-4.29,4.289-5.573,10.74-3.253,16.345c2.321,5.605,7.789,9.26,13.855,9.262
			c8.877,0.002,17.215,3.455,23.483,9.728c6.27,6.27,9.724,14.606,9.724,23.474C212.765,457.669,209.313,466.005,203.046,472.273z"
			/>
	</g>
</g>
<g>
	<g>
		<path d="M493.482,287.742c-11.935-11.936-27.804-18.51-44.684-18.51c-16.881,0-32.752,6.574-44.684,18.509
			c-4.65,4.647-8.485,9.891-11.437,15.561l-24.16-24.161c-11.939-11.935-27.811-18.509-44.69-18.509
			c-16.88,0.001-32.75,6.575-44.688,18.512c-11.938,11.938-18.512,27.808-18.51,44.687c0,16.897,6.587,32.78,18.539,44.713
			l24.12,24.126c-5.675,2.951-10.923,6.789-15.574,11.442c-24.641,24.64-24.641,64.734-0.004,89.376
			C299.643,505.426,315.515,512,332.404,512l116.268-0.002c0.011,0,0.117,0,0.128,0c12.431,0,24.459-3.603,34.785-10.421
			c3.557-2.35,6.892-5.072,9.904-8.09c11.973-11.975,18.545-27.893,18.508-44.788V332.471
			C512.005,315.573,505.43,299.688,493.482,287.742z M481.999,448.732h-0.002c0.02,8.892-3.434,17.253-9.729,23.55
			c-1.59,1.592-3.345,3.025-5.214,4.26c-5.406,3.569-11.719,5.456-18.353,5.456L332.404,482c-8.873,0-17.209-3.452-23.476-9.722
			c-12.944-12.946-12.944-34.01,0.001-46.956c6.266-6.268,14.596-9.72,23.488-9.72c0.005,0,0.01,0,0.015,0
			c6.064,0,11.531-3.65,13.855-9.253c2.325-5.605,1.043-12.061-3.248-16.353l-42.665-42.675c-6.284-6.273-9.745-14.617-9.745-23.494
			c-0.001-8.865,3.452-17.201,9.723-23.472c6.272-6.27,14.608-9.725,23.476-9.725c8.867,0,17.206,3.454,23.478,9.724l42.684,42.686
			c4.289,4.289,10.74,5.571,16.345,3.253c5.604-2.32,9.26-7.788,9.262-13.854c0.003-8.877,3.456-17.215,9.729-23.484
			c6.27-6.271,14.605-9.724,23.473-9.724c8.866,0,17.202,3.453,23.472,9.724c6.277,6.276,9.731,14.622,9.728,23.508V448.732z"/>
	</g>
</g>
<g>
	<g>
		<path d="M232.829,143.455l-24.123-24.124c5.675-2.952,10.926-6.791,15.578-11.444c24.636-24.64,24.636-64.733,0.001-89.376
			C212.352,6.574,196.48,0,179.591,0L63.189,0.002c-12.43,0-24.456,3.604-34.767,10.416c-3.549,2.34-6.886,5.063-9.917,8.094
			C6.533,30.485-0.039,46.403,0,63.301v116.225c-0.012,16.894,6.562,32.779,18.511,44.731c11.935,11.935,27.806,18.51,44.687,18.51
			c0.001,0,0.001,0,0.001,0c16.881,0,32.752-6.574,44.684-18.508c4.649-4.646,8.485-9.892,11.437-15.561l24.157,24.159
			c11.939,11.937,27.809,18.511,44.688,18.511c0,0,0,0,0.001,0c16.882-0.001,32.753-6.575,44.69-18.512
			c11.938-11.937,18.511-27.808,18.509-44.687C251.365,171.269,244.779,155.386,232.829,143.455z M211.643,211.645
			c-6.271,6.27-14.609,9.725-23.479,9.725c-8.866,0-17.203-3.454-23.475-9.725l-42.682-42.686c-2.87-2.869-6.707-4.393-10.61-4.393
			c-1.932,0-3.88,0.373-5.735,1.141c-5.606,2.321-9.261,7.789-9.262,13.855c-0.002,8.875-3.456,17.214-9.729,23.483
			c-6.27,6.271-14.605,9.724-23.473,9.723c-8.868,0-17.205-3.453-23.474-9.722c-6.278-6.279-9.731-14.625-9.726-23.509V63.267H30
			c-0.021-8.893,3.432-17.254,9.719-23.542c1.6-1.601,3.355-3.034,5.227-4.268c5.401-3.569,11.71-5.455,18.242-5.455
			c0.001,0,0.102,0,0.102,0L179.591,30c8.873,0,17.21,3.452,23.477,9.721c12.943,12.947,12.943,34.012,0.001,46.956
			c-6.269,6.27-14.602,9.722-23.496,9.722c-0.004,0-0.008,0-0.013,0c-6.064,0-11.532,3.651-13.855,9.254
			c-2.325,5.605-1.043,12.061,3.249,16.353l42.67,42.673c6.282,6.271,9.741,14.614,9.741,23.494
			C221.366,197.038,217.914,205.374,211.643,211.645z"/>
	</g>
</g>
<g>
</g>
<g>
</g>
<g>
</g>
<g>
</g>
<g>
</g>
<g>
</g>
<g>
</g>
<g>
</g>
<g>
</g>
<g>
</g>
<g>
</g>
<g>
</g>
<g>
</g>
<g>
</g>
<g>
</g>
</svg>
