<?xml version="1.0" encoding="iso-8859-1"?>
<!-- Generator: Adobe Illustrator 19.0.0, SVG Export Plug-In . SVG Version: 6.00 Build 0)  -->
<svg version="1.1" id="Capa_1" xmlns="http://www.w3.org/2000/svg" xmlns:xlink="http://www.w3.org/1999/xlink" x="0px" y="0px"
	 viewBox="0 0 512.001 512.001" style="enable-background:new 0 0 512.001 512.001;" xml:space="preserve">
<g>
	<g>
		<path d="M511.266,197.257c-1.764-5.431-6.458-9.388-12.108-10.209l-158.722-23.066L269.452,20.156
			c-2.527-5.12-7.741-8.361-13.451-8.361c-5.709,0-10.924,3.241-13.451,8.361l-70.988,143.826L12.843,187.048
			c-5.65,0.821-10.345,4.778-12.108,10.208c-1.765,5.431-0.293,11.392,3.795,15.377l114.848,111.955L92.271,482.669
			c-0.965,5.628,1.349,11.314,5.968,14.671c4.618,3.354,10.74,3.798,15.797,1.142L256,423.845l141.963,74.637
			c2.195,1.153,4.592,1.723,6.979,1.723c3.11,0,6.205-0.966,8.818-2.865c4.62-3.355,6.933-9.043,5.968-14.671l-27.116-158.08
			L507.47,212.633C511.559,208.648,513.031,202.687,511.266,197.257z M241,397.837l-114.024,59.947l23.303-135.898
			c0.834-4.865-0.78-9.83-4.314-13.276l-98.731-96.244l136.445-19.83c4.886-0.71,9.108-3.778,11.294-8.205L241,91.076V397.837z
			 M366.025,308.61c-3.536,3.446-5.149,8.411-4.314,13.277l23.311,135.896L271,397.837V91.078l46.023,93.252
			c2.186,4.427,6.408,7.495,11.294,8.205l136.448,19.829L366.025,308.61z"/>
	</g>
</g>
<g>
</g>
<g>
</g>
<g>
</g>
<g>
</g>
<g>
</g>
<g>
</g>
<g>
</g>
<g>
</g>
<g>
</g>
<g>
</g>
<g>
</g>
<g>
</g>
<g>
</g>
<g>
</g>
<g>
</g>
</svg>
