<?xml version="1.0" encoding="iso-8859-1"?>
<!-- Generator: Adobe Illustrator 19.0.0, SVG Export Plug-In . SVG Version: 6.00 Build 0)  -->
<svg version="1.1" id="Capa_1" xmlns="http://www.w3.org/2000/svg" xmlns:xlink="http://www.w3.org/1999/xlink" x="0px" y="0px"
	 viewBox="0 0 512 512" style="enable-background:new 0 0 512 512;" xml:space="preserve">
<g>
	<g>
		<path d="M437.02,74.98C388.667,26.629,324.38,0,256,0S123.332,26.629,74.98,74.98C26.629,123.333,0,187.62,0,256
			s26.629,132.667,74.98,181.02C123.332,485.371,187.62,512,256,512s132.667-26.629,181.02-74.98
			C485.371,388.667,512,324.38,512,256S485.371,123.333,437.02,74.98z M256,482C131.383,482,30,380.617,30,256S131.383,30,256,30
			s226,101.383,226,226S380.617,482,256,482z"/>
	</g>
</g>
<g>
	<g>
		<path d="M400.6,241.003h-71.376l-13.78-35.829c-1.523-3.961-4.654-7.092-8.615-8.615l-35.83-13.78v-71.375c0-8.284-6.716-15-15-15
			s-15,6.716-15,15v59.837l-81.863-31.484c-5.533-2.132-11.8-0.798-15.991,3.393c-4.191,4.191-5.521,10.459-3.393,15.991
			l31.488,81.862H111.4c-8.284,0-15,6.716-15,15s6.716,15,15,15h71.378l13.78,35.825c1.523,3.961,4.654,7.092,8.615,8.615
			L241,329.224v71.378c0,8.284,6.716,15,15,15s15-6.716,15-15v-59.838l81.861,31.487c1.75,0.673,3.573,1,5.382,1
			c3.908,0,7.743-1.527,10.609-4.394c4.191-4.191,5.521-10.458,3.394-15.991l-31.484-81.863H400.6c8.284,0,15-6.716,15-15
			C415.6,247.719,408.884,241.003,400.6,241.003z M222.165,289.837l-15.148-39.381c-0.046-0.115-0.085-0.233-0.133-0.348
			l-27.017-70.237l109.968,42.295l42.295,109.968L222.165,289.837z"/>
	</g>
</g>
<g>
</g>
<g>
</g>
<g>
</g>
<g>
</g>
<g>
</g>
<g>
</g>
<g>
</g>
<g>
</g>
<g>
</g>
<g>
</g>
<g>
</g>
<g>
</g>
<g>
</g>
<g>
</g>
<g>
</g>
</svg>
