<?xml version="1.0" encoding="iso-8859-1"?>
<!-- Generator: Adobe Illustrator 19.0.0, SVG Export Plug-In . SVG Version: 6.00 Build 0)  -->
<svg version="1.1" id="Capa_1" xmlns="http://www.w3.org/2000/svg" xmlns:xlink="http://www.w3.org/1999/xlink" x="0px" y="0px"
	 viewBox="0 0 512 512" style="enable-background:new 0 0 512 512;" xml:space="preserve">
<g>
	<g>
		<path d="M111.4,241H15c-8.284,0-15,6.716-15,15s6.716,15,15,15h96.4c8.284,0,15-6.716,15-15S119.684,241,111.4,241z"/>
	</g>
</g>
<g>
	<g>
		<path d="M497,241h-96.4c-8.284,0-15,6.716-15,15s6.716,15,15,15H497c8.284,0,15-6.716,15-15S505.284,241,497,241z"/>
	</g>
</g>
<g>
	<g>
		<path d="M256,0c-8.284,0-15,6.716-15,15v96.4c0,8.285,6.716,15,15,15s15-6.716,15-15V15C271,6.716,264.284,0,256,0z"/>
	</g>
</g>
<g>
	<g>
		<path d="M256,385.6c-8.284,0-15,6.716-15,15V497c0,8.284,6.716,15,15,15s15-6.716,15-15v-96.4
			C271,392.315,264.284,385.6,256,385.6z"/>
	</g>
</g>
<g>
	<g>
		<path d="M164.358,347.641c-5.857-5.858-15.355-5.858-21.213,0L74.98,415.807c-5.857,5.857-5.857,15.355,0.001,21.213
			c2.929,2.929,6.767,4.394,10.606,4.394c3.839,0,7.678-1.465,10.607-4.394l68.165-68.166
			C170.216,362.997,170.216,353.499,164.358,347.641z"/>
	</g>
</g>
<g>
	<g>
		<path d="M437.02,74.982c-5.857-5.858-15.355-5.858-21.213,0l-68.166,68.163c-5.858,5.857-5.858,15.355,0,21.213
			c2.929,2.93,6.768,4.394,10.607,4.394c3.838,0,7.678-1.465,10.606-4.394l68.166-68.163
			C442.878,90.338,442.878,80.841,437.02,74.982z"/>
	</g>
</g>
<g>
	<g>
		<path d="M164.358,143.147L96.194,74.982c-5.858-5.858-15.355-5.858-21.213,0c-5.858,5.857-5.858,15.355,0,21.213l68.164,68.165
			c2.929,2.93,6.767,4.394,10.607,4.394c3.838,0,7.678-1.465,10.606-4.394C170.216,158.503,170.216,149.005,164.358,143.147z"/>
	</g>
</g>
<g>
	<g>
		<path d="M437.019,415.807l-68.165-68.164c-5.857-5.857-15.355-5.857-21.213,0c-5.858,5.858-5.858,15.355,0,21.213l68.166,68.164
			c2.929,2.929,6.768,4.394,10.606,4.394c3.839,0,7.678-1.465,10.606-4.394C442.877,431.162,442.877,421.665,437.019,415.807z"/>
	</g>
</g>
<g>
	<g>
		<path d="M256,192.8c-34.848,0-63.199,28.352-63.199,63.2c0,34.848,28.351,63.2,63.199,63.2c34.849,0,63.199-28.352,63.199-63.2
			S290.848,192.8,256,192.8z M256,289.2c-18.306,0-33.199-14.894-33.199-33.2c0-18.306,14.893-33.2,33.199-33.2
			c18.306,0,33.199,14.894,33.199,33.2C289.199,274.306,274.305,289.2,256,289.2z"/>
	</g>
</g>
<g>
</g>
<g>
</g>
<g>
</g>
<g>
</g>
<g>
</g>
<g>
</g>
<g>
</g>
<g>
</g>
<g>
</g>
<g>
</g>
<g>
</g>
<g>
</g>
<g>
</g>
<g>
</g>
<g>
</g>
</svg>
