<?xml version="1.0" encoding="iso-8859-1"?>
<!-- Generator: Adobe Illustrator 19.0.0, SVG Export Plug-In . SVG Version: 6.00 Build 0)  -->
<svg version="1.1" id="Capa_1" xmlns="http://www.w3.org/2000/svg" xmlns:xlink="http://www.w3.org/1999/xlink" x="0px" y="0px"
	 viewBox="0 0 512 512" style="enable-background:new 0 0 512 512;" xml:space="preserve">
<g>
	<g>
		<path d="M496.999,0H15.001c-8.284,0-15,6.716-15,15v482c0,8.284,6.716,15,15,15h481.998c8.284,0,15-6.716,15-15V15
			C511.999,6.716,505.283,0,496.999,0z M481.999,482H30.001V30h451.998V482z"/>
	</g>
</g>
<g>
	<g>
		<path d="M146.11,245.39c-2.8-2.79-6.66-4.39-10.61-4.39c-3.94,0-7.81,1.6-10.61,4.39c-2.79,2.8-4.39,6.66-4.39,10.61
			s1.6,7.81,4.39,10.609c2.8,2.79,6.66,4.391,10.61,4.391s7.81-1.601,10.61-4.391c2.79-2.8,4.39-6.659,4.39-10.609
			S148.9,248.189,146.11,245.39z"/>
	</g>
</g>
<g>
	<g>
		<path d="M266.61,245.39c-2.8-2.79-6.66-4.39-10.61-4.39s-7.81,1.6-10.61,4.39c-2.79,2.8-4.39,6.66-4.39,10.61
			s1.6,7.81,4.39,10.609c2.79,2.79,6.66,4.391,10.61,4.391s7.81-1.601,10.61-4.391c2.79-2.79,4.39-6.659,4.39-10.609
			S269.4,248.189,266.61,245.39z"/>
	</g>
</g>
<g>
	<g>
		<path d="M387.11,245.39c-2.8-2.79-6.66-4.39-10.61-4.39s-7.81,1.6-10.61,4.39c-2.79,2.8-4.39,6.66-4.39,10.61
			s1.6,7.81,4.39,10.609c2.79,2.79,6.66,4.391,10.61,4.391s7.82-1.601,10.61-4.391c2.79-2.79,4.39-6.659,4.39-10.609
			S389.9,248.189,387.11,245.39z"/>
	</g>
</g>
<g>
</g>
<g>
</g>
<g>
</g>
<g>
</g>
<g>
</g>
<g>
</g>
<g>
</g>
<g>
</g>
<g>
</g>
<g>
</g>
<g>
</g>
<g>
</g>
<g>
</g>
<g>
</g>
<g>
</g>
</svg>
