<?xml version="1.0" encoding="iso-8859-1"?>
<!-- Generator: Adobe Illustrator 19.0.0, SVG Export Plug-In . SVG Version: 6.00 Build 0)  -->
<svg version="1.1" id="Capa_1" xmlns="http://www.w3.org/2000/svg" xmlns:xlink="http://www.w3.org/1999/xlink" x="0px" y="0px"
	 viewBox="0 0 512 512" style="enable-background:new 0 0 512 512;" xml:space="preserve">
<g>
	<g>
		<path d="M416.667,160.667h-49.266V111.4C367.401,49.974,317.427,0,256,0c-61.425,0-111.398,49.974-111.398,111.4v49.267H95.334
			c-8.284,0-15,6.716-15,15V497c0,8.284,6.716,15,15,15h321.331c8.284,0,15-6.716,15-15V175.667
			C431.667,167.383,424.951,160.667,416.667,160.667z M174.602,111.4c0-44.885,36.515-81.4,81.398-81.4
			c44.884,0,81.4,36.516,81.4,81.4v49.267H174.602V111.4z M401.667,482H110.334V190.667h49.267h192.799h49.266V482z"/>
	</g>
</g>
<g>
	<g>
		<path d="M256.002,250c-35.29,0-64,28.71-64,64c0,30.124,20.926,55.437,49,62.207V406c0,8.284,6.716,15,15,15
			c8.284,0,15-6.716,15-15v-29.793c28.074-6.77,49-32.083,49-62.207C320.002,278.71,291.292,250,256.002,250z M256.002,348
			c-18.748,0-34-15.252-34-34s15.252-34,34-34c18.748,0,34,15.252,34,34S274.748,348,256.002,348z"/>
	</g>
</g>
<g>
</g>
<g>
</g>
<g>
</g>
<g>
</g>
<g>
</g>
<g>
</g>
<g>
</g>
<g>
</g>
<g>
</g>
<g>
</g>
<g>
</g>
<g>
</g>
<g>
</g>
<g>
</g>
<g>
</g>
</svg>
