<?xml version="1.0" encoding="iso-8859-1"?>
<!-- Generator: Adobe Illustrator 19.0.0, SVG Export Plug-In . SVG Version: 6.00 Build 0)  -->
<svg version="1.1" id="Capa_1" xmlns="http://www.w3.org/2000/svg" xmlns:xlink="http://www.w3.org/1999/xlink" x="0px" y="0px"
	 viewBox="0 0 512 512" style="enable-background:new 0 0 512 512;" xml:space="preserve">
<g>
	<g>
		<path d="M501.31,48.833l-160.666-48.2c-2.813-0.844-5.809-0.844-8.621,0L175.668,47.54L19.31,0.633
			C14.77-0.73,9.851,0.136,6.047,2.966S0,10.259,0,15v433.8c0,6.624,4.345,12.464,10.69,14.367l160.667,48.2
			c2.812,0.844,5.808,0.844,8.621,0l156.355-46.907l156.355,46.907c1.415,0.425,2.866,0.633,4.31,0.633
			c3.188,0,6.336-1.018,8.955-2.966c3.804-2.83,6.046-7.293,6.046-12.034V63.2C512,56.576,507.654,50.737,501.31,48.833z
			 M160.668,476.84L30,437.64V35.16l130.667,39.2V476.84z M321.333,437.64l-130.666,39.2V74.361h0l130.666-39.2V437.64z M482,476.84
			l-130.666-39.2V35.16L482,74.361V476.84z"/>
	</g>
</g>
<g>
</g>
<g>
</g>
<g>
</g>
<g>
</g>
<g>
</g>
<g>
</g>
<g>
</g>
<g>
</g>
<g>
</g>
<g>
</g>
<g>
</g>
<g>
</g>
<g>
</g>
<g>
</g>
<g>
</g>
</svg>
