<?xml version="1.0" encoding="iso-8859-1"?>
<!-- Generator: Adobe Illustrator 19.0.0, SVG Export Plug-In . SVG Version: 6.00 Build 0)  -->
<svg version="1.1" id="Capa_1" xmlns="http://www.w3.org/2000/svg" xmlns:xlink="http://www.w3.org/1999/xlink" x="0px" y="0px"
	 viewBox="0 0 512 512" style="enable-background:new 0 0 512 512;" xml:space="preserve">
<g>
	<g>
		<path d="M509.021,236.075l-63.211-84.711l33.943-100.097c1.834-5.407,0.439-11.387-3.599-15.424
			c-4.036-4.038-10.017-5.433-15.424-3.599L360.633,66.19L275.925,2.979c-4.574-3.414-10.693-3.938-15.78-1.344
			c-5.087,2.592-8.262,7.848-8.189,13.557l1.347,105.686l-86.296,61.03c-4.662,3.297-7.048,8.954-6.154,14.594
			c0.893,5.64,4.911,10.282,10.363,11.978l32.748,10.179L18.51,404.111C6.573,416.047,0,431.919,0,448.799
			c0,16.882,6.575,32.752,18.511,44.686C30.448,505.423,46.318,511.999,63.199,512H63.2c16.88,0,32.751-6.575,44.687-18.512
			l185.453-185.451l10.179,32.748c1.695,5.452,6.338,9.47,11.978,10.363c0.785,0.124,1.569,0.185,2.349,0.185
			c4.819,0,9.407-2.326,12.245-6.339l61.03-86.3l105.688,1.35c0.065,0.001,0.128,0.001,0.192,0.001
			c5.634,0,10.801-3.16,13.364-8.189C512.956,246.768,512.436,240.651,509.021,236.075z M86.674,472.277
			C80.404,478.547,72.068,482,63.2,482s-17.204-3.454-23.477-9.728C33.453,466.003,30,457.667,30,448.798
			c0-8.867,3.453-17.204,9.723-23.475l196.605-196.605l35.816,11.133l11.135,35.82L86.674,472.277z M383.619,228.595
			c-0.064-0.001-0.128-0.001-0.192-0.001c-4.864,0-9.433,2.36-12.246,6.339l-48.034,67.923l-24.693-79.441
			c-1.466-4.715-5.157-8.406-9.872-9.872l-52.109-16.197c-0.037-0.011-0.074-0.023-0.111-0.034l-27.217-8.46l67.92-48.034
			c4.03-2.851,6.4-7.502,6.338-12.439l-1.061-83.182l66.671,49.752c3.957,2.953,9.113,3.77,13.788,2.184l78.782-26.717
			l-26.715,78.78c-1.586,4.676-0.77,9.831,2.184,13.788l49.752,66.674L383.619,228.595z"/>
	</g>
</g>
<g>
</g>
<g>
</g>
<g>
</g>
<g>
</g>
<g>
</g>
<g>
</g>
<g>
</g>
<g>
</g>
<g>
</g>
<g>
</g>
<g>
</g>
<g>
</g>
<g>
</g>
<g>
</g>
<g>
</g>
</svg>
