<?xml version="1.0" encoding="iso-8859-1"?>
<!-- Generator: Adobe Illustrator 19.0.0, SVG Export Plug-In . SVG Version: 6.00 Build 0)  -->
<svg version="1.1" id="Capa_1" xmlns="http://www.w3.org/2000/svg" xmlns:xlink="http://www.w3.org/1999/xlink" x="0px" y="0px"
	 viewBox="0 0 512 512" style="enable-background:new 0 0 512 512;" xml:space="preserve">
<g>
	<g>
		<path d="M469.329,132.049l24.161-24.159C505.427,95.95,512,80.078,512,63.2C512,28.352,483.649,0,448.803,0
			c-16.898,0-32.781,6.587-44.717,18.539L379.962,42.66c-2.951-5.674-6.788-10.922-11.442-15.575
			c-11.935-11.937-27.807-18.511-44.688-18.51c-16.882,0-32.753,6.573-44.687,18.506c-11.938,11.93-18.513,27.802-18.513,44.694
			v116.27c-0.026,12.479,3.578,24.552,10.421,34.909c2.347,3.555,5.07,6.89,8.089,9.906c11.935,11.935,27.802,18.508,44.679,18.508
			l116.337,0.001c0.003,0,0.037,0,0.041,0c16.881,0,32.753-6.574,44.692-18.514c11.936-11.935,18.509-27.805,18.509-44.687
			c-0.001-16.882-6.575-32.752-18.509-44.683C480.243,138.837,474.999,135.001,469.329,132.049z M463.678,211.642
			c-6.273,6.273-14.611,9.727-23.479,9.727v15l-0.031-15l-116.235-0.001c-0.012,0-0.1,0-0.111,0c-8.863,0-17.196-3.452-23.469-9.726
			c-1.596-1.594-3.029-3.349-4.266-5.222c-3.582-5.421-5.468-11.754-5.454-18.345v-116.3c0-8.875,3.451-17.211,9.722-23.477
			c6.27-6.271,14.608-9.724,23.478-9.724c8.868,0,17.205,3.452,23.475,9.724c6.278,6.277,9.732,14.621,9.724,23.494
			c-0.005,6.068,3.647,11.543,9.254,13.868c5.601,2.323,12.059,1.044,16.352-3.248l42.67-42.668
			c6.275-6.284,14.62-9.745,23.496-9.745C467.107,30,482,44.894,482,63.2c0,8.867-3.454,17.206-9.725,23.478l-42.686,42.683
			c-4.289,4.29-5.573,10.74-3.253,16.345s7.788,9.261,13.854,9.263c8.877,0.003,17.215,3.457,23.484,9.73
			c6.271,6.269,9.725,14.605,9.725,23.472C473.399,197.037,469.947,205.373,463.678,211.642z"/>
	</g>
</g>
<g>
	<g>
		<path d="M251.366,323.955c0.024-12.479-3.58-24.551-10.417-34.901c-2.34-3.55-5.063-6.885-8.094-9.916
			c-11.937-11.933-27.805-18.505-44.681-18.505l-116.369-0.001c-16.889,0-32.763,6.575-44.696,18.512
			c-11.936,11.935-18.51,27.806-18.51,44.687c-0.001,16.883,6.574,32.753,18.508,44.683c4.648,4.65,9.893,8.486,15.564,11.438
			l-24.157,24.157C6.571,416.048-0.004,431.921,0,448.801c0,16.882,6.574,32.753,18.51,44.689
			c11.938,11.938,27.808,18.511,44.687,18.51c16.904,0,32.788-6.588,44.713-18.539l24.126-24.122
			c2.952,5.676,6.79,10.925,11.444,15.576c11.936,11.937,27.807,18.511,44.688,18.511s32.752-6.573,44.688-18.509
			c11.938-11.933,18.513-27.805,18.513-44.69L251.366,323.955z M211.646,463.701c-6.273,6.271-14.61,9.725-23.479,9.725
			c-8.867,0-17.203-3.453-23.477-9.728c-6.276-6.271-9.729-14.615-9.723-23.492c0.004-6.068-3.648-11.542-9.254-13.866
			c-5.607-2.325-12.06-1.043-16.352,3.248l-42.677,42.67C80.417,478.54,72.075,482,63.196,482h-0.001
			c-8.866,0.001-17.201-3.452-23.472-9.723c-6.27-6.27-9.723-14.608-9.723-23.479c-0.002-8.866,3.451-17.202,9.725-23.475
			l42.684-42.684c4.289-4.289,5.573-10.739,3.253-16.344s-7.787-9.261-13.854-9.263c-8.877-0.004-17.217-3.458-23.486-9.731
			c-6.271-6.268-9.723-14.603-9.723-23.47c0-8.868,3.453-17.204,9.726-23.477c6.269-6.271,14.608-9.724,23.509-9.724l116.234,0.001
			c0.011,0,0.097,0,0.107,0c8.864,0,17.2,3.452,23.47,9.72c1.6,1.6,3.032,3.354,4.266,5.226c3.582,5.422,5.468,11.756,5.455,18.346
			l0.003,116.303C221.368,449.097,217.916,457.434,211.646,463.701z"/>
	</g>
</g>
<g>
</g>
<g>
</g>
<g>
</g>
<g>
</g>
<g>
</g>
<g>
</g>
<g>
</g>
<g>
</g>
<g>
</g>
<g>
</g>
<g>
</g>
<g>
</g>
<g>
</g>
<g>
</g>
<g>
</g>
</svg>
