<?xml version="1.0" encoding="iso-8859-1"?>
<!-- Generator: Adobe Illustrator 19.0.0, SVG Export Plug-In . SVG Version: 6.00 Build 0)  -->
<svg version="1.1" id="Capa_1" xmlns="http://www.w3.org/2000/svg" xmlns:xlink="http://www.w3.org/1999/xlink" x="0px" y="0px"
	 viewBox="0 0 512 512" style="enable-background:new 0 0 512 512;" xml:space="preserve">
<g>
	<g>
		<path d="M169.24,241h-57.841c-8.284,0-15,6.716-15,15s6.716,15,15,15h57.841c8.284,0,15-6.716,15-15S177.524,241,169.24,241z"/>
	</g>
</g>
<g>
	<g>
		<path d="M400.601,241h-57.84c-8.284,0-15,6.716-15,15s6.716,15,15,15h57.84c8.284,0,15-6.716,15-15S408.885,241,400.601,241z"/>
	</g>
</g>
<g>
	<g>
		<path d="M256,96.4c-8.284,0-15,6.716-15,15v57.84c0,8.284,6.716,15,15,15s15-6.716,15-15V111.4C271,103.116,264.284,96.4,256,96.4
			z"/>
	</g>
</g>
<g>
	<g>
		<path d="M256,327.76c-8.284,0-15,6.716-15,15v57.84c0,8.284,6.716,15,15,15s15-6.716,15-15v-57.84
			C271,334.476,264.284,327.76,256,327.76z"/>
	</g>
</g>
<g>
	<g>
		<path d="M205.258,306.741c-5.857-5.858-15.355-5.858-21.213,0l-40.9,40.899c-5.858,5.857-5.858,15.355,0,21.213
			c2.929,2.93,6.768,4.394,10.607,4.394c3.838,0,7.678-1.465,10.606-4.394l40.9-40.899
			C211.116,322.097,211.116,312.6,205.258,306.741z"/>
	</g>
</g>
<g>
	<g>
		<path d="M368.854,143.145c-5.857-5.857-15.355-5.857-21.213,0l-40.898,40.899c-5.858,5.858-5.858,15.355,0,21.213
			c2.928,2.929,6.767,4.394,10.606,4.394s7.678-1.465,10.607-4.394l40.898-40.899C374.712,158.501,374.712,149.003,368.854,143.145z
			"/>
	</g>
</g>
<g>
	<g>
		<path d="M205.256,184.045l-40.899-40.9c-5.857-5.857-15.355-5.857-21.213,0c-5.858,5.857-5.858,15.356,0,21.213l40.9,40.9
			c2.929,2.929,6.768,4.393,10.606,4.393c3.839,0,7.678-1.465,10.606-4.393C211.114,199.401,211.114,189.903,205.256,184.045z"/>
	</g>
</g>
<g>
	<g>
		<path d="M368.853,347.64l-40.898-40.897c-5.857-5.857-15.355-5.857-21.213,0c-5.858,5.858-5.858,15.355,0,21.213l40.898,40.897
			c2.929,2.929,6.768,4.394,10.607,4.394s7.678-1.465,10.606-4.394C374.711,362.996,374.711,353.498,368.853,347.64z"/>
	</g>
</g>
<g>
	<g>
		<path d="M416.667,0H95.333C42.767,0,0,42.767,0,95.334v321.333C0,469.233,42.767,512,95.333,512h321.334
			C469.233,512,512,469.233,512,416.667V95.334C512,42.767,469.233,0,416.667,0z M482,416.667C482,452.691,452.691,482,416.667,482
			H95.333C59.309,482,30,452.691,30,416.667V95.334C30,59.309,59.309,30,95.333,30h321.334C452.691,30,482,59.309,482,95.334
			V416.667z"/>
	</g>
</g>
<g>
</g>
<g>
</g>
<g>
</g>
<g>
</g>
<g>
</g>
<g>
</g>
<g>
</g>
<g>
</g>
<g>
</g>
<g>
</g>
<g>
</g>
<g>
</g>
<g>
</g>
<g>
</g>
<g>
</g>
</svg>
