<?xml version="1.0" encoding="iso-8859-1"?>
<!-- Generator: Adobe Illustrator 19.0.0, SVG Export Plug-In . SVG Version: 6.00 Build 0)  -->
<svg version="1.1" id="Capa_1" xmlns="http://www.w3.org/2000/svg" xmlns:xlink="http://www.w3.org/1999/xlink" x="0px" y="0px"
	 viewBox="0 0 511.999 511.999" style="enable-background:new 0 0 511.999 511.999;" xml:space="preserve">
<g>
	<g>
		<path d="M455.475,243.399c0.194-2.489,0.292-4.988,0.292-7.484c0-52.566-42.767-95.332-95.334-95.332
			c-9.331,0-18.422,1.318-27.182,3.934C312.7,94.167,263.264,60.25,207.8,60.25c-74.715,0-135.499,60.785-135.499,135.5
			c0,0.209,0.001,0.418,0.002,0.628C28.056,219.701,0,265.674,0,316.25c0,74.715,60.785,135.5,135.5,135.5h265.1
			c61.426,0,111.399-49.974,111.399-111.4C511.999,299.938,490.152,263.029,455.475,243.399z M400.6,421.75H135.5
			c-58.173,0-105.5-47.327-105.5-105.5c0-42.122,24.999-80.148,63.688-96.874c5.898-2.551,9.517-8.575,8.998-14.98
			c-0.259-3.193-0.385-6.021-0.385-8.646c0-58.173,47.327-105.5,105.499-105.5c47.571,0,89.447,32.044,101.835,77.926
			c1.177,4.36,4.257,7.958,8.383,9.794c4.127,1.836,8.86,1.717,12.888-0.329c9.226-4.683,19.16-7.057,29.527-7.057
			c36.025,0,65.334,29.308,65.334,65.332c0,4.401-0.441,8.805-1.311,13.089c-1.407,6.928,2.215,13.898,8.693,16.729
			C462.825,278.705,482,307.993,482,340.349C481.999,385.234,445.483,421.75,400.6,421.75z"/>
	</g>
</g>
<g>
</g>
<g>
</g>
<g>
</g>
<g>
</g>
<g>
</g>
<g>
</g>
<g>
</g>
<g>
</g>
<g>
</g>
<g>
</g>
<g>
</g>
<g>
</g>
<g>
</g>
<g>
</g>
<g>
</g>
</svg>
