<?xml version="1.0" encoding="iso-8859-1"?>
<!-- Generator: Adobe Illustrator 19.0.0, SVG Export Plug-In . SVG Version: 6.00 Build 0)  -->
<svg version="1.1" id="Capa_1" xmlns="http://www.w3.org/2000/svg" xmlns:xlink="http://www.w3.org/1999/xlink" x="0px" y="0px"
	 viewBox="0 0 512.001 512.001" style="enable-background:new 0 0 512.001 512.001;" xml:space="preserve">
<g>
	<g>
		<path d="M437.019,74.98C388.905,26.865,325.008,0.271,257.003,0.012C256.667,0.004,256.333,0,256.001,0
			c-0.332,0-0.666,0.004-1.002,0.012C186.993,0.271,123.096,26.865,74.981,74.98C26.629,123.332,0.001,187.619,0.001,256
			c0,68.38,26.628,132.667,74.981,181.019c48.115,48.116,112.012,74.71,180.018,74.97c0.336,0.008,0.67,0.012,1.002,0.012
			c0.331,0,0.666-0.004,1.002-0.012c68.005-0.26,131.9-26.854,180.016-74.97C485.37,388.667,511.999,324.38,511.999,256
			C511.999,187.619,485.37,123.332,437.019,74.98z M481.49,241H351.178c-1.207-60.331-9.668-116.73-24.143-160.156
			c-6.333-18.999-13.182-33.725-20.202-45.078C402.338,57.8,474.873,140.542,481.49,241z M256.001,30
			c10.362,0,27.729,15.801,42.572,60.33c13.502,40.505,21.417,93.543,22.6,150.67H190.828c1.182-57.127,9.097-110.165,22.599-150.67
			C228.27,45.801,245.638,30,256.001,30z M205.169,35.766c-7.021,11.354-13.87,26.079-20.203,45.078
			C170.49,124.27,162.029,180.669,160.823,241H30.511C37.127,140.542,109.663,57.801,205.169,35.766z M30.511,271h130.312
			c1.206,60.33,9.667,116.729,24.143,160.156c6.333,18.999,13.181,33.725,20.203,45.078C109.663,454.199,37.127,371.458,30.511,271z
			 M256.001,482c-10.363,0-27.731-15.801-42.575-60.331C199.925,381.164,192.01,328.127,190.828,271h130.345
			c-1.183,57.126-9.098,110.164-22.6,150.669C283.731,466.199,266.364,482,256.001,482z M306.831,476.234
			c7.021-11.354,13.87-26.08,20.203-45.079C341.51,387.729,349.971,331.33,351.178,271H481.49
			C474.873,371.458,402.337,454.2,306.831,476.234z"/>
	</g>
</g>
<g>
</g>
<g>
</g>
<g>
</g>
<g>
</g>
<g>
</g>
<g>
</g>
<g>
</g>
<g>
</g>
<g>
</g>
<g>
</g>
<g>
</g>
<g>
</g>
<g>
</g>
<g>
</g>
<g>
</g>
</svg>
