<?xml version="1.0" encoding="iso-8859-1"?>
<!-- Generator: Adobe Illustrator 19.0.0, SVG Export Plug-In . SVG Version: 6.00 Build 0)  -->
<svg version="1.1" id="Capa_1" xmlns="http://www.w3.org/2000/svg" xmlns:xlink="http://www.w3.org/1999/xlink" x="0px" y="0px"
	 viewBox="0 0 512 512" style="enable-background:new 0 0 512 512;" xml:space="preserve">
<g>
	<g>
		<path d="M493.4,211.2L411.2,129c-11.9-12-27.8-18.5-44.7-18.5c-0.5,0-1.1,0-1.6,0V15c0-8.3-6.7-15-15-15H15C6.7,0,0,6.7,0,15v482
			c0,8.3,6.7,15,15,15h334.9c8.3,0,15-6.7,15-15v-95.5c0.5,0,1.1,0,1.6,0c16.9,0,32.7-6.6,44.7-18.5l82.2-82.2
			c8.8-8.8,14.8-19.9,17.3-32c0.9-4.2,1.3-8.5,1.3-12.7C512,239.1,505.4,223.2,493.4,211.2z M30,482V30h304.9v89
			c-4.7,2.7-9.1,6.1-13.1,10c-11.9,11.9-18.5,27.8-18.5,44.7c0,6.6,1,13,2.9,19.1H272c-16.9,0-32.8,6.6-44.7,18.5
			c-11.9,11.9-18.5,27.8-18.5,44.7c0,16.9,6.6,32.8,18.5,44.7c11.9,11.9,27.8,18.5,44.7,18.5h34.1c-1.9,6.1-2.9,12.5-2.9,19.1
			c0,23.3,12.7,43.7,31.6,54.7l0.1,89H30z M481.3,262.7c-1.3,6.4-4.4,12.2-9.1,16.8L390,361.8c-6.3,6.3-14.6,9.7-23.5,9.7
			c-18.3,0-33.2-14.9-33.2-33.2c0-8.9,3.5-17.2,9.7-23.5c4.3-4.3,5.6-10.7,3.3-16.4c-2.3-5.6-7.8-9.3-13.9-9.3H272
			c-8.9,0-17.2-3.5-23.5-9.7c-6.3-6.3-9.7-14.6-9.7-23.5c0-8.9,3.5-17.2,9.7-23.5c6.3-6.3,14.6-9.7,23.5-9.7h60.4
			c6.1,0,11.5-3.7,13.9-9.3c2.3-5.6,1-12.1-3.2-16.3c-6.3-6.3-9.7-14.6-9.7-23.5c0-8.9,3.5-17.2,9.7-23.5c6.3-6.3,14.6-9.7,23.5-9.7
			c8.9,0,17.2,3.5,23.5,9.7l82.2,82.2c6.3,6.3,9.8,14.6,9.8,23.5C482,258.3,481.8,260.5,481.3,262.7z"/>
	</g>
</g>
<g>
</g>
<g>
</g>
<g>
</g>
<g>
</g>
<g>
</g>
<g>
</g>
<g>
</g>
<g>
</g>
<g>
</g>
<g>
</g>
<g>
</g>
<g>
</g>
<g>
</g>
<g>
</g>
<g>
</g>
</svg>
