<?xml version="1.0" encoding="iso-8859-1"?>
<!-- Generator: Adobe Illustrator 19.0.0, SVG Export Plug-In . SVG Version: 6.00 Build 0)  -->
<svg version="1.1" id="Capa_1" xmlns="http://www.w3.org/2000/svg" xmlns:xlink="http://www.w3.org/1999/xlink" x="0px" y="0px"
	 viewBox="0 0 512 512" style="enable-background:new 0 0 512 512;" xml:space="preserve">
<g>
	<g>
		<path d="M464.866,96.4H424.7h-57.301V15c0-8.284-6.716-15-15-15H159.6c-8.284,0-15,6.716-15,15v81.4H87.3H47.134
			c-8.284,0-15,6.716-15,15s6.716,15,15,15H72.3V497c0,8.284,6.716,15,15,15h337.4c8.284,0,15-6.716,15-15V126.4h25.166
			c8.284,0,15-6.716,15-15S473.15,96.4,464.866,96.4z M174.6,30h162.799v66.4H174.6V30z M409.7,482H102.3V126.4h57.3h192.799H409.7
			V482z"/>
	</g>
</g>
<g>
	<g>
		<path d="M304.2,192.801c-8.284,0-15,6.716-15,15V400.6c0,8.284,6.716,15,15,15s15-6.716,15-15V207.801
			C319.2,199.517,312.484,192.801,304.2,192.801z"/>
	</g>
</g>
<g>
	<g>
		<path d="M207.8,192.801c-8.284,0-15,6.716-15,15V400.6c0,8.284,6.716,15,15,15s15-6.716,15-15V207.801
			C222.8,199.517,216.084,192.801,207.8,192.801z"/>
	</g>
</g>
<g>
</g>
<g>
</g>
<g>
</g>
<g>
</g>
<g>
</g>
<g>
</g>
<g>
</g>
<g>
</g>
<g>
</g>
<g>
</g>
<g>
</g>
<g>
</g>
<g>
</g>
<g>
</g>
<g>
</g>
</svg>
