<?xml version="1.0" encoding="iso-8859-1"?>
<!-- Generator: Adobe Illustrator 19.0.0, SVG Export Plug-In . SVG Version: 6.00 Build 0)  -->
<svg version="1.1" id="Capa_1" xmlns="http://www.w3.org/2000/svg" xmlns:xlink="http://www.w3.org/1999/xlink" x="0px" y="0px"
	 viewBox="0 0 512.002 512.002" style="enable-background:new 0 0 512.002 512.002;" xml:space="preserve">
<g>
	<g>
		<path d="M493.493,211.326c-11.935-11.938-27.807-18.512-44.729-18.512l-34.113-0.002c1.924-6.099,2.922-12.524,2.92-19.104
			c0-31.259-22.818-57.275-52.684-62.307v-96.4c0-8.284-6.716-15-15-15H15c-8.284,0-15,6.716-15,15v482c0,8.284,6.716,15,15,15
			h334.887c8.284,0,15-6.716,15-15v-96.392c12.874-2.147,24.74-8.209,34.154-17.624c11.937-11.936,18.51-27.808,18.508-44.681
			c0.003-6.574-0.993-12.997-2.915-19.094l34.169,0.001c16.883-0.003,32.753-6.577,44.686-18.511
			c11.937-11.936,18.512-27.809,18.513-44.69C512.002,239.129,505.428,223.258,493.493,211.326z M334.887,482.001H30v-452h304.887
			v83.568c-9.398,3.034-18.017,8.262-25.204,15.451l-82.217,82.215c-8.842,8.808-14.83,19.893-17.314,32.05
			c-0.857,4.183-1.289,8.472-1.284,12.729c0,16.928,6.607,32.83,18.583,44.756l82.184,82.184
			c7.197,7.206,15.831,12.444,25.252,15.482V482.001z M472.275,279.489c-6.268,6.27-14.606,9.723-23.475,9.724l-60.366-0.002
			c-0.001,0,0,0-0.001,0c-6.065,0-11.535,3.653-13.857,9.257c-2.323,5.603-1.042,12.055,3.246,16.346
			c6.276,6.28,9.73,14.619,9.726,23.487c0.001,8.866-3.452,17.203-9.722,23.474c-6.269,6.27-14.603,9.722-23.468,9.722h-0.002
			c-8.879-0.001-17.223-3.46-23.502-9.747l-82.213-82.212c-6.303-6.277-9.774-14.631-9.774-23.539
			c-0.002-2.246,0.224-4.497,0.675-6.698c1.301-6.365,4.445-12.178,9.115-16.829l82.24-82.237c6.27-6.271,14.601-9.726,23.473-9.726
			c18.307,0.001,33.2,14.896,33.2,33.206c0.003,8.873-3.455,17.212-9.737,23.482c-4.295,4.288-5.583,10.741-3.264,16.35
			c2.32,5.608,7.791,9.267,13.86,9.267l60.371,0.002c8.871,0,17.208,3.453,23.478,9.725c6.27,6.269,9.722,14.605,9.722,23.472
			C482.001,264.879,478.547,273.217,472.275,279.489z"/>
	</g>
</g>
<g>
</g>
<g>
</g>
<g>
</g>
<g>
</g>
<g>
</g>
<g>
</g>
<g>
</g>
<g>
</g>
<g>
</g>
<g>
</g>
<g>
</g>
<g>
</g>
<g>
</g>
<g>
</g>
<g>
</g>
</svg>
