<?xml version="1.0" encoding="iso-8859-1"?>
<!-- Generator: Adobe Illustrator 19.0.0, SVG Export Plug-In . SVG Version: 6.00 Build 0)  -->
<svg version="1.1" id="Capa_1" xmlns="http://www.w3.org/2000/svg" xmlns:xlink="http://www.w3.org/1999/xlink" x="0px" y="0px"
	 viewBox="0 0 512 512" style="enable-background:new 0 0 512 512;" xml:space="preserve">
<g>
	<g>
		<path d="M437.02,74.98C388.668,26.629,324.381,0,256,0C187.62,0,123.333,26.628,74.981,74.98C26.629,123.333,0,187.62,0,256
			s26.629,132.667,74.981,181.02C123.333,485.372,187.62,512,256,512c68.381,0,132.668-26.629,181.02-74.98
			C485.371,388.668,512,324.38,512,256S485.371,123.332,437.02,74.98z M256,482C131.383,482,30,380.617,30,256S131.383,30,256,30
			s226,101.383,226,226S380.617,482,256,482z"/>
	</g>
</g>
<g>
	<g>
		<path d="M266.609,100.79C263.81,98,259.95,96.4,256,96.4s-7.82,1.6-10.61,4.39c-2.79,2.79-4.39,6.66-4.39,10.61
			c0,3.95,1.6,7.82,4.39,10.61c2.79,2.79,6.66,4.39,10.61,4.39s7.81-1.6,10.609-4.39c2.79-2.8,4.391-6.66,4.391-10.61
			C271,107.45,269.399,103.58,266.609,100.79z"/>
	</g>
</g>
<g>
	<g>
		<path d="M256,192.8c-8.284,0-15,6.716-15,15v192.801c0,8.284,6.716,15,15,15s15-6.716,15-15V207.8
			C271,199.516,264.284,192.8,256,192.8z"/>
	</g>
</g>
<g>
</g>
<g>
</g>
<g>
</g>
<g>
</g>
<g>
</g>
<g>
</g>
<g>
</g>
<g>
</g>
<g>
</g>
<g>
</g>
<g>
</g>
<g>
</g>
<g>
</g>
<g>
</g>
<g>
</g>
</svg>
