<?xml version="1.0" encoding="iso-8859-1"?>
<!-- Generator: Adobe Illustrator 19.0.0, SVG Export Plug-In . SVG Version: 6.00 Build 0)  -->
<svg version="1.1" id="Capa_1" xmlns="http://www.w3.org/2000/svg" xmlns:xlink="http://www.w3.org/1999/xlink" x="0px" y="0px"
	 viewBox="0 0 512 512" style="enable-background:new 0 0 512 512;" xml:space="preserve">
<g>
	<g>
		<path d="M497,0H47.133c-8.284,0-15,6.716-15,15v81.4H15c-8.284,0-15,6.716-15,15s6.716,15,15,15h17.133v66.4H15
			c-8.284,0-15,6.716-15,15s6.716,15,15,15h17.133v66.4H15c-8.284,0-15,6.716-15,15s6.716,15,15,15h17.133v66.4H15
			c-8.284,0-15,6.716-15,15s6.716,15,15,15h17.133V497c0,8.284,6.716,15,15,15H497c8.284,0,15-6.716,15-15V15
			C512,6.716,505.284,0,497,0z M482,482H62.133v-66.399h17.134c8.284,0,15-6.716,15-15s-6.716-15-15-15H62.133v-66.4h17.134
			c8.284,0,15-6.716,15-15s-6.716-15-15-15H62.133v-66.4h17.134c8.284,0,15-6.716,15-15s-6.716-15-15-15H62.133V126.4h17.134
			c8.284,0,15-6.716,15-15s-6.716-15-15-15H62.133V30H482V482z"/>
	</g>
</g>
<g>
	<g>
		<path d="M288.133,289.201c-61.426,0-111.398,49.974-111.398,111.4c-0.001,8.284,6.715,15,14.999,15h192.799
			c8.284,0,15-6.716,15-15C399.533,339.175,349.559,289.201,288.133,289.201z M208.119,385.6c7.06-37.744,40.253-66.4,80.014-66.4
			c39.762,0,72.956,28.656,80.016,66.4H208.119z"/>
	</g>
</g>
<g>
	<g>
		<path d="M288.133,96.401c-34.849,0-63.199,28.352-63.199,63.2c0,34.848,28.35,63.199,63.199,63.199
			c34.85,0,63.201-28.351,63.201-63.199C351.334,124.752,322.982,96.401,288.133,96.401z M288.133,192.799
			c-18.306,0-33.199-14.893-33.199-33.199c0-18.306,14.893-33.2,33.199-33.2c18.308,0,33.201,14.894,33.201,33.2
			C321.334,177.906,306.44,192.799,288.133,192.799z"/>
	</g>
</g>
<g>
</g>
<g>
</g>
<g>
</g>
<g>
</g>
<g>
</g>
<g>
</g>
<g>
</g>
<g>
</g>
<g>
</g>
<g>
</g>
<g>
</g>
<g>
</g>
<g>
</g>
<g>
</g>
<g>
</g>
</svg>
