<?xml version="1.0" encoding="iso-8859-1"?>
<!-- Generator: Adobe Illustrator 19.0.0, SVG Export Plug-In . SVG Version: 6.00 Build 0)  -->
<svg version="1.1" id="Capa_1" xmlns="http://www.w3.org/2000/svg" xmlns:xlink="http://www.w3.org/1999/xlink" x="0px" y="0px"
	 viewBox="0 0 512.002 512.002" style="enable-background:new 0 0 512.002 512.002;" xml:space="preserve">
<g>
	<g>
		<path d="M416.669,0.002L95.333,0.001C42.767,0.003,0,42.77,0,95.336v321.331c0,52.567,42.767,95.334,95.334,95.334h321.332h0.001
			c0.001,0,0.002,0,0.004,0c25.463,0,49.403-9.916,67.408-27.921c18.006-18.006,27.922-41.948,27.921-67.413l0.002-321.331
			C512,42.767,469.233,0.001,416.669,0.002z M482,416.668c0.001,17.452-6.795,33.859-19.135,46.199
			c-12.339,12.34-28.746,19.135-46.197,19.134c-0.001,0-0.001,0-0.001,0H95.334C59.309,482.001,30,452.692,30,416.667V95.336
			c0-36.024,29.309-65.334,65.334-65.335l321.336,0.002c36.023-0.001,65.33,29.308,65.332,65.333L482,416.668z"/>
	</g>
</g>
<g>
	<g>
		<path d="M411.208,245.395l-79.527-79.529c-5.857-5.857-15.354-5.858-21.213,0c-5.858,5.857-5.858,15.355,0,21.213l53.918,53.919
			l-160.011,0.003c-8.284,0-15,6.716-15,15s6.716,15,15,15l160.017-0.003l-53.923,53.923c-5.858,5.858-5.858,15.355,0,21.213
			c2.929,2.929,6.768,4.394,10.606,4.394c3.839,0,7.678-1.464,10.607-4.394l79.526-79.526
			C417.066,260.75,417.066,251.253,411.208,245.395z"/>
	</g>
</g>
<g>
	<g>
		<path d="M111.4,96.403c-8.284,0-15,6.716-15,15v289.2c0,8.284,6.716,15,15,15s15-6.716,15-15v-289.2
			C126.4,103.119,119.685,96.403,111.4,96.403z"/>
	</g>
</g>
<g>
</g>
<g>
</g>
<g>
</g>
<g>
</g>
<g>
</g>
<g>
</g>
<g>
</g>
<g>
</g>
<g>
</g>
<g>
</g>
<g>
</g>
<g>
</g>
<g>
</g>
<g>
</g>
<g>
</g>
</svg>
