<?xml version="1.0" encoding="iso-8859-1"?>
<!-- Generator: Adobe Illustrator 19.0.0, SVG Export Plug-In . SVG Version: 6.00 Build 0)  -->
<svg version="1.1" id="Capa_1" xmlns="http://www.w3.org/2000/svg" xmlns:xlink="http://www.w3.org/1999/xlink" x="0px" y="0px"
	 viewBox="0 0 512 512" style="enable-background:new 0 0 512 512;" xml:space="preserve">
<g>
	<g>
		<path d="M277.213,256l61.693-61.693c5.859-5.858,5.859-15.355,0-21.213l-72.3-72.3c-4.289-4.291-10.742-5.573-16.347-3.252
			c-5.605,2.322-9.26,7.792-9.26,13.858v108.387l-46.694-46.694c-5.857-5.858-15.355-5.858-21.213,0
			c-5.857,5.858-5.857,15.355,0,21.213L234.787,256l-61.694,61.694c-5.858,5.858-5.858,15.355,0,21.213
			c5.857,5.858,15.355,5.858,21.213,0L241,292.213V400.6c0,6.067,3.655,11.537,9.26,13.858c1.856,0.769,3.805,1.142,5.737,1.142
			c3.904,0,7.741-1.524,10.61-4.394l72.3-72.299c2.813-2.813,4.393-6.628,4.393-10.606c0-3.978-1.58-7.794-4.393-10.607L277.213,256
			z M271,147.614l36.087,36.087L271,219.787V147.614z M271,364.387v-72.173l36.087,36.087L271,364.387z"/>
	</g>
</g>
<g>
	<g>
		<path d="M416.666,0H95.333C42.766,0,0,42.767,0,95.334v321.332C0,469.233,42.766,512,95.333,512h321.333
			C469.233,512,512,469.233,512,416.666V95.334C512,42.767,469.233,0,416.666,0z M482,416.666C482,452.691,452.691,482,416.666,482
			H95.333C59.308,482,30,452.691,30,416.666V95.334C30,59.309,59.308,30,95.333,30h321.333C452.691,30,482,59.309,482,95.334
			V416.666z"/>
	</g>
</g>
<g>
</g>
<g>
</g>
<g>
</g>
<g>
</g>
<g>
</g>
<g>
</g>
<g>
</g>
<g>
</g>
<g>
</g>
<g>
</g>
<g>
</g>
<g>
</g>
<g>
</g>
<g>
</g>
<g>
</g>
</svg>
