<?xml version="1.0" encoding="iso-8859-1"?>
<!-- Generator: Adobe Illustrator 19.0.0, SVG Export Plug-In . SVG Version: 6.00 Build 0)  -->
<svg version="1.1" id="Capa_1" xmlns="http://www.w3.org/2000/svg" xmlns:xlink="http://www.w3.org/1999/xlink" x="0px" y="0px"
	 viewBox="0 0 512 512" style="enable-background:new 0 0 512 512;" xml:space="preserve">
<g>
	<g>
		<path d="M400.601,0H111.4C49.974,0,0,49.974,0,111.4s49.974,111.4,111.4,111.4h289.201C462.026,222.8,512,172.826,512,111.4
			S462.026,0,400.601,0z M111.4,192.799c-44.884,0-81.4-36.515-81.4-81.399C30,66.516,66.516,30,111.4,30
			c44.884,0,81.4,36.516,81.4,81.4C192.8,156.284,156.284,192.799,111.4,192.799z M400.601,192.799H187.366
			c21.788-20.347,35.434-49.307,35.434-81.399c0-32.093-13.646-61.054-35.435-81.4h213.236C445.484,30,482,66.516,482,111.4
			C482,156.284,445.484,192.799,400.601,192.799z"/>
	</g>
</g>
<g>
	<g>
		<path d="M400.601,289.2H111.4C49.974,289.2,0,339.174,0,400.601C0,462.026,49.974,512,111.4,512h289.201
			C462.026,512,512,462.026,512,400.601C512,339.174,462.026,289.2,400.601,289.2z M111.4,482C66.516,482,30,445.484,30,400.601
			c0-44.884,36.516-81.4,81.4-81.4h213.235c-21.788,20.347-35.435,49.308-35.435,81.4s13.646,61.053,35.435,81.399H111.4z
			 M400.601,482c-44.884,0-81.4-36.516-81.4-81.399c0-44.884,36.516-81.4,81.4-81.4c44.884,0,81.399,36.516,81.399,81.4
			C482,445.484,445.484,482,400.601,482z"/>
	</g>
</g>
<g>
</g>
<g>
</g>
<g>
</g>
<g>
</g>
<g>
</g>
<g>
</g>
<g>
</g>
<g>
</g>
<g>
</g>
<g>
</g>
<g>
</g>
<g>
</g>
<g>
</g>
<g>
</g>
<g>
</g>
</svg>
