<?xml version="1.0" encoding="iso-8859-1"?>
<!-- Generator: Adobe Illustrator 19.0.0, SVG Export Plug-In . SVG Version: 6.00 Build 0)  -->
<svg version="1.1" id="Capa_1" xmlns="http://www.w3.org/2000/svg" xmlns:xlink="http://www.w3.org/1999/xlink" x="0px" y="0px"
	 viewBox="0 0 512 512" style="enable-background:new 0 0 512 512;" xml:space="preserve">
<g>
	<g>
		<path d="M466.332,66.387c-29.501-29.502-68.726-45.749-110.449-45.749c-36.899,0-71.848,12.709-99.842,36.055
			c-27.995-23.346-62.943-36.055-99.842-36.055c-41.722,0-80.947,16.248-110.449,45.749C16.248,95.888,0,135.115,0,176.836
			s16.248,80.948,45.75,110.45c0.034,0.035,0.069,0.069,0.104,0.103l199.579,199.579c2.813,2.813,6.629,4.395,10.608,4.395
			s7.794-1.58,10.608-4.395l199.544-199.544c0.047-0.046,0.094-0.092,0.141-0.139c0.049-0.049,0.098-0.099,0.147-0.148
			C527.225,226.225,527.17,127.222,466.332,66.387z M445.165,266.019c-0.016,0.016-0.033,0.033-0.051,0.052
			c-0.008,0.008-0.017,0.016-0.025,0.024L256.041,455.144L66.993,266.096c-0.024-0.024-0.05-0.05-0.079-0.078
			c-23.802-23.829-36.909-55.498-36.909-89.181c0-33.708,13.126-65.398,36.962-89.233c23.835-23.835,55.525-36.961,89.232-36.961
			c33.708,0,65.398,13.126,89.233,36.961c5.859,5.858,15.357,5.858,21.216,0c23.836-23.835,55.526-36.961,89.233-36.961
			c33.708,0,65.397,13.126,89.232,36.961C494.291,136.777,494.314,216.814,445.165,266.019z"/>
	</g>
</g>
<g>
</g>
<g>
</g>
<g>
</g>
<g>
</g>
<g>
</g>
<g>
</g>
<g>
</g>
<g>
</g>
<g>
</g>
<g>
</g>
<g>
</g>
<g>
</g>
<g>
</g>
<g>
</g>
<g>
</g>
</svg>
