<?xml version="1.0" encoding="iso-8859-1"?>
<!-- Generator: Adobe Illustrator 19.0.0, SVG Export Plug-In . SVG Version: 6.00 Build 0)  -->
<svg version="1.1" id="Capa_1" xmlns="http://www.w3.org/2000/svg" xmlns:xlink="http://www.w3.org/1999/xlink" x="0px" y="0px"
	 viewBox="0 0 511.999 511.999" style="enable-background:new 0 0 511.999 511.999;" xml:space="preserve">
<g>
	<g>
		<path d="M400.6,144.601c-15.927,0-30.485,5.935-41.612,15.692c-10.922-18.959-31.382-31.759-54.789-31.759
			c-12.171,0-23.544,3.467-33.199,9.453V63.2C271,28.351,242.648,0,207.799,0C172.951,0,144.6,28.352,144.6,63.2v90.854
			c-9.655-5.986-21.029-9.454-33.201-9.454c-34.848,0-63.199,28.351-63.199,63.199v96.4c0,114.581,93.219,207.8,207.8,207.8
			c114.581,0.001,207.8-93.218,207.8-207.799v-96.4C463.799,172.952,435.448,144.601,400.6,144.601z M256,482
			c-98.04,0-177.8-79.761-177.8-177.8v-96.4c0-18.306,14.893-33.199,33.199-33.199c18.307,0,33.201,14.893,33.201,33.199V256
			c0,8.284,6.716,15,15,15s15-6.716,15-15V63.2c0-18.307,14.893-33.2,33.199-33.2c18.307,0,33.201,14.894,33.201,33.2v128.533
			c0,8.284,6.716,15,15,15c8.284,0,15-6.716,15-15c0-18.307,14.893-33.2,33.199-33.2c18.306,0,33.199,14.894,33.199,33.2
			c0,1.837,0.347,3.59,0.951,5.217c-0.613,3.528-0.951,7.149-0.951,10.85c0,8.284,6.716,15,15,15s15-6.716,15-15
			c0-18.306,14.894-33.199,33.201-33.199c18.306,0,33.199,14.893,33.199,33.199v96.4h0.001C433.799,402.239,354.039,482,256,482z"/>
	</g>
</g>
<g>
</g>
<g>
</g>
<g>
</g>
<g>
</g>
<g>
</g>
<g>
</g>
<g>
</g>
<g>
</g>
<g>
</g>
<g>
</g>
<g>
</g>
<g>
</g>
<g>
</g>
<g>
</g>
<g>
</g>
</svg>
