<?xml version="1.0" encoding="iso-8859-1"?>
<!-- Generator: Adobe Illustrator 19.0.0, SVG Export Plug-In . SVG Version: 6.00 Build 0)  -->
<svg version="1.1" id="Capa_1" xmlns="http://www.w3.org/2000/svg" xmlns:xlink="http://www.w3.org/1999/xlink" x="0px" y="0px"
	 viewBox="0 0 512 512" style="enable-background:new 0 0 512 512;" xml:space="preserve">
<g>
	<g>
		<path d="M437.019,74.98C388.667,26.628,324.38,0,256,0C187.619,0,123.332,26.628,74.98,74.98C26.629,123.331,0,187.619,0,256
			c0,68.38,26.629,132.667,74.98,181.019C123.332,485.371,187.62,512,256,512s132.667-26.629,181.019-74.981
			C485.371,388.667,512,324.379,512,256C512,187.619,485.371,123.332,437.019,74.98z M256,482C131.383,482,30,380.617,30,256
			S131.383,30,256,30s226,101.383,226,226S380.617,482,256,482z"/>
	</g>
</g>
<g>
	<g>
		<path d="M392.033,243.01L199.232,131.697c-4.641-2.68-10.359-2.68-15,0c-4.641,2.679-7.5,7.631-7.5,12.99v222.621
			c0,5.359,2.859,10.311,7.5,12.99c2.32,1.34,4.91,2.01,7.5,2.01c2.59,0,5.18-0.67,7.5-2.009L392.033,268.99
			c4.641-2.68,7.5-7.632,7.5-12.991C399.533,250.641,396.674,245.689,392.033,243.01z M206.732,341.329V170.668L354.532,256
			L206.732,341.329z"/>
	</g>
</g>
<g>
</g>
<g>
</g>
<g>
</g>
<g>
</g>
<g>
</g>
<g>
</g>
<g>
</g>
<g>
</g>
<g>
</g>
<g>
</g>
<g>
</g>
<g>
</g>
<g>
</g>
<g>
</g>
<g>
</g>
</svg>
