<?xml version="1.0" encoding="iso-8859-1"?>
<!-- Generator: Adobe Illustrator 19.0.0, SVG Export Plug-In . SVG Version: 6.00 Build 0)  -->
<svg version="1.1" id="Capa_1" xmlns="http://www.w3.org/2000/svg" xmlns:xlink="http://www.w3.org/1999/xlink" x="0px" y="0px"
	 viewBox="0 0 512 512" style="enable-background:new 0 0 512 512;" xml:space="preserve">
<g>
	<g>
		<path d="M472.938,303.54c-25.033-59.184-60.867-112.334-106.506-157.973C320.793,99.928,267.644,64.095,208.46,39.062
			C147.177,13.143,82.088,0,15,0C6.716,0,0,6.716,0,15v96.4c0,8.284,6.716,15,15,15c204.349,0,370.6,166.25,370.6,370.6
			c0,8.284,6.716,15,15,15H497c8.284,0,15-6.716,15-15C512,429.912,498.857,364.823,472.938,303.54z M415.326,482
			c-1.779-48.778-12.258-96.118-31.214-140.936c-20.178-47.705-49.06-90.545-85.846-127.331
			c-36.785-36.786-79.626-65.669-127.331-85.846C126.118,108.931,78.778,98.454,30,96.673V30.237
			C275.622,38.019,473.981,236.378,481.763,482H415.326z"/>
	</g>
</g>
<g>
	<g>
		<path d="M230.101,281.897C172.646,224.441,96.254,192.799,15,192.799c-8.284,0-15,6.716-15,15v96.4c0,8.284,6.716,15,15,15
			c98.039,0,177.8,79.761,177.8,177.801c0,8.284,6.716,15,15,15h96.399c8.284,0,15-6.716,15-15
			C319.199,415.745,287.556,339.354,230.101,281.897z M222.264,482C214.909,379.345,132.655,297.09,30,289.735v-66.531
			C169.287,230.745,281.253,342.712,288.794,482H222.264z"/>
	</g>
</g>
<g>
	<g>
		<path d="M15,385.6c-8.284,0-15,6.716-15,15V497c0,8.284,6.716,15,15,15h96.4c8.284,0,15-6.716,15-15
			C126.4,435.574,76.426,385.6,15,385.6z M30,482v-65.015c32.881,6.15,58.865,32.134,65.015,65.015H30z"/>
	</g>
</g>
<g>
</g>
<g>
</g>
<g>
</g>
<g>
</g>
<g>
</g>
<g>
</g>
<g>
</g>
<g>
</g>
<g>
</g>
<g>
</g>
<g>
</g>
<g>
</g>
<g>
</g>
<g>
</g>
<g>
</g>
</svg>
