<?xml version="1.0" encoding="iso-8859-1"?>
<!-- Generator: Adobe Illustrator 19.0.0, SVG Export Plug-In . SVG Version: 6.00 Build 0)  -->
<svg version="1.1" id="Capa_1" xmlns="http://www.w3.org/2000/svg" xmlns:xlink="http://www.w3.org/1999/xlink" x="0px" y="0px"
	 viewBox="0 0 512 512" style="enable-background:new 0 0 512 512;" xml:space="preserve">
<g>
	<g>
		<path d="M484.078,27.923C466.071,9.918,442.131,0.002,416.666,0.002L95.333,0C42.765,0.003-0.001,42.77,0.002,95.334L0,416.668
			C0.002,469.234,42.769,512,95.334,512h321.332C469.233,512,512,469.234,512,416.667V95.336
			C512.001,69.87,502.085,45.929,484.078,27.923z M482,416.667L482,416.667C482,452.692,452.691,482,416.666,482H95.334
			C59.31,482,30.001,452.691,30,416.667l0.002-321.334C30,59.31,59.309,30.002,95.334,30l321.332,0.002
			c17.452,0,33.859,6.795,46.199,19.134c12.34,12.34,19.136,28.746,19.135,46.198V416.667z"/>
	</g>
</g>
<g>
	<g>
		<path d="M346.132,180.317l-79.527-79.525c-2.813-2.813-6.628-4.393-10.606-4.393c-3.979,0-7.794,1.581-10.607,4.394l-79.527,79.53
			c-5.858,5.858-5.858,15.355,0,21.213c2.928,2.93,6.767,4.394,10.606,4.394s7.678-1.465,10.607-4.394l53.918-53.92l0.002,160.01
			c0,8.285,6.716,15,15,15s15-6.716,15-15l-0.002-160.017l53.923,53.922c5.857,5.857,15.355,5.858,21.213-0.001
			C351.99,195.672,351.99,186.175,346.132,180.317z"/>
	</g>
</g>
<g>
	<g>
		<path d="M400.602,385.601h-289.2c-8.284,0-15,6.716-15,15s6.716,15,15,15h289.2c8.284,0,15-6.716,15-15
			C415.602,392.316,408.886,385.601,400.602,385.601z"/>
	</g>
</g>
<g>
</g>
<g>
</g>
<g>
</g>
<g>
</g>
<g>
</g>
<g>
</g>
<g>
</g>
<g>
</g>
<g>
</g>
<g>
</g>
<g>
</g>
<g>
</g>
<g>
</g>
<g>
</g>
<g>
</g>
</svg>
