<?xml version="1.0" encoding="iso-8859-1"?>
<!-- Generator: Adobe Illustrator 19.0.0, SVG Export Plug-In . SVG Version: 6.00 Build 0)  -->
<svg version="1.1" id="Capa_1" xmlns="http://www.w3.org/2000/svg" xmlns:xlink="http://www.w3.org/1999/xlink" x="0px" y="0px"
	 viewBox="0 0 512 512" style="enable-background:new 0 0 512 512;" xml:space="preserve">
<g>
	<g>
		<path d="M465.254,46.747C435.109,16.601,395.03,0,352.4,0s-82.709,16.602-112.854,46.747l-62.486,62.486
			c-11.56,11.563-21.192,24.71-28.697,39.129c-14.424,7.508-27.572,17.141-39.132,28.7l-62.484,62.484
			C16.601,269.691-0.001,309.77,0,352.401c0,42.63,16.602,82.708,46.746,112.852c30.141,30.141,70.219,46.742,112.851,46.746
			c0.005,0,0.009,0,0.014,0c42.621,0,82.696-16.601,112.84-46.746l62.487-62.486c11.557-11.558,21.189-24.704,28.697-39.128
			c14.426-7.509,27.574-17.142,39.134-28.702l62.484-62.484c30.146-30.144,46.748-70.224,46.747-112.854
			C512,116.969,495.398,76.891,465.254,46.747z M313.725,381.554l-62.486,62.486c-24.48,24.479-57.017,37.96-91.627,37.958
			c-0.002,0-0.01,0-0.012,0c-34.62-0.003-67.166-13.483-91.641-37.958C43.481,419.562,30,387.017,30,352.4
			c-0.001-34.617,13.48-67.163,37.959-91.641l62.484-62.483c10.392-10.391,22.355-18.871,35.555-25.205
			c17.357-8.33,36.764-12.732,56.122-12.732c19.257,0,38.566,4.36,55.836,12.609c13.261,6.334,25.296,14.856,35.769,25.327
			c7.984,7.985,14.831,16.872,20.438,26.514l-11.795,11.795l-8.811,8.811c-0.994,0.994-2.045,1.909-3.138,2.759
			c-5.795,4.511-12.877,6.964-20.339,6.964c-1.328,0-2.641-0.087-3.94-0.239c-6.29-0.74-12.183-3.237-17.087-7.266
			c-0.006-0.005-0.013-0.011-0.019-0.017c-0.415-0.341-0.823-0.694-1.224-1.057c-0.057-0.051-0.11-0.107-0.167-0.159
			c-0.35-0.322-0.697-0.648-1.035-0.986l-0.001-0.001c-0.065-0.064-0.13-0.129-0.196-0.192c-0.239-0.237-0.49-0.458-0.732-0.691
			c-0.489-0.471-0.977-0.944-1.478-1.398c-0.308-0.277-0.626-0.539-0.938-0.81c-0.471-0.409-0.939-0.824-1.42-1.218
			c-0.356-0.291-0.723-0.564-1.084-0.847c-0.452-0.354-0.899-0.714-1.359-1.055c-0.405-0.3-0.823-0.581-1.234-0.871
			c-0.429-0.301-0.852-0.611-1.288-0.902c-0.456-0.304-0.923-0.587-1.386-0.878c-0.404-0.255-0.803-0.519-1.212-0.764
			c-0.506-0.303-1.024-0.584-1.538-0.872c-0.378-0.212-0.75-0.434-1.131-0.638c-0.56-0.298-1.13-0.574-1.698-0.855
			c-0.347-0.171-0.688-0.354-1.038-0.52c-0.613-0.289-1.235-0.554-1.857-0.823c-0.315-0.136-0.625-0.284-0.942-0.415
			c-0.669-0.276-1.347-0.528-2.025-0.781c-0.278-0.104-0.552-0.219-0.832-0.319c-0.723-0.258-1.456-0.491-2.188-0.722
			c-0.243-0.077-0.481-0.164-0.725-0.238c-0.79-0.239-1.589-0.453-2.39-0.661c-0.191-0.049-0.379-0.109-0.571-0.157
			c-0.867-0.216-1.741-0.407-2.618-0.587c-0.131-0.027-0.259-0.061-0.39-0.087c-0.986-0.195-1.98-0.366-2.978-0.515
			c-0.024-0.003-0.046-0.009-0.07-0.012c-3.074-0.454-6.203-0.686-9.368-0.686c-16.883,0-32.754,6.574-44.69,18.512l-62.316,62.317
			c-11.938,11.939-18.512,27.81-18.512,44.691c0,16.881,6.574,32.752,18.51,44.688c11.938,11.939,27.81,18.513,44.691,18.512
			c16.881-0.001,32.751-6.575,44.687-18.51l26.674-26.673c0.593,0.235,1.191,0.456,1.787,0.683c0.3,0.114,0.599,0.23,0.899,0.343
			c1.21,0.454,2.425,0.893,3.646,1.317c0.088,0.031,0.175,0.064,0.263,0.094c2.756,0.952,5.54,1.827,8.348,2.628
			c0.093,0.026,0.186,0.051,0.279,0.078c1.28,0.363,2.564,0.708,3.853,1.04c0.188,0.048,0.377,0.095,0.566,0.142
			c1.233,0.312,2.47,0.609,3.71,0.893c0.166,0.038,0.331,0.076,0.497,0.113c1.367,0.308,2.738,0.599,4.114,0.871
			c0.009,0.001,0.019,0.003,0.028,0.005c10.194,2.012,20.586,3.05,30.965,3.05c8.614-0.001,17.238-0.71,25.747-2.101
			C315.024,380.24,314.378,380.9,313.725,381.554z M309.008,156.041l19.919-19.918c6.27-6.27,14.607-9.724,23.476-9.724
			c8.868,0,17.204,3.453,23.475,9.725c6.271,6.27,9.725,14.606,9.725,23.474s-3.454,17.205-9.725,23.476l-19.919,19.917
			c-6.052-9.309-13.08-17.986-21.022-25.93C326.996,169.122,318.319,162.095,309.008,156.041z M202.993,355.959l-19.919,19.918
			c-6.27,6.27-14.607,9.723-23.476,9.723c-8.867,0.001-17.204-3.453-23.476-9.725c-6.271-6.27-9.724-14.607-9.724-23.474
			c0-8.869,3.454-17.206,9.726-23.478l19.916-19.917c6.054,9.314,13.082,17.991,21.022,25.933
			C185.004,342.88,193.682,349.906,202.993,355.959z M444.041,251.24l-62.484,62.484c-10.391,10.39-22.353,18.87-35.554,25.205
			c-17.357,8.329-36.763,12.731-56.119,12.731c-19.259-0.001-38.569-4.361-55.843-12.61c-13.257-6.332-25.291-14.853-35.767-25.326
			c-7.98-7.98-14.827-16.868-20.436-26.514l20.602-20.604c6.271-6.271,14.608-9.724,23.477-9.724c5.496,0,10.787,1.329,15.509,3.83
			c0.029,0.016,0.06,0.029,0.088,0.044c0.382,0.204,0.757,0.421,1.131,0.64c0.092,0.054,0.187,0.104,0.279,0.159
			c0.299,0.179,0.591,0.371,0.885,0.559c0.163,0.105,0.33,0.204,0.491,0.311c0.22,0.147,0.433,0.305,0.649,0.457
			c0.229,0.161,0.461,0.317,0.687,0.484c0.146,0.108,0.288,0.226,0.432,0.337c0.29,0.222,0.581,0.442,0.863,0.674
			c0.077,0.063,0.15,0.131,0.227,0.195c0.346,0.29,0.69,0.582,1.026,0.887c0.007,0.006,0.014,0.014,0.021,0.02
			c0.4,0.364,0.794,0.738,1.179,1.123c0.068,0.068,0.136,0.135,0.206,0.202c0.365,0.362,0.745,0.703,1.117,1.055
			c0.368,0.348,0.729,0.705,1.104,1.043c0.376,0.339,0.765,0.659,1.147,0.988c0.407,0.35,0.809,0.709,1.223,1.048
			c0.365,0.298,0.742,0.577,1.112,0.867c0.446,0.348,0.887,0.705,1.341,1.04c0.354,0.262,0.72,0.504,1.078,0.758
			c0.483,0.341,0.961,0.69,1.452,1.017c0.345,0.229,0.7,0.441,1.048,0.663c0.517,0.33,1.031,0.666,1.557,0.98
			c0.333,0.199,0.676,0.38,1.013,0.573c0.552,0.315,1.1,0.637,1.661,0.935c0.326,0.174,0.661,0.33,0.99,0.498
			c0.581,0.296,1.16,0.598,1.749,0.875c0.322,0.152,0.652,0.286,0.977,0.432c0.605,0.272,1.208,0.55,1.823,0.803
			c0.322,0.133,0.65,0.248,0.975,0.375c0.625,0.246,1.249,0.496,1.882,0.721c0.331,0.118,0.669,0.218,1.002,0.33
			c0.634,0.214,1.265,0.432,1.906,0.626c0.362,0.109,0.731,0.199,1.096,0.302c0.619,0.174,1.236,0.355,1.861,0.511
			c0.412,0.102,0.83,0.184,1.244,0.278c0.585,0.133,1.167,0.275,1.757,0.391c0.504,0.1,1.014,0.175,1.521,0.263
			c0.507,0.087,1.01,0.186,1.52,0.261c0.643,0.095,1.293,0.163,1.941,0.238c0.38,0.044,0.756,0.102,1.137,0.139
			c2.066,0.202,4.154,0.304,6.257,0.304c16.882,0,32.753-6.575,44.688-18.512l28.423-28.421c0.005-0.005,0.01-0.012,0.016-0.017
			l33.881-33.88c11.938-11.938,18.512-27.809,18.512-44.69c0-16.881-6.575-32.751-18.511-44.687
			c-11.936-11.938-27.807-18.512-44.689-18.512c-16.882,0-32.753,6.574-44.689,18.511l-26.674,26.673
			c-0.533-0.211-1.072-0.409-1.608-0.615c-0.392-0.15-0.782-0.302-1.175-0.449c-1.067-0.399-2.14-0.786-3.217-1.163
			c-0.227-0.079-0.451-0.163-0.678-0.241c-2.697-0.93-5.421-1.787-8.168-2.572c-0.218-0.063-0.438-0.121-0.656-0.183
			c-1.146-0.322-2.294-0.633-3.448-0.93c-0.29-0.075-0.58-0.146-0.871-0.22c-1.118-0.282-2.239-0.551-3.363-0.809
			c-0.265-0.061-0.53-0.122-0.795-0.181c-1.237-0.277-2.478-0.54-3.722-0.788c-0.131-0.026-0.262-0.054-0.393-0.08
			c-5.761-1.133-11.585-1.949-17.435-2.447c-0.047-0.004-0.095-0.008-0.142-0.012c-4.42-0.372-8.854-0.571-13.286-0.571
			c-8.614,0-17.237,0.709-25.747,2.1c0.639-0.667,1.286-1.327,1.939-1.982l62.484-62.484c24.479-24.479,57.024-37.96,91.641-37.96
			c34.616,0,67.162,13.481,91.641,37.96C468.519,92.439,482,124.983,482,159.599C482.001,194.216,468.52,226.761,444.041,251.24z"/>
	</g>
</g>
<g>
</g>
<g>
</g>
<g>
</g>
<g>
</g>
<g>
</g>
<g>
</g>
<g>
</g>
<g>
</g>
<g>
</g>
<g>
</g>
<g>
</g>
<g>
</g>
<g>
</g>
<g>
</g>
<g>
</g>
</svg>
