<?xml version="1.0" encoding="iso-8859-1"?>
<!-- Generator: Adobe Illustrator 19.0.0, SVG Export Plug-In . SVG Version: 6.00 Build 0)  -->
<svg version="1.1" id="Capa_1" xmlns="http://www.w3.org/2000/svg" xmlns:xlink="http://www.w3.org/1999/xlink" x="0px" y="0px"
	 viewBox="0 0 512 512" style="enable-background:new 0 0 512 512;" xml:space="preserve">
<g>
	<g>
		<path d="M497,96.4h-89.433V15c0-8.284-6.716-15-15-15H119.434c-8.284,0-15,6.716-15,15v81.4H15c-8.284,0-15,6.716-15,15v289.2
			c0,8.284,6.716,15,15,15h89.434V497c0,8.284,6.716,15,15,15h273.134c8.284,0,15-6.716,15-15v-81.4H497c8.284,0,15-6.716,15-15
			V111.4C512,103.116,505.284,96.4,497,96.4z M134.434,111.439c0-0.013,0.002-0.025,0.002-0.039c0-0.013-0.002-0.025-0.002-0.039V30
			h243.133v162.799H134.434V111.439z M377.568,482L377.568,482H134.434v-66.4h243.134V482z M482,385.6h-89.433H119.434H30v-66.4h452
			V385.6z M482,289.199H30V126.4h74.434v81.398c0,8.284,6.716,15,15,15h273.134c8.284,0,15-6.716,15-15V126.4H482V289.199z"/>
	</g>
</g>
<g>
</g>
<g>
</g>
<g>
</g>
<g>
</g>
<g>
</g>
<g>
</g>
<g>
</g>
<g>
</g>
<g>
</g>
<g>
</g>
<g>
</g>
<g>
</g>
<g>
</g>
<g>
</g>
<g>
</g>
</svg>
