<?xml version="1.0" encoding="iso-8859-1"?>
<!-- Generator: Adobe Illustrator 19.0.0, SVG Export Plug-In . SVG Version: 6.00 Build 0)  -->
<svg version="1.1" id="Capa_1" xmlns="http://www.w3.org/2000/svg" xmlns:xlink="http://www.w3.org/1999/xlink" x="0px" y="0px"
	 viewBox="0 0 512 512" style="enable-background:new 0 0 512 512;" xml:space="preserve">
<g>
	<g>
		<path d="M507.606,245.394l-32.111-32.111c-0.015-0.015-0.031-0.031-0.046-0.046L266.606,4.394C263.793,1.581,259.978,0,256,0
			c-3.979,0-7.794,1.581-10.606,4.394L36.55,213.237c-0.015,0.015-0.03,0.03-0.045,0.045L4.394,245.394
			c-5.858,5.858-5.858,15.355,0,21.213c5.858,5.858,15.355,5.858,21.213,0l6.526-6.526V497c0,8.284,6.716,15,15,15h160.668h96.398
			h160.668c8.284,0,15-6.716,15-15V260.08l6.526,6.526c2.929,2.93,6.768,4.394,10.607,4.394s7.678-1.464,10.606-4.394
			C513.464,260.749,513.464,251.252,507.606,245.394z M289.199,482h-66.398V351.332h66.398V482z M449.867,482H319.199V336.332
			c0-8.284-6.716-15-15-15h-96.398c-8.284,0-15,6.716-15,15V482H62.133V230.08L256,36.213L449.867,230.08V482z"/>
	</g>
</g>
<g>
</g>
<g>
</g>
<g>
</g>
<g>
</g>
<g>
</g>
<g>
</g>
<g>
</g>
<g>
</g>
<g>
</g>
<g>
</g>
<g>
</g>
<g>
</g>
<g>
</g>
<g>
</g>
<g>
</g>
</svg>
