<?xml version="1.0" encoding="iso-8859-1"?>
<!-- Generator: Adobe Illustrator 19.0.0, SVG Export Plug-In . SVG Version: 6.00 Build 0)  -->
<svg version="1.1" id="Capa_1" xmlns="http://www.w3.org/2000/svg" xmlns:xlink="http://www.w3.org/1999/xlink" x="0px" y="0px"
	 viewBox="0 0 512 512" style="enable-background:new 0 0 512 512;" xml:space="preserve">
<g>
	<g>
		<path d="M437.019,74.981C388.667,26.629,324.38,0,256,0S123.332,26.629,74.98,74.981C26.629,123.333,0,187.62,0,256
			s26.629,132.668,74.98,181.02C123.332,485.371,187.619,512,256,512c8.284,0,15-6.716,15-15s-6.716-15-15-15
			C131.383,482,30,380.617,30,256S131.383,30,256,30s226,101.383,226,226v60.25c0,24.951-20.299,45.25-45.25,45.25
			s-45.25-20.299-45.25-45.25V256c0-74.715-60.785-135.5-135.5-135.5S120.5,181.285,120.5,256S181.285,391.5,256,391.5
			c44.316,0,83.73-21.386,108.468-54.377c9.072,31.367,38.031,54.377,72.282,54.377c41.493,0,75.25-33.757,75.25-75.25V256
			C512,187.621,485.371,123.334,437.019,74.981z M256,361.5c-58.173,0-105.5-47.327-105.5-105.5c0-58.173,47.327-105.5,105.5-105.5
			c58.173,0,105.5,47.327,105.5,105.5C361.5,314.173,314.173,361.5,256,361.5z"/>
	</g>
</g>
<g>
</g>
<g>
</g>
<g>
</g>
<g>
</g>
<g>
</g>
<g>
</g>
<g>
</g>
<g>
</g>
<g>
</g>
<g>
</g>
<g>
</g>
<g>
</g>
<g>
</g>
<g>
</g>
<g>
</g>
</svg>
