<?xml version="1.0" encoding="iso-8859-1"?>
<!-- Generator: Adobe Illustrator 19.0.0, SVG Export Plug-In . SVG Version: 6.00 Build 0)  -->
<svg version="1.1" id="Capa_1" xmlns="http://www.w3.org/2000/svg" xmlns:xlink="http://www.w3.org/1999/xlink" x="0px" y="0px"
	 viewBox="0 0 512 512" style="enable-background:new 0 0 512 512;" xml:space="preserve">
<g>
	<g>
		<path d="M256.001,0c-61.427,0-111.4,49.974-111.4,111.399c0,61.427,49.974,111.401,111.4,111.401s111.398-49.974,111.398-111.4
			C367.4,49.974,317.427,0,256.001,0z M256.001,192.799c-44.885,0-81.4-36.516-81.4-81.4c0-44.883,36.516-81.399,81.4-81.399
			c44.883,0,81.398,36.516,81.398,81.399C337.399,156.283,300.883,192.799,256.001,192.799z"/>
	</g>
</g>
<g>
	<g>
		<path d="M256.001,289.2C141.419,289.2,48.2,382.419,48.2,497c0,8.284,6.716,15,15,15h385.6c8.284,0,15-6.716,15-15
			C463.8,382.419,370.582,289.2,256.001,289.2z M78.827,482c7.64-91.048,84.185-162.8,177.175-162.8
			c92.988,0,169.532,71.752,177.172,162.8H78.827z"/>
	</g>
</g>
<g>
</g>
<g>
</g>
<g>
</g>
<g>
</g>
<g>
</g>
<g>
</g>
<g>
</g>
<g>
</g>
<g>
</g>
<g>
</g>
<g>
</g>
<g>
</g>
<g>
</g>
<g>
</g>
<g>
</g>
</svg>
