<?xml version="1.0" encoding="iso-8859-1"?>
<!-- Generator: Adobe Illustrator 19.0.0, SVG Export Plug-In . SVG Version: 6.00 Build 0)  -->
<svg version="1.1" id="Capa_1" xmlns="http://www.w3.org/2000/svg" xmlns:xlink="http://www.w3.org/1999/xlink" x="0px" y="0px"
	 viewBox="0 0 512 512" style="enable-background:new 0 0 512 512;" xml:space="preserve">
<g>
	<g>
		<path d="M497,0H15C6.716,0,0,6.716,0,15v305.267V400.6V497c0,8.284,6.716,15,15,15h482c8.284,0,15-6.716,15-15v-96.4v-80.333V15
			C512,6.716,505.284,0,497,0z M482,482H30v-66.4h452V482z M482,385.6H30v-60.636L160.052,137.69l132.425,190.542
			c4.245,6.109,12.331,8.182,18.992,4.873l89.11-44.278L482,329.537V385.6z M482,295.996l-74.692-37.346
			c-4.211-2.105-9.166-2.111-13.383-0.017l-84.206,41.842L172.364,102.839c-2.804-4.035-7.406-6.44-12.32-6.439
			c-4.913,0.001-9.515,2.408-12.317,6.444L30,272.37V30h452V295.996z"/>
	</g>
</g>
<g>
	<g>
		<path d="M368.466,80.333c-34.849,0-63.199,28.352-63.199,63.2c0,34.848,28.35,63.2,63.199,63.2c34.85,0,63.201-28.352,63.201-63.2
			C431.667,108.685,403.315,80.333,368.466,80.333z M368.466,176.733c-18.306,0-33.199-14.894-33.199-33.2
			c0-18.306,14.893-33.2,33.199-33.2c18.308,0,33.201,14.894,33.201,33.2C401.667,161.839,386.773,176.733,368.466,176.733z"/>
	</g>
</g>
<g>
</g>
<g>
</g>
<g>
</g>
<g>
</g>
<g>
</g>
<g>
</g>
<g>
</g>
<g>
</g>
<g>
</g>
<g>
</g>
<g>
</g>
<g>
</g>
<g>
</g>
<g>
</g>
<g>
</g>
</svg>
