<?xml version="1.0" encoding="iso-8859-1"?>
<!-- Generator: Adobe Illustrator 19.0.0, SVG Export Plug-In . SVG Version: 6.00 Build 0)  -->
<svg version="1.1" id="Capa_1" xmlns="http://www.w3.org/2000/svg" xmlns:xlink="http://www.w3.org/1999/xlink" x="0px" y="0px"
	 viewBox="0 0 512 512" style="enable-background:new 0 0 512 512;" xml:space="preserve">
<g>
	<g>
		<path d="M479.823,495.711L463.783,14.5C463.514,6.415,456.881,0,448.791,0H63.19C55.1,0,48.468,6.415,48.198,14.5l-16.067,482
			c-0.135,4.062,1.384,8.006,4.21,10.928C39.168,510.35,43.059,512,47.123,512h417.734c0.008,0,0.016,0,0.02,0
			c8.285,0,15-6.716,15-15C479.877,496.565,479.859,496.136,479.823,495.711z M62.632,482L77.699,30h356.584l15.066,452H62.632z"/>
	</g>
</g>
<g>
	<g>
		<path d="M352.391,96.399c-8.284,0-15,6.716-15,15c0,44.884-36.516,81.4-81.4,81.4c-44.884,0-81.4-36.516-81.4-81.4
			c0-8.284-6.716-15-15-15s-15,6.716-15,15c0,61.426,49.974,111.4,111.4,111.4c61.427,0,111.4-49.974,111.4-111.4
			C367.391,103.115,360.675,96.399,352.391,96.399z"/>
	</g>
</g>
<g>
</g>
<g>
</g>
<g>
</g>
<g>
</g>
<g>
</g>
<g>
</g>
<g>
</g>
<g>
</g>
<g>
</g>
<g>
</g>
<g>
</g>
<g>
</g>
<g>
</g>
<g>
</g>
<g>
</g>
</svg>
