<?xml version="1.0" encoding="iso-8859-1"?>
<!-- Generator: Adobe Illustrator 19.0.0, SVG Export Plug-In . SVG Version: 6.00 Build 0)  -->
<svg version="1.1" id="Capa_1" xmlns="http://www.w3.org/2000/svg" xmlns:xlink="http://www.w3.org/1999/xlink" x="0px" y="0px"
	 viewBox="0 0 512.003 512.003" style="enable-background:new 0 0 512.003 512.003;" xml:space="preserve">
<g>
	<g>
		<path d="M511.998,63.327c0.026-12.477-3.578-24.549-10.418-34.905c-2.344-3.554-5.067-6.89-8.092-9.912
			C481.554,6.575,465.687,0.004,448.811,0.004h-116.38c-16.88,0-32.751,6.575-44.688,18.512
			c-11.937,11.936-18.51,27.805-18.51,44.686c0,16.882,6.574,32.752,18.509,44.683c4.647,4.65,9.892,8.486,15.562,11.437
			l-24.161,24.16c-11.938,11.94-18.511,27.812-18.51,44.69c0,16.881,6.574,32.752,18.511,44.689
			c11.938,11.938,27.808,18.512,44.687,18.51c16.901,0,32.785-6.587,44.715-18.539l24.124-24.121
			c2.952,5.674,6.79,10.923,11.444,15.576c11.936,11.936,27.807,18.509,44.688,18.509c16.882,0,32.753-6.573,44.687-18.505
			c11.939-11.931,18.515-27.804,18.515-44.695L511.998,63.327z M472.277,203.071c-6.272,6.27-14.609,9.723-23.479,9.723
			c-8.868,0-17.205-3.453-23.477-9.724c-6.276-6.275-9.729-14.618-9.722-23.492c0.005-6.069-3.647-11.544-9.253-13.869
			c-5.606-2.324-12.06-1.044-16.352,3.248l-42.674,42.668c-6.271,6.283-14.615,9.744-23.493,9.744h-0.001
			c-8.866,0.001-17.201-3.453-23.472-9.723c-6.272-6.271-9.725-14.608-9.725-23.477c-0.001-8.867,3.453-17.204,9.724-23.476
			l42.687-42.683c4.289-4.289,5.573-10.739,3.253-16.344c-2.32-5.604-7.787-9.26-13.854-9.263
			c-8.877-0.003-17.216-3.457-23.485-9.73c-6.271-6.269-9.724-14.604-9.724-23.472c0-8.867,3.453-17.203,9.723-23.473
			c6.271-6.271,14.609-9.726,23.509-9.726l116.235,0.001c0.012,0,0.1,0,0.111,0c8.863,0,17.196,3.452,23.468,9.723
			c1.596,1.595,3.029,3.349,4.264,5.221c3.583,5.425,5.47,11.759,5.456,18.348l0.002,116.299
			C482,188.468,478.548,196.804,472.277,203.071z"/>
	</g>
</g>
<g>
	<g>
		<path d="M208.697,392.681l24.16-24.16c11.938-11.939,18.512-27.81,18.511-44.689c-0.001-34.848-28.349-63.199-63.197-63.199
			c-16.902,0-32.786,6.587-44.714,18.537l-24.125,24.122c-2.951-5.674-6.79-10.925-11.444-15.577
			c-11.936-11.936-27.807-18.508-44.688-18.508c-16.88,0-32.751,6.573-44.687,18.506C6.575,299.647,0,315.519,0,332.408
			l0.002,116.27c-0.025,12.477,3.579,24.549,10.421,34.91c2.345,3.552,5.067,6.885,8.089,9.906
			c11.935,11.933,27.805,18.505,44.685,18.505l116.329,0.001c0.004,0,0.039-0.001,0.042,0c16.88,0,32.752-6.575,44.69-18.512
			c11.936-11.936,18.51-27.806,18.51-44.686c0-16.882-6.574-32.752-18.509-44.685C219.612,399.468,214.367,395.632,208.697,392.681z
			 M203.046,472.277c-6.272,6.272-14.61,9.726-23.479,9.726h-0.031l-116.235-0.004c-0.011,0-0.093,0-0.104,0
			c-8.868,0-17.204-3.452-23.475-9.722c-1.597-1.596-3.031-3.352-4.265-5.22c-3.582-5.425-5.469-11.76-5.455-18.35L30,332.408
			c0-8.872,3.452-17.209,9.723-23.476c6.271-6.27,14.609-9.723,23.477-9.723c8.869,0,17.206,3.453,23.477,9.724
			c6.276,6.274,9.729,14.618,9.722,23.494c-0.005,6.069,3.648,11.542,9.254,13.868c5.605,2.325,12.061,1.042,16.352-3.249
			l42.674-42.669c6.271-6.282,14.614-9.742,23.498-9.742c18.301,0,33.191,14.894,33.192,33.2c0.001,8.865-3.453,17.202-9.724,23.474
			l-42.686,42.686c-4.29,4.289-5.573,10.74-3.252,16.345c2.32,5.604,7.788,9.26,13.854,9.262c8.876,0.003,17.216,3.457,23.485,9.729
			c6.27,6.27,9.724,14.605,9.724,23.473C212.769,457.671,209.316,466.007,203.046,472.277z"/>
	</g>
</g>
<g>
</g>
<g>
</g>
<g>
</g>
<g>
</g>
<g>
</g>
<g>
</g>
<g>
</g>
<g>
</g>
<g>
</g>
<g>
</g>
<g>
</g>
<g>
</g>
<g>
</g>
<g>
</g>
<g>
</g>
</svg>
