<?xml version="1.0" encoding="iso-8859-1"?>
<!-- Generator: Adobe Illustrator 19.0.0, SVG Export Plug-In . SVG Version: 6.00 Build 0)  -->
<svg version="1.1" id="Capa_1" xmlns="http://www.w3.org/2000/svg" xmlns:xlink="http://www.w3.org/1999/xlink" x="0px" y="0px"
	 viewBox="0 0 511.999 511.999" style="enable-background:new 0 0 511.999 511.999;" xml:space="preserve">
<g>
	<g>
		<path d="M297.393,159.723l-61.57-61.574c-5.857-5.858-15.355-5.857-21.213,0c-5.858,5.858-5.858,15.355-0.001,21.213
			l35.965,35.967H111.399c-8.284,0-15,6.716-15,15v171.335c0,8.284,6.716,15,15,15h33.479c8.284,0,15-6.716,15-15
			s-6.715-14.998-14.999-14.998H126.4V185.331h124.174l-35.962,35.963c-5.857,5.858-5.857,15.355,0.001,21.213
			c2.929,2.929,6.768,4.393,10.606,4.393c3.839,0,7.678-1.465,10.607-4.394l61.567-61.57
			C303.25,175.078,303.25,165.581,297.393,159.723z"/>
	</g>
</g>
<g>
	<g>
		<path d="M400.599,155.331H367.12c-8.284,0-15,6.716-15,15s6.716,15,15,15h18.478v141.335H261.429l35.96-35.96
			c5.858-5.857,5.858-15.355,0-21.213c-5.857-5.858-15.355-5.858-21.213,0l-61.567,61.566c-5.858,5.857-5.858,15.355-0.001,21.213
			l61.57,61.574c2.929,2.929,6.768,4.393,10.607,4.393c3.838,0,7.678-1.464,10.607-4.393c5.858-5.858,5.858-15.355,0-21.213
			l-35.966-35.968h139.171c8.284,0,15-6.716,15-15V170.331C415.599,162.046,408.883,155.331,400.599,155.331z"/>
	</g>
</g>
<g>
	<g>
		<path d="M416.665,0H95.333C42.766,0,0,42.766,0,95.333v321.333c0,52.567,42.766,95.333,95.333,95.333h321.332
			c52.567,0,95.334-42.766,95.334-95.333V95.333C511.999,42.766,469.232,0,416.665,0z M481.999,416.666
			c0,36.025-29.309,65.333-65.334,65.333H95.333C59.308,481.999,30,452.691,30,416.666V95.333C30,59.308,59.308,30,95.333,30
			h321.332c36.025,0,65.334,29.308,65.334,65.333V416.666z"/>
	</g>
</g>
<g>
</g>
<g>
</g>
<g>
</g>
<g>
</g>
<g>
</g>
<g>
</g>
<g>
</g>
<g>
</g>
<g>
</g>
<g>
</g>
<g>
</g>
<g>
</g>
<g>
</g>
<g>
</g>
<g>
</g>
</svg>
