<?xml version="1.0" encoding="iso-8859-1"?>
<!-- Generator: Adobe Illustrator 19.0.0, SVG Export Plug-In . SVG Version: 6.00 Build 0)  -->
<svg version="1.1" id="Capa_1" xmlns="http://www.w3.org/2000/svg" xmlns:xlink="http://www.w3.org/1999/xlink" x="0px" y="0px"
	 viewBox="0 0 511.999 511.999" style="enable-background:new 0 0 511.999 511.999;" xml:space="preserve">
<g>
	<g>
		<path d="M416.666,0H95.333C42.766,0,0,42.766,0,95.333v321.333c0,52.567,42.766,95.333,95.333,95.333h321.333
			c52.567,0,95.333-42.766,95.333-95.333V95.333C511.999,42.766,469.233,0,416.666,0z M481.999,416.666
			c0,36.025-29.308,65.333-65.333,65.333H95.333C59.308,481.999,30,452.691,30,416.666V95.333C30,59.308,59.308,30,95.333,30
			h321.333c36.025,0,65.333,29.308,65.333,65.333V416.666z"/>
	</g>
</g>
<g>
	<g>
		<path d="M349.637,293.592c-5.857-5.858-15.355-5.858-21.213,0c-5.858,5.858-5.858,15.355,0,21.213l36.044,36.046l-70.128,0.166
			l-53.27-94.883l53.282-94.902l70.033-0.003l-35.961,35.962c-5.856,5.861-5.856,15.358,0.002,21.216
			c2.929,2.929,6.767,4.393,10.606,4.393s7.678-1.464,10.607-4.394l61.567-61.569c5.857-5.858,5.857-15.354,0-21.212l-61.568-61.574
			c-5.856-5.858-15.354-5.859-21.213-0.001c-5.858,5.857-5.859,15.355-0.001,21.213l35.966,35.969l-78.819,0.003
			c-5.423,0-10.424,2.928-13.079,7.657l-48.624,86.605l-48.626-86.609c-2.655-4.729-7.656-7.657-13.08-7.657h-50.764
			c-8.284,0-15,6.716-15,15s6.716,15,15,15h41.983l53.283,94.905l-53.257,94.857l-41.929-0.222
			c-8.315-0.077-15.036,6.636-15.08,14.92c-0.043,8.284,6.637,15.036,14.921,15.08l50.763,0.268c0.027,0,0.053,0,0.08,0
			c5.421,0,10.423-2.926,13.079-7.657l48.626-86.607l48.624,86.607c2.655,4.73,7.657,7.657,13.079,7.657c0.012,0,0.024,0,0.036,0
			l78.698-0.187l-35.88,35.883c-5.858,5.858-5.857,15.355,0,21.213c2.929,2.929,6.767,4.393,10.606,4.393s7.678-1.465,10.607-4.394
			l61.567-61.571c5.857-5.858,5.857-15.355,0-21.213L349.637,293.592z"/>
	</g>
</g>
<g>
</g>
<g>
</g>
<g>
</g>
<g>
</g>
<g>
</g>
<g>
</g>
<g>
</g>
<g>
</g>
<g>
</g>
<g>
</g>
<g>
</g>
<g>
</g>
<g>
</g>
<g>
</g>
<g>
</g>
</svg>
