<?xml version="1.0" encoding="iso-8859-1"?>
<!-- Generator: Adobe Illustrator 19.0.0, SVG Export Plug-In . SVG Version: 6.00 Build 0)  -->
<svg version="1.1" id="Capa_1" xmlns="http://www.w3.org/2000/svg" xmlns:xlink="http://www.w3.org/1999/xlink" x="0px" y="0px"
	 viewBox="0 0 512.001 512.001" style="enable-background:new 0 0 512.001 512.001;" xml:space="preserve">
<g>
	<g>
		<path d="M416.667,321.333c-31.877,0-60.146,15.729-77.464,39.832l-152.95-76.475c2.865-9.059,4.414-18.696,4.414-28.69
			s-1.55-19.632-4.414-28.69l152.95-76.474c17.317,24.102,45.587,39.832,77.464,39.832c52.567,0,95.334-42.767,95.334-95.334
			C512,42.766,469.234,0,416.667,0c-52.566,0-95.332,42.766-95.332,95.333c0,9.993,1.549,19.63,4.414,28.688l-152.951,76.475
			c-17.318-24.101-45.587-39.829-77.463-39.829C42.768,160.667,0,203.433,0,256s42.767,95.333,95.334,95.333
			c31.876,0,60.146-15.729,77.463-39.83l152.951,76.476c-2.865,9.058-4.414,18.695-4.414,28.689
			c0,52.567,42.766,95.333,95.332,95.333C469.234,512,512,469.234,512,416.667S469.234,321.333,416.667,321.333z M416.667,30
			C452.692,30,482,59.308,482,95.333c0,36.025-29.309,65.334-65.334,65.334c-36.024,0-65.332-29.309-65.332-65.334
			C351.335,59.308,380.643,30,416.667,30z M95.334,321.333C59.31,321.333,30,292.025,30,256c0-36.025,29.309-65.333,65.334-65.333
			c36.024,0,65.332,29.308,65.332,65.333S131.359,321.333,95.334,321.333z M416.667,482c-36.024,0-65.332-29.308-65.332-65.333
			c0-36.025,29.308-65.334,65.332-65.334c36.025,0,65.334,29.309,65.334,65.334C482,452.692,452.692,482,416.667,482z"/>
	</g>
</g>
<g>
</g>
<g>
</g>
<g>
</g>
<g>
</g>
<g>
</g>
<g>
</g>
<g>
</g>
<g>
</g>
<g>
</g>
<g>
</g>
<g>
</g>
<g>
</g>
<g>
</g>
<g>
</g>
<g>
</g>
</svg>
