<?xml version="1.0" encoding="iso-8859-1"?>
<!-- Generator: Adobe Illustrator 19.0.0, SVG Export Plug-In . SVG Version: 6.00 Build 0)  -->
<svg version="1.1" id="Capa_1" xmlns="http://www.w3.org/2000/svg" xmlns:xlink="http://www.w3.org/1999/xlink" x="0px" y="0px"
	 viewBox="0 0 512 512" style="enable-background:new 0 0 512 512;" xml:space="preserve">
<g>
	<g>
		<path d="M497,80.332H392.033l-43.699-58.266c-2.833-3.777-7.278-6-12-6H175.666c-4.722,0-9.167,2.223-12,6l-43.699,58.266H15
			c-8.284,0-15,6.716-15,15v385.601c0,8.284,6.716,15,15,15h482c8.284,0,15-6.716,15-15V95.332
			C512,87.048,505.284,80.332,497,80.332z M482,465.933H30V110.332h97.467c4.722,0,9.167-2.223,12-6l43.699-58.266h145.668
			l43.699,58.266c2.833,3.777,7.278,6,12,6H482V465.933z"/>
	</g>
</g>
<g>
	<g>
		<path d="M256,176.733c-61.427,0-111.4,49.974-111.4,111.4s49.974,111.4,111.4,111.4s111.4-49.974,111.4-111.4
			S317.427,176.733,256,176.733z M256,369.534c-44.885,0-81.4-36.516-81.4-81.4c0-44.884,36.516-81.4,81.4-81.4
			c44.884,0,81.4,36.516,81.4,81.4C337.4,333.018,300.885,369.534,256,369.534z"/>
	</g>
</g>
<g>
</g>
<g>
</g>
<g>
</g>
<g>
</g>
<g>
</g>
<g>
</g>
<g>
</g>
<g>
</g>
<g>
</g>
<g>
</g>
<g>
</g>
<g>
</g>
<g>
</g>
<g>
</g>
<g>
</g>
</svg>
