<?xml version="1.0" encoding="iso-8859-1"?>
<!-- Generator: Adobe Illustrator 19.0.0, SVG Export Plug-In . SVG Version: 6.00 Build 0)  -->
<svg version="1.1" id="Capa_1" xmlns="http://www.w3.org/2000/svg" xmlns:xlink="http://www.w3.org/1999/xlink" x="0px" y="0px"
	 viewBox="0 0 512 512" style="enable-background:new 0 0 512 512;" xml:space="preserve">
<g>
	<g>
		<path d="M126.4,448.8c0-8.284-6.715-15-15-15H99.412l8.476-8.476c5.858-5.858,5.858-15.355,0-21.213
			c-5.857-5.857-15.355-5.858-21.213,0l-8.476,8.476v-11.986c0-8.284-6.716-15-15-15s-15,6.716-15,15v11.986l-8.476-8.476
			c-5.857-5.858-15.355-5.858-21.213,0c-5.858,5.858-5.858,15.355,0,21.213l8.476,8.476H15c-8.284,0-15,6.716-15,15s6.716,15,15,15
			h11.988l-8.478,8.478c-5.858,5.858-5.858,15.355,0,21.213c2.929,2.929,6.768,4.393,10.607,4.393s7.678-1.464,10.606-4.394
			l8.476-8.476V497c0,8.284,6.716,15,15,15c8.284,0,15-6.716,15-15v-11.987l8.476,8.476c2.929,2.929,6.768,4.393,10.607,4.393
			s7.678-1.464,10.606-4.393c5.858-5.858,5.858-15.355,0-21.213l-8.476-8.476H111.4C119.684,463.8,126.4,457.084,126.4,448.8z"/>
	</g>
</g>
<g>
	<g>
		<path d="M319.2,448.8c0-8.284-6.716-15-15-15h-11.987l8.476-8.476c5.858-5.858,5.858-15.355,0-21.213
			c-5.857-5.857-15.355-5.858-21.213,0L271,412.587v-11.986c0-8.284-6.716-15-15-15s-15,6.716-15,15v11.986l-8.476-8.476
			c-5.857-5.858-15.355-5.858-21.213,0c-5.858,5.858-5.858,15.355,0,21.213l8.476,8.476H207.8c-8.284,0-15,6.716-15,15
			s6.716,15,15,15h11.989l-8.478,8.478c-5.858,5.858-5.858,15.355,0,21.213c2.929,2.929,6.768,4.393,10.607,4.393
			s7.678-1.464,10.606-4.394l8.476-8.476V497c0,8.284,6.716,15,15,15s15-6.716,15-15v-11.987l8.476,8.476
			c2.929,2.929,6.768,4.393,10.606,4.393c3.839,0,7.678-1.464,10.607-4.393c5.858-5.858,5.858-15.355,0-21.213l-8.476-8.476H304.2
			C312.484,463.8,319.2,457.084,319.2,448.8z"/>
	</g>
</g>
<g>
	<g>
		<path d="M512,448.8c0-8.284-6.716-15-15-15h-11.987l8.476-8.476c5.858-5.858,5.858-15.355,0-21.213
			c-5.857-5.857-15.355-5.858-21.213,0l-8.476,8.476v-11.986c0-8.284-6.716-15-15-15s-15,6.716-15,15v11.986l-8.476-8.476
			c-5.857-5.858-15.355-5.858-21.213,0c-5.858,5.858-5.858,15.355,0,21.213l8.476,8.476H400.6c-8.284,0-15,6.716-15,15
			s6.716,15,15,15h11.989l-8.478,8.478c-5.858,5.858-5.858,15.355,0,21.213c2.929,2.929,6.768,4.393,10.607,4.393
			s7.678-1.464,10.606-4.394l8.476-8.476V497c0,8.284,6.716,15,15,15s15-6.716,15-15v-11.987l8.476,8.476
			c2.929,2.929,6.768,4.393,10.606,4.393c3.839,0,7.678-1.464,10.607-4.393c5.858-5.858,5.858-15.355,0-21.213l-8.476-8.476H497
			C505.284,463.8,512,457.084,512,448.8z"/>
	</g>
</g>
<g>
	<g>
		<path d="M352.399,96.399H319.2V63.2C319.2,28.352,290.849,0,256,0s-63.2,28.352-63.2,63.2v33.199h-33.2c-8.284,0-15,6.716-15,15
			V304.2c0,8.284,6.716,15,15,15h192.8c8.284,0,15-6.716,15-15V111.399C367.399,103.115,360.684,96.399,352.399,96.399z M256,30
			c18.306,0,33.2,14.894,33.2,33.2v33.199h-66.4V63.2h0C222.8,44.893,237.694,30,256,30z M337.399,289.2L337.399,289.2H174.6
			V126.399h33.2h96.4h33.199V289.2z"/>
	</g>
</g>
<g>
</g>
<g>
</g>
<g>
</g>
<g>
</g>
<g>
</g>
<g>
</g>
<g>
</g>
<g>
</g>
<g>
</g>
<g>
</g>
<g>
</g>
<g>
</g>
<g>
</g>
<g>
</g>
<g>
</g>
</svg>
