<?xml version="1.0" encoding="iso-8859-1"?>
<!-- Generator: Adobe Illustrator 19.0.0, SVG Export Plug-In . SVG Version: 6.00 Build 0)  -->
<svg version="1.1" id="Capa_1" xmlns="http://www.w3.org/2000/svg" xmlns:xlink="http://www.w3.org/1999/xlink" x="0px" y="0px"
	 viewBox="0 0 512 512" style="enable-background:new 0 0 512 512;" xml:space="preserve">
<g>
	<g>
		<path d="M493.49,404.11l-86.966-86.964c16.428-30.824,25.145-65.398,25.144-101.314c0-57.65-22.451-111.851-63.217-152.616
			C327.685,22.451,273.485,0,215.833,0c0,0-0.001,0-0.002,0C96.823,0,0.003,96.822,0,215.833
			c0.001,57.651,22.452,111.852,63.217,152.617c40.766,40.766,94.965,63.216,152.615,63.216c35.916,0,70.49-8.717,101.314-25.143
			l86.965,86.967c11.938,11.937,27.809,18.51,44.69,18.51c16.881,0,32.752-6.574,44.686-18.51
			C505.425,481.553,512,465.682,512,448.8C512,431.918,505.427,416.047,493.49,404.11z M312.703,374.489
			c-0.562,0.292-1.102,0.633-1.63,1.001c-28.493,17.065-61.166,26.176-95.24,26.176c-102.466,0-185.83-83.365-185.832-185.833
			C30.003,113.364,113.365,30,215.831,30c0.001,0,0.001,0,0.001,0c0.002,0,0.002,0,0.002,0
			c102.469,0,185.834,83.364,185.834,185.832c0,49.638-19.33,96.304-54.43,131.404C336.693,357.779,325.099,366.888,312.703,374.489
			z M472.274,472.277c-6.268,6.27-14.605,9.723-23.473,9.723c-8.869,0-17.207-3.453-23.478-9.723l-82.14-82.142
			c8.88-6.518,17.332-13.749,25.268-21.686c7.936-7.935,15.167-16.386,21.684-25.266l82.143,82.14
			C485.221,438.268,485.221,459.331,472.274,472.277z"/>
	</g>
</g>
<g>
	<g>
		<path d="M215.836,96.398C149.984,96.399,96.404,149.976,96.4,215.832c0.002,65.855,53.58,119.433,119.434,119.433
			c65.857,0.001,119.436-53.577,119.436-119.433C335.27,149.977,281.693,96.399,215.836,96.398z M215.833,305.266
			c-49.312,0-89.432-40.12-89.434-89.433c0.004-49.313,40.125-89.434,89.437-89.435c49.314,0.001,89.433,40.121,89.433,89.434
			C305.27,265.146,265.148,305.266,215.833,305.266z"/>
	</g>
</g>
<g>
</g>
<g>
</g>
<g>
</g>
<g>
</g>
<g>
</g>
<g>
</g>
<g>
</g>
<g>
</g>
<g>
</g>
<g>
</g>
<g>
</g>
<g>
</g>
<g>
</g>
<g>
</g>
<g>
</g>
</svg>
