<?xml version="1.0" encoding="iso-8859-1"?>
<!-- Generator: Adobe Illustrator 19.0.0, SVG Export Plug-In . SVG Version: 6.00 Build 0)  -->
<svg version="1.1" id="Capa_1" xmlns="http://www.w3.org/2000/svg" xmlns:xlink="http://www.w3.org/1999/xlink" x="0px" y="0px"
	 viewBox="0 0 511.999 511.999" style="enable-background:new 0 0 511.999 511.999;" xml:space="preserve">
<g>
	<g>
		<path d="M407.783,62.872C367.241,22.328,313.337,0,256.002,0c-57.335,0-111.239,22.328-151.784,62.871
			c-40.542,40.542-62.87,94.445-62.87,151.78c0,57.334,22.328,111.238,62.87,151.782l141.178,141.173
			c2.929,2.929,6.768,4.393,10.606,4.393c3.839,0,7.678-1.464,10.607-4.394l141.17-141.172
			c40.542-40.543,62.87-94.447,62.871-151.783C470.652,157.315,448.324,103.412,407.783,62.872z M386.566,345.22L256.001,475.787
			L125.431,345.22c-71.995-71.997-71.995-189.142-0.001-261.135C160.309,49.208,206.681,30,256.002,30
			c49.321,0,95.69,19.208,130.567,54.085C458.564,156.078,458.562,273.223,386.566,345.22z"/>
	</g>
</g>
<g>
	<g>
		<path d="M323.413,147.24c-18.007-18.006-41.947-27.922-67.412-27.922c-25.464,0-49.405,9.916-67.41,27.922
			c-18.007,18.006-27.923,41.947-27.923,67.412c0,25.464,9.917,49.405,27.923,67.411c18.005,18.006,41.945,27.922,67.41,27.922
			c25.465,0,49.406-9.916,67.412-27.923c18.006-18.006,27.923-41.946,27.923-67.411S341.42,165.246,323.413,147.24z
			 M302.199,260.848c-12.34,12.34-28.747,19.136-46.199,19.136c-17.451,0-33.857-6.796-46.197-19.135
			c-12.34-12.34-19.136-28.746-19.136-46.197s6.796-33.858,19.136-46.199c12.339-12.339,28.746-19.135,46.197-19.135
			c17.452,0,33.858,6.796,46.198,19.135c12.34,12.339,19.136,28.746,19.136,46.197C321.335,232.102,314.54,248.508,302.199,260.848z
			"/>
	</g>
</g>
<g>
</g>
<g>
</g>
<g>
</g>
<g>
</g>
<g>
</g>
<g>
</g>
<g>
</g>
<g>
</g>
<g>
</g>
<g>
</g>
<g>
</g>
<g>
</g>
<g>
</g>
<g>
</g>
<g>
</g>
</svg>
