<?xml version="1.0" encoding="iso-8859-1"?>
<!-- Generator: Adobe Illustrator 19.0.0, SVG Export Plug-In . SVG Version: 6.00 Build 0)  -->
<svg version="1.1" id="Capa_1" xmlns="http://www.w3.org/2000/svg" xmlns:xlink="http://www.w3.org/1999/xlink" x="0px" y="0px"
	 viewBox="0 0 512 512" style="enable-background:new 0 0 512 512;" xml:space="preserve">
<g>
	<g>
		<path d="M387.106,167.497c-5.857-5.857-15.354-5.858-21.212,0.001L220.705,312.685l-74.599-74.597
			c-5.857-5.857-15.355-5.858-21.213,0.001c-5.857,5.858-5.857,15.355,0,21.213l85.205,85.203c2.929,2.929,6.768,4.393,10.606,4.393
			c3.839,0,7.678-1.464,10.606-4.394L387.106,188.71C392.964,182.853,392.964,173.355,387.106,167.497z"/>
	</g>
</g>
<g>
	<g>
		<path d="M437.019,74.981C388.667,26.629,324.379,0,256,0C187.62,0,123.333,26.629,74.981,74.981C26.628,123.334,0,187.621,0,256
			c0,68.381,26.628,132.668,74.981,181.02C123.332,485.372,187.62,512,256,512s132.667-26.628,181.019-74.98
			C485.371,388.668,512,324.381,512,256C512,187.621,485.371,123.334,437.019,74.981z M256,482C131.383,482,30,380.617,30,256
			S131.383,30,256,30s226,101.383,226,226S380.617,482,256,482z"/>
	</g>
</g>
<g>
</g>
<g>
</g>
<g>
</g>
<g>
</g>
<g>
</g>
<g>
</g>
<g>
</g>
<g>
</g>
<g>
</g>
<g>
</g>
<g>
</g>
<g>
</g>
<g>
</g>
<g>
</g>
<g>
</g>
</svg>
