<?xml version="1.0" encoding="iso-8859-1"?>
<!-- Generator: Adobe Illustrator 19.0.0, SVG Export Plug-In . SVG Version: 6.00 Build 0)  -->
<svg version="1.1" id="Capa_1" xmlns="http://www.w3.org/2000/svg" xmlns:xlink="http://www.w3.org/1999/xlink" x="0px" y="0px"
	 viewBox="0 0 512 512" style="enable-background:new 0 0 512 512;" xml:space="preserve">
<g>
	<g>
		<path d="M504.886,98.641c-4.422-2.733-9.944-2.98-14.594-0.657l-138.958,69.48v-56.064c0-8.284-6.716-15-15-15H15
			c-8.284,0-15,6.716-15,15V400.6c0,8.284,6.716,15,15,15h321.333c8.284,0,15-6.716,15-15v-56.062l138.959,69.478
			c2.117,1.059,4.414,1.583,6.708,1.583c2.742,0,5.478-0.751,7.886-2.24c4.422-2.733,7.114-7.561,7.114-12.76v-289.2
			C512,106.201,509.308,101.373,504.886,98.641z M321.333,191.652c0,0.028-0.003,0.055-0.003,0.083v128.531
			c0,0.028,0.003,0.055,0.003,0.083V385.6H30V126.399h291.333V191.652z M482,376.33l-130.667-65.333V201.004L482,135.67V376.33z"/>
	</g>
</g>
<g>
</g>
<g>
</g>
<g>
</g>
<g>
</g>
<g>
</g>
<g>
</g>
<g>
</g>
<g>
</g>
<g>
</g>
<g>
</g>
<g>
</g>
<g>
</g>
<g>
</g>
<g>
</g>
<g>
</g>
</svg>
