<?xml version="1.0" encoding="iso-8859-1"?>
<!-- Generator: Adobe Illustrator 19.0.0, SVG Export Plug-In . SVG Version: 6.00 Build 0)  -->
<svg version="1.1" id="Capa_1" xmlns="http://www.w3.org/2000/svg" xmlns:xlink="http://www.w3.org/1999/xlink" x="0px" y="0px"
	 viewBox="0 0 512 512" style="enable-background:new 0 0 512 512;" xml:space="preserve">
<g>
	<g>
		<path d="M487.9,95.334C487.9,42.767,445.134,0,392.566,0c-30.974,0-58.54,14.851-75.965,37.803
			c-21.527-11.877-45.229-19.042-69.81-21.106c0.065-0.562,0.107-1.128,0.107-1.697c0-3.95-1.6-7.81-4.39-10.61
			C239.72,1.6,235.85,0,231.899,0c-3.949,0-7.819,1.6-10.609,4.39c-2.79,2.8-4.391,6.66-4.391,10.61
			c0,0.571,0.043,1.139,0.108,1.704C127.09,24.289,56.233,99.887,56.233,191.733V385.6H39.1c-8.284,0-15,6.716-15,15s6.716,15,15,15
			h32.134h50.28c7.349,54.358,54.047,96.4,110.387,96.4s103.036-42.043,110.385-96.4h50.281H424.7c8.284,0,15-6.716,15-15
			s-6.716-15-15-15h-17.133V191.733c0-0.747-0.018-1.497-0.027-2.246C453.018,182.283,487.9,142.808,487.9,95.334z M231.9,482
			c-39.762,0-72.956-28.656-80.016-66.4h160.029C304.854,453.344,271.661,482,231.9,482z M377.566,385.6h-49.267H135.5H86.233
			V191.733c0-80.321,65.346-145.667,145.667-145.667c24.896,0,49.031,6.275,70.532,18.206c-3.366,9.741-5.2,20.19-5.2,31.062
			c0,47.454,34.854,86.917,80.306,94.145c0.012,0.752,0.028,1.504,0.028,2.255V385.6z M392.566,160.667
			c-36.025,0-65.334-29.308-65.334-65.333c0-9.667,2.127-18.841,5.911-27.104c0.356-0.42,0.698-0.858,1.014-1.326
			c0.974-1.441,1.647-2.994,2.065-4.585C347.586,43.001,368.58,30,392.566,30c36.025,0,65.334,29.309,65.334,65.334
			C457.9,131.359,428.592,160.667,392.566,160.667z"/>
	</g>
</g>
<g>
</g>
<g>
</g>
<g>
</g>
<g>
</g>
<g>
</g>
<g>
</g>
<g>
</g>
<g>
</g>
<g>
</g>
<g>
</g>
<g>
</g>
<g>
</g>
<g>
</g>
<g>
</g>
<g>
</g>
</svg>
