<?xml version="1.0" encoding="iso-8859-1"?>
<!-- Generator: Adobe Illustrator 19.0.0, SVG Export Plug-In . SVG Version: 6.00 Build 0)  -->
<svg version="1.1" id="Capa_1" xmlns="http://www.w3.org/2000/svg" xmlns:xlink="http://www.w3.org/1999/xlink" x="0px" y="0px"
	 viewBox="0 0 512 512" style="enable-background:new 0 0 512 512;" xml:space="preserve">
<g>
	<g>
		<path d="M493.417,211.237L357.129,74.95c-11.937-11.957-27.821-18.541-44.724-18.541c-34.847,0-63.199,28.351-63.202,63.198
			c-0.002,16.881,6.571,32.755,18.513,44.697l28.491,28.491H63.174c-16.885,0-32.757,6.575-44.693,18.513
			c-24.641,24.643-24.641,64.74,0,89.381C30.418,312.626,46.284,319.2,63.209,319.2l233.003,0.001l-28.464,28.466
			c-11.959,11.941-18.544,27.823-18.544,44.722c0,34.849,28.354,63.202,63.203,63.203h0.004l0.001-15.001v15.001
			c16.878,0,32.749-6.575,44.691-18.515l136.3-136.3c8.84-8.807,14.827-19.891,17.315-32.059c0.852-4.168,1.283-8.448,1.283-12.721
			C512.001,239.071,505.394,223.168,493.417,211.237z M481.323,262.71c-1.303,6.368-4.448,12.182-9.117,16.833l-136.32,136.319
			c-6.273,6.273-14.611,9.729-23.476,9.729l-0.001,15.001l-0.002-15.001c-18.309,0-33.203-14.895-33.203-33.201
			c0-8.877,3.459-17.219,9.749-23.499l54.078-54.081c4.29-4.29,5.573-10.743,3.252-16.348c-2.322-5.605-7.792-9.261-13.859-9.261
			L63.158,289.2c-8.86,0-17.192-3.453-23.462-9.724c-12.944-12.945-12.944-34.008,0.001-46.955
			c6.269-6.27,14.607-9.725,23.477-9.725h269.249c6.067,0,11.537-3.655,13.859-9.261c2.321-5.605,1.038-12.058-3.252-16.348
			L288.93,143.09c-6.273-6.273-9.728-14.612-9.726-23.479c0.001-18.306,14.896-33.199,33.2-33.199c8.88,0,17.223,3.458,23.5,9.746
			l136.318,136.316c6.304,6.279,9.776,14.633,9.775,23.524C481.998,258.258,481.77,260.518,481.323,262.71z"/>
	</g>
</g>
<g>
</g>
<g>
</g>
<g>
</g>
<g>
</g>
<g>
</g>
<g>
</g>
<g>
</g>
<g>
</g>
<g>
</g>
<g>
</g>
<g>
</g>
<g>
</g>
<g>
</g>
<g>
</g>
<g>
</g>
</svg>
