<?xml version="1.0" encoding="iso-8859-1"?>
<!-- Generator: Adobe Illustrator 19.0.0, SVG Export Plug-In . SVG Version: 6.00 Build 0)  -->
<svg version="1.1" id="Capa_1" xmlns="http://www.w3.org/2000/svg" xmlns:xlink="http://www.w3.org/1999/xlink" x="0px" y="0px"
	 viewBox="0 0 512 512" style="enable-background:new 0 0 512 512;" xml:space="preserve">
<g>
	<g>
		<path d="M493.52,211.306c-11.937-11.937-27.807-18.509-44.728-18.509l-233.002-0.003l28.465-28.464
			c11.957-11.941,18.542-27.824,18.542-44.722c0-34.849-28.353-63.2-63.218-63.2c-16.874,0-32.741,6.574-44.681,18.512
			L18.601,211.219c-8.84,8.806-14.827,19.891-17.315,32.055C0.433,247.441,0,251.721,0,256c0,16.928,6.607,32.833,18.584,44.761
			l136.287,136.287c11.939,11.958,27.823,18.544,44.724,18.544c34.849,0,63.201-28.353,63.202-63.201
			c0.003-16.879-6.57-32.752-18.512-44.697l-28.493-28.493h233.035c16.886,0,32.759-6.574,44.694-18.512
			C518.16,276.045,518.16,235.948,493.52,211.306z M472.305,279.475c-6.269,6.269-14.608,9.724-23.478,9.724H179.577
			c-6.066,0-11.537,3.655-13.859,9.261c-2.321,5.605-1.038,12.058,3.252,16.348l54.099,54.099c6.273,6.275,9.728,14.614,9.727,23.48
			c-0.001,18.307-14.895,33.202-33.2,33.202c-8.879,0-17.221-3.458-23.5-9.748L39.776,279.524
			c-6.302-6.278-9.775-14.633-9.775-23.524c0-2.261,0.228-4.518,0.676-6.71c1.304-6.37,4.448-12.185,9.117-16.835L176.113,96.135
			c6.271-6.271,14.606-9.725,23.481-9.725c18.307,0,33.201,14.893,33.201,33.198c0,8.878-3.459,17.22-9.748,23.499l-54.079,54.078
			c-4.29,4.29-5.573,10.743-3.252,16.348c2.322,5.605,7.791,9.261,13.859,9.261l269.259,0.003c8.865,0,17.201,3.453,23.47,9.722
			C485.249,245.465,485.249,266.529,472.305,279.475z"/>
	</g>
</g>
<g>
</g>
<g>
</g>
<g>
</g>
<g>
</g>
<g>
</g>
<g>
</g>
<g>
</g>
<g>
</g>
<g>
</g>
<g>
</g>
<g>
</g>
<g>
</g>
<g>
</g>
<g>
</g>
<g>
</g>
</svg>
