<?xml version="1.0" encoding="iso-8859-1"?>
<!-- Generator: Adobe Illustrator 19.0.0, SVG Export Plug-In . SVG Version: 6.00 Build 0)  -->
<svg version="1.1" id="Capa_1" xmlns="http://www.w3.org/2000/svg" xmlns:xlink="http://www.w3.org/1999/xlink" x="0px" y="0px"
	 viewBox="0 0 512 512" style="enable-background:new 0 0 512 512;" xml:space="preserve">
<g>
	<g>
		<path d="M497,48.2H15c-8.284,0-15,6.716-15,15v385.601c0,8.284,6.716,15,15,15h482c8.284,0,15-6.716,15-15V63.2
			C512,54.916,505.285,48.2,497,48.2z M454.239,78.2L256,236.789L57.765,78.2H454.239z M482,433.799H30V94.406l216.63,173.306
			c2.74,2.192,6.055,3.287,9.371,3.287c3.315,0,6.631-1.096,9.371-3.287L482,94.408V433.799z"/>
	</g>
</g>
<g>
</g>
<g>
</g>
<g>
</g>
<g>
</g>
<g>
</g>
<g>
</g>
<g>
</g>
<g>
</g>
<g>
</g>
<g>
</g>
<g>
</g>
<g>
</g>
<g>
</g>
<g>
</g>
<g>
</g>
</svg>
