<?xml version="1.0" encoding="iso-8859-1"?>
<!-- Generator: Adobe Illustrator 19.0.0, SVG Export Plug-In . SVG Version: 6.00 Build 0)  -->
<svg version="1.1" id="Capa_1" xmlns="http://www.w3.org/2000/svg" xmlns:xlink="http://www.w3.org/1999/xlink" x="0px" y="0px"
	 viewBox="0 0 512 512" style="enable-background:new 0 0 512 512;" xml:space="preserve">
<g>
	<g>
		<path d="M416.667,0H95.333C42.766,0,0,42.767,0,95.334v321.332C0,469.233,42.766,512,95.333,512h321.334
			C469.234,512,512,469.233,512,416.666V95.334C512,42.767,469.234,0,416.667,0z M482,416.666C482,452.691,452.692,482,416.667,482
			H95.333C59.308,482,30,452.691,30,416.666V95.334C30,59.309,59.308,30,95.333,30h321.334C452.692,30,482,59.309,482,95.334
			V416.666z"/>
	</g>
</g>
<g>
	<g>
		<path d="M400.6,120.5H111.4c-8.284,0-15,6.716-15,15s6.716,15,15,15h289.2c8.284,0,15-6.716,15-15S408.884,120.5,400.6,120.5z"/>
	</g>
</g>
<g>
	<g>
		<path d="M400.6,241H111.4c-8.284,0-15,6.716-15,15s6.716,15,15,15h289.2c8.284,0,15-6.716,15-15S408.884,241,400.6,241z"/>
	</g>
</g>
<g>
	<g>
		<path d="M400.6,361.5H111.4c-8.284,0-15,6.716-15,15s6.716,15,15,15h289.2c8.284,0,15-6.716,15-15S408.884,361.5,400.6,361.5z"/>
	</g>
</g>
<g>
</g>
<g>
</g>
<g>
</g>
<g>
</g>
<g>
</g>
<g>
</g>
<g>
</g>
<g>
</g>
<g>
</g>
<g>
</g>
<g>
</g>
<g>
</g>
<g>
</g>
<g>
</g>
<g>
</g>
</svg>
