<?xml version="1.0" encoding="iso-8859-1"?>
<!-- Generator: Adobe Illustrator 19.0.0, SVG Export Plug-In . SVG Version: 6.00 Build 0)  -->
<svg version="1.1" id="Capa_1" xmlns="http://www.w3.org/2000/svg" xmlns:xlink="http://www.w3.org/1999/xlink" x="0px" y="0px"
	 viewBox="0 0 512 512" style="enable-background:new 0 0 512 512;" xml:space="preserve">
<g>
	<g>
		<path d="M416.667,0H95.333C42.766,0,0,42.767,0,95.334v321.332C0,469.233,42.766,512,95.333,512h321.334
			C469.234,512,512,469.233,512,416.666V95.334C512,42.767,469.234,0,416.667,0z M482,416.666C482,452.691,452.692,482,416.667,482
			H95.333C59.308,482,30,452.691,30,416.666V95.334C30,59.309,59.308,30,95.333,30h321.334C452.692,30,482,59.309,482,95.334
			V416.666z"/>
	</g>
</g>
<g>
	<g>
		<path d="M362.414,137.053c-6.172-5.524-15.656-5.001-21.181,1.171c-5.526,6.172-5.001,15.655,1.171,21.181
			C369.855,183.98,385.6,219.187,385.6,256c0,71.461-58.138,129.6-129.6,129.6S126.399,327.462,126.399,256
			c0-36.814,15.746-72.023,43.199-96.6c6.172-5.525,6.697-15.008,1.171-21.181c-5.525-6.173-15.009-6.697-21.181-1.171
			C115.786,167.309,96.399,210.665,96.399,256c0,88.003,71.597,159.6,159.601,159.6c88.003,0,159.6-71.596,159.6-159.6
			C415.6,210.666,396.214,167.311,362.414,137.053z"/>
	</g>
</g>
<g>
	<g>
		<path d="M256,96.4c-8.284,0-15,6.716-15,15v163.012c0,8.284,6.716,15,15,15s15-6.716,15-15V111.4
			C271,103.116,264.284,96.4,256,96.4z"/>
	</g>
</g>
<g>
</g>
<g>
</g>
<g>
</g>
<g>
</g>
<g>
</g>
<g>
</g>
<g>
</g>
<g>
</g>
<g>
</g>
<g>
</g>
<g>
</g>
<g>
</g>
<g>
</g>
<g>
</g>
<g>
</g>
</svg>
