<?xml version="1.0" encoding="iso-8859-1"?>
<!-- Generator: Adobe Illustrator 19.0.0, SVG Export Plug-In . SVG Version: 6.00 Build 0)  -->
<svg version="1.1" id="Capa_1" xmlns="http://www.w3.org/2000/svg" xmlns:xlink="http://www.w3.org/1999/xlink" x="0px" y="0px"
	 viewBox="0 0 512 512" style="enable-background:new 0 0 512 512;" xml:space="preserve">
<g>
	<g>
		<path d="M497,0h-96.4c-8.284,0-15,6.716-15,15v81.4h-81.4c-8.284,0-15,6.716-15,15v81.4h-81.4c-8.284,0-15,6.716-15,15v81.4h-81.4
			c-8.284,0-15,6.716-15,15v81.4H15c-8.284,0-15,6.716-15,15V497c0,8.284,6.716,15,15,15h96.4h96.4h96.4h96.4H497
			c8.284,0,15-6.716,15-15V15C512,6.716,505.284,0,497,0z M96.4,482H30v-66.4h66.4V482z M192.8,482h-66.4v-81.4v-81.4h66.4V482z
			 M289.2,482h-66.4V304.2h0v-81.399h66.4V482z M385.6,482h-66.4V207.801v-81.4h66.4V482z M482,482h-66.4V111.4V30H482V482z"/>
	</g>
</g>
<g>
</g>
<g>
</g>
<g>
</g>
<g>
</g>
<g>
</g>
<g>
</g>
<g>
</g>
<g>
</g>
<g>
</g>
<g>
</g>
<g>
</g>
<g>
</g>
<g>
</g>
<g>
</g>
<g>
</g>
</svg>
