<?xml version="1.0" encoding="iso-8859-1"?>
<!-- Generator: Adobe Illustrator 19.0.0, SVG Export Plug-In . SVG Version: 6.00 Build 0)  -->
<svg version="1.1" id="Capa_1" xmlns="http://www.w3.org/2000/svg" xmlns:xlink="http://www.w3.org/1999/xlink" x="0px" y="0px"
	 viewBox="0 0 511.999 511.999" style="enable-background:new 0 0 511.999 511.999;" xml:space="preserve">
<g>
	<g>
		<path fill="#757575" d="M465.235,77.862c-62.251-62.249-163.543-62.249-225.798,0L32.588,284.714c-43.451,43.454-43.451,114.156,0,157.607
			c43.448,43.448,114.149,43.448,157.605,0l206.85-206.859c24.649-24.653,24.648-64.761,0.001-89.405
			c-11.939-11.942-27.815-18.52-44.702-18.52c-16.886,0-32.763,6.576-44.706,18.518l-172.77,172.77
			c-5.859,5.858-5.859,15.357,0,21.215c5.858,5.858,15.357,5.858,21.215,0l172.769-172.769c6.276-6.275,14.62-9.73,23.492-9.73
			s17.212,3.454,23.484,9.73c12.95,12.948,12.95,34.023,0,46.976L168.98,421.105c-31.756,31.751-83.423,31.75-115.175,0.001
			c-31.753-31.753-31.752-83.421,0-115.176L260.654,99.078c50.555-50.551,132.815-50.552,183.368-0.001
			c24.49,24.49,37.977,57.05,37.977,91.683c0.001,34.634-13.486,67.195-37.977,91.684L271.257,455.214
			c-5.859,5.859-5.859,15.357,0,21.215c2.929,2.93,6.768,4.394,10.607,4.394c3.839,0,7.679-1.465,10.607-4.394l172.764-172.772
			c30.157-30.155,46.766-70.251,46.765-112.899C512,148.112,495.393,108.017,465.235,77.862z"/>
	</g>
</g>
<g>
</g>
<g>
</g>
<g>
</g>
<g>
</g>
<g>
</g>
<g>
</g>
<g>
</g>
<g>
</g>
<g>
</g>
<g>
</g>
<g>
</g>
<g>
</g>
<g>
</g>
<g>
</g>
<g>
</g>
</svg>
