<svg width="16" height="19" viewBox="0 0 16 19" fill="none" xmlns="http://www.w3.org/2000/svg">
<path d="M2.16667 14H13.8333V8.19246C13.8333 4.95663 11.2217 2.33329 8 2.33329C4.77833 2.33329 2.16667 4.95663 2.16667 8.19246V14ZM8 0.666626C12.1417 0.666626 15.5 4.03579 15.5 8.19246V15.6666H0.5V8.19246C0.5 4.03579 3.85833 0.666626 8 0.666626ZM5.91667 16.5H10.0833C10.0833 17.0525 9.86384 17.5824 9.47314 17.9731C9.08244 18.3638 8.55253 18.5833 8 18.5833C7.44747 18.5833 6.91756 18.3638 6.52686 17.9731C6.13616 17.5824 5.91667 17.0525 5.91667 16.5Z" fill="black"/>
</svg>
